<?xml version="1.0" encoding="UTF-8" standalone="no"?><svg width="287.036" height="120.997" xmlns="http://www.w3.org/2000/svg" stroke-linejoin="round" stroke-linecap="round" fill-rule="evenodd" fill="none"><rect x="0" y="0" width="287.036" height="120.997" fill="#F2EDDE"/><g transform="translate(10 110.997)"><path d=" M 0,0"/><g><path d=" M 0,0"/><path d=" M 38.148,-103.491 L -3,-69.281 L 270.036,-69.281 L 228.888,-103.491 L 38.148,-103.491" fill="#D1AF99" stroke="#76736C" stroke-width="1.152"/><path d=" M 0.593,-72.268 L 0.593,-69.389 M 0.593,-69.389 L 0.593,-69.281 M 4.185,-75.255 L 4.185,-72.369 M 4.185,-69.497 L 4.185,-69.281 M 7.778,-78.242 L 7.778,-71.734 M 7.778,-71.485 L 7.778,-69.281 M 11.37,-81.228 L 11.37,-78.977 M 11.37,-78.918 L 11.37,-78.323 M 11.37,-76.073 L 11.37,-71.598 M 11.37,-71.127 L 11.37,-69.281 M 14.963,-84.215 L 14.963,-78.568 M 14.963,-77.297 L 14.963,-76.991 M 14.963,-75.918 L 14.963,-73.497 M 14.963,-73.497 L 14.963,-69.281 M 18.555,-87.202 L 18.555,-83.769 M 18.555,-79.312 L 18.555,-78.577 M 18.555,-75.385 L 18.555,-69.281 M 22.148,-90.189 L 22.148,-83.8 M 22.148,-79.585 L 22.148,-76.76 M 22.148,-73.996 L 22.148,-70.199 M 22.148,-70.199 L 22.148,-69.281 M 25.741,-93.176 L 25.741,-86.182 M 25.741,-84.624 L 25.741,-83.241 M 25.741,-80.178 L 25.741,-77.655 M 25.741,-73.431 L 25.741,-71.372 M 25.741,-70.743 L 25.741,-69.281 M 29.333,-96.163 L 29.333,-94.063 M 29.333,-92.647 L 29.333,-89.327 M 29.333,-82.669 L 29.333,-74.68 M 29.333,-74.68 L 29.333,-69.281 M 32.926,-99.149 L 32.926,-96.993 M 32.926,-93.93 L 32.926,-93.114 M 32.926,-88.393 L 32.926,-80.349 M 32.926,-79.355 L 32.926,-78.931 M 32.926,-78.931 L 32.926,-69.281 M 36.518,-102.136 L 36.518,-101.024 M 36.518,-94.807 L 36.518,-87.281 M 36.518,-86.656 L 36.518,-80.049 M 36.518,-80.049 L 36.518,-69.281 M 40.111,-103.491 L 40.111,-94.249 M 40.111,-92.494 L 40.111,-86.408 M 40.111,-81.034 L 40.111,-79.285 M 40.111,-78.529 L 40.111,-69.281 M 43.704,-103.491 L 43.704,-96.891 M 43.704,-95.483 L 43.704,-90.682 M 43.704,-86.151 L 43.704,-76.909 M 43.704,-73.615 L 43.704,-69.281 M 47.296,-103.491 L 47.296,-99.772 M 47.296,-93.557 L 47.296,-85.106 M 47.296,-81.651 L 47.296,-75.841 M 47.296,-74.988 L 47.296,-74.814 M 47.296,-74.814 L 47.296,-69.281 M 50.889,-103.491 L 50.889,-100.677 M 50.889,-98.713 L 50.889,-97.121 M 50.889,-92.38 L 50.889,-91.126 M 50.889,-85.505 L 50.889,-83.444 M 50.889,-83.444 L 50.889,-69.281 M 54.481,-103.491 L 54.481,-102.628 M 54.481,-99.987 L 54.481,-93.198 M 54.481,-90.043 L 54.481,-88.352 M 54.481,-86.566 L 54.481,-77.924 M 54.481,-75.307 L 54.481,-73.549 M 54.481,-71.823 L 54.481,-69.281 M 58.074,-103.491 L 58.074,-95.474 M 58.074,-92.511 L 58.074,-87.685 M 58.074,-86.809 L 58.074,-81.025 M 58.074,-81.025 L 58.074,-69.281 M 61.666,-103.491 L 61.666,-102.32 M 61.666,-98.677 L 61.666,-90.316 M 61.666,-86.447 L 61.666,-78.824 M 61.666,-78.192 L 61.666,-69.281 M 65.259,-103.491 L 65.259,-99.19 M 65.259,-96.997 L 65.259,-92.315 M 65.259,-89.719 L 65.259,-89.443 M 65.259,-89.138 L 65.259,-87.831 M 65.259,-87.706 L 65.259,-86.813 M 65.259,-86.336 L 65.259,-82.035 M 65.259,-80.483 L 65.259,-69.281 M 68.852,-103.491 L 68.852,-100.828 M 68.852,-99.144 L 68.852,-99.079 M 68.852,-92.796 L 68.852,-86.625 M 68.852,-84.675 L 68.852,-82.23 M 68.852,-77.475 L 68.852,-73.539 M 68.852,-73.539 L 68.852,-69.281 M 72.444,-103.491 L 72.444,-95.341 M 72.444,-93.721 L 72.444,-87.799 M 72.444,-81.282 L 72.444,-80.686 M 72.444,-80.686 L 72.444,-69.281 M 76.037,-103.491 L 76.037,-101.684 M 76.037,-95.011 L 76.037,-86.236 M 76.037,-81 L 76.037,-75.327 M 76.037,-69.839 L 76.037,-69.687 M 76.037,-69.687 L 76.037,-69.281 M 79.629,-103.491 L 79.629,-99.674 M 79.629,-97.998 L 79.629,-97.57 M 79.629,-91.945 L 79.629,-87.812 M 79.629,-82.213 L 79.629,-81.959 M 79.629,-80.083 L 79.629,-69.281 M 83.222,-103.491 L 83.222,-96.817 M 83.222,-96.215 L 83.222,-95.478 M 83.222,-90.198 L 83.222,-81.328 M 83.222,-78.761 L 83.222,-72.372 M 83.222,-72.123 L 83.222,-69.281 M 86.814,-103.491 L 86.814,-102.231 M 86.814,-99.234 L 86.814,-95.493 M 86.814,-91.73 L 86.814,-90.755 M 86.814,-88.735 L 86.814,-87.271 M 86.814,-83.38 L 86.814,-83.343 M 86.814,-77.165 L 86.814,-75.905 M 86.814,-72.908 L 86.814,-70.462 M 86.814,-70.462 L 86.814,-69.281 M 90.407,-103.491 L 90.407,-96.745 M 90.407,-92.176 L 90.407,-89.142 M 90.407,-87.137 L 90.407,-84.635 M 90.407,-84.635 L 90.407,-69.281 M 94,-103.491 L 94,-95.346 M 94,-90.4 L 94,-90.113 M 94,-86.273 L 94,-83.191 M 94,-79.633 L 94,-74.845 M 94,-74.845 L 94,-69.281 M 97.592,-103.491 L 97.592,-94.557 M 97.592,-87.884 L 97.592,-83.67 M 97.592,-79.806 L 97.592,-76.967 M 97.592,-76.967 L 97.592,-69.281 M 101.185,-103.491 L 101.185,-100.627 M 101.185,-97.195 L 101.185,-95.005 M 101.185,-90.686 L 101.185,-82.317 M 101.185,-79.489 L 101.185,-77.123 M 101.185,-74.212 L 101.185,-70.008 M 101.185,-69.561 L 101.185,-69.281 M 104.777,-103.491 L 104.777,-98.321 M 104.777,-97.377 L 104.777,-94.916 M 104.777,-88.668 L 104.777,-85.782 M 104.777,-83.256 L 104.777,-79.847 M 104.777,-79.847 L 104.777,-69.281 M 108.37,-103.491 L 108.37,-102.726 M 108.37,-99.372 L 108.37,-94.649 M 108.37,-89.69 L 108.37,-84.729 M 108.37,-82.935 L 108.37,-81.083 M 108.37,-80.106 L 108.37,-77.211 M 108.37,-77.211 L 108.37,-69.281 M 111.963,-103.491 L 111.963,-98.686 M 111.963,-96.801 L 111.963,-88.007 M 111.963,-84.702 L 111.963,-75.856 M 111.963,-72.391 L 111.963,-70.434 M 111.963,-70.434 L 111.963,-69.281 M 115.555,-103.491 L 115.555,-96.878 M 115.555,-90.163 L 115.555,-86.575 M 115.555,-81.696 L 115.555,-79.859 M 115.555,-75.086 L 115.555,-72.272 M 115.555,-72.272 L 115.555,-69.281 M 119.148,-103.491 L 119.148,-97.446 M 119.148,-94.187 L 119.148,-89.204 M 119.148,-85.1 L 119.148,-80.904 M 119.148,-80.663 L 119.148,-78.523 M 119.148,-76.571 L 119.148,-69.281 M 122.74,-103.491 L 122.74,-96.121 M 122.74,-90.44 L 122.74,-83.435 M 122.74,-81.753 L 122.74,-69.281 M 126.333,-103.491 L 126.333,-101.15 M 126.333,-100.977 L 126.333,-95.789 M 126.333,-92.247 L 126.333,-91.253 M 126.333,-85.434 L 126.333,-69.281 M 129.925,-103.491 L 129.925,-97.308 M 129.925,-93.357 L 129.925,-92.587 M 129.925,-91.979 L 129.925,-90.422 M 129.925,-87.453 L 129.925,-78.36 M 129.925,-78.123 L 129.925,-69.281 M 133.518,-103.491 L 133.518,-97.842 M 133.518,-92.551 L 133.518,-88.961 M 133.518,-82.806 L 133.518,-77.262 M 133.518,-77.262 L 133.518,-69.281 M 137.111,-103.491 L 137.111,-98.687 M 137.111,-92.189 L 137.111,-90.332 M 137.111,-87.329 L 137.111,-86.029 M 137.111,-81.276 L 137.111,-78.558 M 137.111,-75.901 L 137.111,-70.47 M 137.111,-70.47 L 137.111,-69.281 M 140.703,-103.491 L 140.703,-102.522 M 140.703,-96.737 L 140.703,-91.564 M 140.703,-85.117 L 140.703,-78.009 M 140.703,-74.378 L 140.703,-69.281 M 144.296,-103.491 L 144.296,-101.098 M 144.296,-97.678 L 144.296,-92.373 M 144.296,-90.858 L 144.296,-84.412 M 144.296,-82.273 L 144.296,-69.281 M 147.888,-103.491 L 147.888,-97.111 M 147.888,-90.668 L 147.888,-87.638 M 147.888,-85.741 L 147.888,-84.185 M 147.888,-84.185 L 147.888,-69.281 M 151.481,-103.491 L 151.481,-95.158 M 151.481,-94.642 L 151.481,-90.88 M 151.481,-90.494 L 151.481,-89.17 M 151.481,-86.066 L 151.481,-77.52 M 151.481,-75.623 L 151.481,-73.25 M 151.481,-71.223 L 151.481,-69.281 M 155.073,-103.491 L 155.073,-97.814 M 155.073,-91.748 L 155.073,-86.077 M 155.073,-80.78 L 155.073,-79.195 M 155.073,-77.43 L 155.073,-75.588 M 155.073,-75.588 L 155.073,-69.281 M 158.666,-103.491 L 158.666,-98.029 M 158.666,-97.17 L 158.666,-90.987 M 158.666,-88.533 L 158.666,-83.717 M 158.666,-80.327 L 158.666,-75.231 M 158.666,-75.231 L 158.666,-69.281 M 162.259,-103.491 L 162.259,-95.617 M 162.259,-92.057 L 162.259,-89.03 M 162.259,-85.222 L 162.259,-80.787 M 162.259,-80.787 L 162.259,-69.281 M 165.851,-103.491 L 165.851,-97.559 M 165.851,-94.009 L 165.851,-93.874 M 165.851,-87.65 L 165.851,-85.577 M 165.851,-82.593 L 165.851,-78.844 M 165.851,-77.607 L 165.851,-69.281 M 169.444,-103.491 L 169.444,-103.172 M 169.444,-100.406 L 169.444,-100.113 M 169.444,-99.307 L 169.444,-96.436 M 169.444,-90.696 L 169.444,-82.295 M 169.444,-78.303 L 169.444,-75.524 M 169.444,-75.026 L 169.444,-69.281 M 173.036,-103.491 L 173.036,-102.795 M 173.036,-99.501 L 173.036,-96.724 M 173.036,-94.877 L 173.036,-93.411 M 173.036,-87.027 L 173.036,-81.88 M 173.036,-81.88 L 173.036,-69.281 M 176.629,-103.491 L 176.629,-103.116 M 176.629,-97.638 L 176.629,-92.725 M 176.629,-91.023 L 176.629,-88.031 M 176.629,-82.901 L 176.629,-76.376 M 176.629,-75.136 L 176.629,-71.387 M 176.629,-71.387 L 176.629,-69.281 M 180.222,-103.491 L 180.222,-97.078 M 180.222,-92.026 L 180.222,-90.367 M 180.222,-85.926 L 180.222,-84.428 M 180.222,-78.709 L 180.222,-76.142 M 180.222,-76.142 L 180.222,-69.281 M 183.814,-103.491 L 183.814,-95.435 M 183.814,-90.758 L 183.814,-69.281 M 187.407,-103.491 L 187.407,-101.627 M 187.407,-99.423 L 187.407,-98.379 M 187.407,-94.659 L 187.407,-88.284 M 187.407,-87.48 L 187.407,-86.614 M 187.407,-82.207 L 187.407,-77.296 M 187.407,-77.296 L 187.407,-69.281 M 190.999,-103.491 L 190.999,-102.618 M 190.999,-96.261 L 190.999,-90.276 M 190.999,-85.125 L 190.999,-80.593 M 190.999,-80.593 L 190.999,-69.281 M 194.592,-103.491 L 194.592,-103.255 M 194.592,-102.399 L 194.592,-96.375 M 194.592,-90.796 L 194.592,-82.407 M 194.592,-79.082 L 194.592,-77.669 M 194.592,-77.669 L 194.592,-69.281 M 198.184,-103.491 L 198.184,-99.152 M 198.184,-94.734 L 198.184,-91.469 M 198.184,-91.469 L 198.184,-69.281 M 201.777,-103.491 L 201.777,-94.414 M 201.777,-90.018 L 201.777,-83.412 M 201.777,-82.745 L 201.777,-78.477 M 201.777,-78.477 L 201.777,-69.281 M 205.37,-103.491 L 205.37,-97.821 M 205.37,-94.4 L 205.37,-92.763 M 205.37,-90.444 L 205.37,-86.942 M 205.37,-84.491 L 205.37,-80.986 M 205.37,-79.321 L 205.37,-78.268 M 205.37,-76.311 L 205.37,-70.64 M 205.37,-69.453 L 205.37,-69.281 M 208.962,-103.491 L 208.962,-99.177 M 208.962,-93.916 L 208.962,-87.576 M 208.962,-84.243 L 208.962,-82.525 M 208.962,-80.362 L 208.962,-78.208 M 208.962,-78.208 L 208.962,-69.281 M 212.555,-103.491 L 212.555,-98.138 M 212.555,-98.06 L 212.555,-91.97 M 212.555,-91.658 L 212.555,-83.878 M 212.555,-82.157 L 212.555,-78.394 M 212.555,-75.869 L 212.555,-69.281 M 216.147,-103.491 L 216.147,-98.179 M 216.147,-92.713 L 216.147,-89.047 M 216.147,-87.701 L 216.147,-81.757 M 216.147,-79.553 L 216.147,-78.821 M 216.147,-78.716 L 216.147,-75.966 M 216.147,-73.443 L 216.147,-69.281 M 219.74,-103.491 L 219.74,-98.039 M 219.74,-96.402 L 219.74,-94.607 M 219.74,-94.445 L 219.74,-85.874 M 219.74,-82.521 L 219.74,-76.594 M 219.74,-76.594 L 219.74,-69.281 M 223.332,-103.491 L 223.332,-102.619 M 223.332,-97.727 L 223.332,-89.163 M 223.332,-86.642 L 223.332,-86.466 M 223.332,-83.482 L 223.332,-78.194 M 223.332,-78.194 L 223.332,-69.281 M 226.925,-103.491 L 226.925,-101.396 M 226.925,-95.92 L 226.925,-91.183 M 226.925,-90.288 L 226.925,-88.509 M 226.925,-84.065 L 226.925,-74.995 M 226.925,-74.317 L 226.925,-69.281 M 230.518,-102.136 L 230.518,-98.006 M 230.518,-94.616 L 230.518,-94.327 M 230.518,-92.685 L 230.518,-86.714 M 230.518,-85.014 L 230.518,-69.281 M 234.11,-99.149 L 234.11,-92.749 M 234.11,-88.604 L 234.11,-87.409 M 234.11,-84.939 L 234.11,-69.281 M 237.703,-96.163 L 237.703,-88.595 M 237.703,-82.715 L 237.703,-81.856 M 237.703,-78.165 L 237.703,-77.15 M 237.703,-74.42 L 237.703,-72.385 M 237.703,-72.385 L 237.703,-69.281 M 241.295,-93.176 L 241.295,-85.32 M 241.295,-84.55 L 241.295,-82.904 M 241.295,-81.745 L 241.295,-81.361 M 241.295,-81.361 L 241.295,-69.281 M 244.888,-90.189 L 244.888,-83.845 M 244.888,-80.781 L 244.888,-79.181 M 244.888,-78.607 L 244.888,-78.434 M 244.888,-78.434 L 244.888,-69.281 M 248.481,-87.202 L 248.481,-86.411 M 248.481,-84.524 L 248.481,-82.452 M 248.481,-77.719 L 248.481,-76.11 M 248.481,-75.848 L 248.481,-75.26 M 248.481,-72.486 L 248.481,-69.281 M 252.073,-84.215 L 252.073,-81.715 M 252.073,-79.944 L 252.073,-79.609 M 252.073,-74.556 L 252.073,-72.535 M 252.073,-72.535 L 252.073,-69.281 M 255.666,-81.228 L 255.666,-80.189 M 255.666,-77.686 L 255.666,-75.366 M 255.666,-75.366 L 255.666,-69.281 M 259.258,-78.242 L 259.258,-71.744 M 259.258,-70.193 L 259.258,-69.542 M 259.258,-69.542 L 259.258,-69.281 M 262.851,-75.255 L 262.851,-73.476 M 262.851,-71.561 L 262.851,-69.281 M 266.443,-72.268 L 266.443,-69.727 M 266.443,-69.727 L 266.443,-69.281" stroke="#76736C" stroke-width="1.152"/><path d=" M 0,0 L 0,-66.281 L -1.5,-69.281 L 268.536,-69.281 L 267.036,-66.281 L 267.036,0" fill="#F2EDDE" stroke="#76736C" stroke-width="1.152"/><path d=" M -2.919,0 L 269.955,0 L 269.955,-22.099 L -2.919,-22.099 L -2.919,0" fill="#EBE1CA" stroke="#76736C" stroke-width="1.152"/><path d=" M 0,-22.099 L -2.919,-22.099 L -2.919,0 L 269.955,0 L 269.955,-22.099 L 267.036,-22.099" stroke="#76736C" stroke-width="1.152" stroke-linejoin="round" stroke-linecap="square"/><path d=" M 2.304,-22.099 L 264.732,-22.099" stroke="#76736C" stroke-width="1.152"/><g transform="translate(101.999 -92.088)"><path d=" M 0,0"/><path d=" M -5.44,4.523 L -5.44,-10.11 L -6.776,-10.11 L -6.776,-14.766 L 6.776,-14.766 L 6.776,-10.11 L 5.44,-10.11 L 5.44,4.523" fill="#F2EDDE" stroke="#76736C" stroke-width="1.152"/><path d=" M -3.264,-10.11 L 3.264,-10.11" stroke="#76736C" stroke-width="1.152"/></g><g transform="translate(171.666 -39.15)"><path d=" M 0,0"/><path d=" M -6.28,-9.331 L 6.28,-9.331 L 6.28,9.331 L -6.28,9.331 L -6.28,-9.331" fill="#F2EDDE" stroke="#76736C" stroke-width="1.152"/><path d=" M -3.502,-6.553 L 3.502,-6.553 L 3.502,6.553 L -3.502,6.553 L -3.502,-6.553" fill="#76736C" stroke="#76736C" stroke-width="1.152"/><path d=" M 0,-6.553 L 0,6.553 M -3.502,0 L 3.502,0" stroke="#F2EDDE" stroke-width="1.152"/><path d=" M -3.502,-6.553 L 3.502,-6.553 L 3.502,6.553 L -3.502,6.553 L -3.502,-6.553" stroke="#76736C" stroke-width="1.152"/></g><g transform="translate(209.814 -39.15)"><path d=" M 0,0"/><path d=" M -6.28,-9.331 L 6.28,-9.331 L 6.28,9.331 L -6.28,9.331 L -6.28,-9.331" fill="#F2EDDE" stroke="#76736C" stroke-width="1.152"/><path d=" M -3.502,-6.553 L 3.502,-6.553 L 3.502,6.553 L -3.502,6.553 L -3.502,-6.553" fill="#76736C" stroke="#76736C" stroke-width="1.152"/><path d=" M 0,-6.553 L 0,6.553 M -3.502,0 L 3.502,0" stroke="#F2EDDE" stroke-width="1.152"/><path d=" M -3.502,-6.553 L 3.502,-6.553 L 3.502,6.553 L -3.502,6.553 L -3.502,-6.553" stroke="#76736C" stroke-width="1.152"/></g></g><g><path d=" M 0,0"/><path d=" M -4.928,0.014 L -3.776,-0.014 L -3.968,-3.328 L -4.084,-5.17 L -4.187,-6.644 L -4.331,-8.484 L -4.606,-11.791 L -4.989,-11.772 L -4.93,-8.455 L -4.907,-6.614 L -4.899,-5.142 L -4.904,-3.302 L -4.928,0.014" fill="#76736C"/><path d=" M -6.765,0.027 L -5.614,-0.027 L -5.809,-1.869 L -5.927,-2.895 L -6.034,-3.716 L -6.18,-4.738 L -6.462,-6.569 L -6.844,-6.533 L -6.778,-4.684 L -6.751,-3.66 L -6.742,-2.844 L -6.744,-1.821 L -6.765,0.027" fill="#76736C"/><path d=" M -15.162,0.168 L -14.06,-0.168 L -14.917,-2.611 L -15.479,-3.957 L -16.028,-5 L -16.825,-6.236 L -18.38,-8.369 L -18.7,-8.155 L -17.336,-5.916 L -16.668,-4.661 L -16.235,-3.639 L -15.806,-2.311 L -15.162,0.168" fill="#76736C"/><path d=" M -24.546,0.356 L -23.641,-0.356 L -25.499,-2.548 L -26.708,-3.643 L -27.86,-4.327 L -29.47,-4.91 L -32.541,-5.64 L -32.644,-5.27 L -29.667,-4.327 L -28.199,-3.67 L -27.226,-2.991 L -26.201,-1.916 L -24.546,0.356" fill="#76736C"/><path d=" M 270.544,-0.026 L 271.695,0.026 L 271.665,-1.696 L 271.657,-2.649 L 271.661,-3.411 L 271.679,-4.365 L 271.727,-6.088 L 271.345,-6.123 L 271.081,-4.417 L 270.943,-3.464 L 270.843,-2.699 L 270.731,-1.743 L 270.544,-0.026" fill="#76736C"/><path d=" M 272.397,-0.083 L 273.537,0.083 L 273.658,-1.504 L 273.748,-2.371 L 273.85,-3.057 L 274.016,-3.919 L 274.366,-5.483 L 273.997,-5.592 L 273.438,-4.081 L 273.149,-3.227 L 272.947,-2.529 L 272.733,-1.652 L 272.397,-0.083" fill="#76736C"/><path d=" M 274.873,-0.087 L 276.011,0.087 L 276.126,-1.38 L 276.211,-2.179 L 276.308,-2.812 L 276.467,-3.607 L 276.803,-5.05 L 276.436,-5.164 L 275.891,-3.777 L 275.609,-2.989 L 275.411,-2.345 L 275.202,-1.535 L 274.873,-0.087" fill="#76736C"/><path d=" M 289.649,-0.186 L 290.739,0.186 L 291.708,-2.978 L 292.349,-4.666 L 292.99,-5.955 L 293.967,-7.518 L 295.952,-10.284 L 295.648,-10.517 L 293.477,-7.871 L 292.369,-6.33 L 291.608,-5.019 L 290.831,-3.311 L 289.649,-0.186" fill="#76736C"/><path d=" M 294.693,-0.251 L 295.729,0.251 L 296.656,-1.903 L 297.253,-3.01 L 297.842,-3.818 L 298.747,-4.765 L 300.598,-6.402 L 300.356,-6.701 L 298.346,-5.222 L 297.305,-4.311 L 296.577,-3.482 L 295.829,-2.351 L 294.693,-0.251" fill="#76736C"/><path d=" M -57.222,0 L -53.35,0 M -53.291,0 L -52.3,0 M -49.606,0 L -49.081,0 M -44.346,0 L -42.258,0 M -41.282,0 L -36.351,0 M -33.389,0 L -29.517,0 M -29.459,0 L -28.467,0 M -25.774,0 L -25.248,0 M -20.513,0 L -18.425,0 M -17.449,0 L -12.518,0 M -9.557,0 L -5.685,0 M -5.626,0 L -4.635,0 M -1.941,0 L -1.415,0 M 3.319,0 L 5.407,0 M 6.383,0 L 11.315,0 M 14.276,0 L 18.148,0 M 18.207,0 L 19.198,0 M 21.892,0 L 22.418,0 M 27.152,0 L 29.24,0 M 30.216,0 L 35.148,0 M 38.109,0 L 41.981,0 M 42.039,0 L 43.031,0 M 45.724,0 L 46.25,0 M 50.985,0 L 53.073,0 M 54.049,0 L 58.98,0 M 61.942,0 L 65.813,0 M 65.872,0 L 66.863,0 M 69.557,0 L 70.083,0 M 74.817,0 L 76.906,0 M 77.882,0 L 82.813,0 M 85.774,0 L 89.646,0 M 89.705,0 L 90.696,0 M 93.39,0 L 93.916,0 M 98.65,0 L 100.738,0 M 101.714,0 L 106.646,0 M 109.607,0 L 113.479,0 M 113.538,0 L 114.529,0 M 117.223,0 L 117.748,0 M 122.483,0 L 124.571,0 M 125.547,0 L 130.478,0 M 133.44,0 L 137.312,0 M 137.37,0 L 138.362,0 M 141.055,0 L 141.581,0 M 146.316,0 L 148.404,0 M 149.38,0 L 154.311,0 M 157.272,0 L 161.144,0 M 161.203,0 L 162.194,0 M 164.888,0 L 165.414,0 M 170.148,0 L 172.236,0 M 173.212,0 L 178.144,0 M 181.105,0 L 184.977,0 M 185.036,0 L 186.027,0 M 188.721,0 L 189.247,0 M 193.981,0 L 196.069,0 M 197.045,0 L 201.977,0 M 204.938,0 L 208.81,0 M 208.868,0 L 209.86,0 M 212.553,0 L 213.079,0 M 217.814,0 L 219.902,0 M 220.878,0 L 225.809,0 M 228.771,0 L 232.642,0 M 232.701,0 L 233.692,0 M 236.386,0 L 236.912,0 M 241.646,0 L 243.735,0 M 244.71,0 L 249.642,0 M 252.603,0 L 256.475,0 M 256.534,0 L 257.525,0 M 260.219,0 L 260.745,0 M 265.479,0 L 267.567,0 M 268.543,0 L 273.475,0 M 276.436,0 L 280.308,0 M 280.367,0 L 281.358,0 M 284.052,0 L 284.577,0 M 289.312,0 L 291.4,0 M 292.376,0 L 297.307,0 M 300.269,0 L 304.141,0 M 304.199,0 L 305.19,0 M 307.884,0 L 308.41,0 M 313.145,0 L 315.233,0 M 316.209,0 L 321.14,0 M 324.101,0 L 324.258,0 M -19.074,0 L 286.11,0" stroke="#76736C" stroke-width="1.152"/></g><g><path d=" M 0,0"/><path d=" M 38.148,-103.491 L -3,-69.281 L 155.592,-69.281 L 114.444,-103.491 L 38.148,-103.491" fill="#B27559" stroke="#000000" stroke-width="1.152"/><path d=" M 0.604,-72.278 L 0.604,-70.347 M 0.604,-70.347 L 0.604,-69.281 M 4.209,-75.274 L 4.209,-73.52 M 4.209,-70.573 L 4.209,-69.281 M 7.813,-78.271 L 7.813,-74.937 M 7.813,-74.937 L 7.813,-69.281 M 11.417,-81.268 L 11.417,-79.235 M 11.417,-76.691 L 11.417,-76.069 M 11.417,-72.014 L 11.417,-69.281 M 15.022,-84.264 L 15.022,-81.494 M 15.022,-78.536 L 15.022,-75.204 M 15.022,-75.204 L 15.022,-69.281 M 18.626,-87.261 L 18.626,-83.338 M 18.626,-77.696 L 18.626,-72.323 M 18.626,-72.29 L 18.626,-70.414 M 18.626,-70.414 L 18.626,-69.281 M 22.231,-90.258 L 22.231,-83.541 M 22.231,-83.508 L 22.231,-74.449 M 22.231,-71.097 L 22.231,-69.281 M 25.835,-93.254 L 25.835,-85.168 M 25.835,-79.311 L 25.835,-76.764 M 25.835,-74.572 L 25.835,-69.281 M 29.439,-96.251 L 29.439,-91.196 M 29.439,-88.303 L 29.439,-84.22 M 29.439,-80.233 L 29.439,-76.184 M 29.439,-74.158 L 29.439,-70.477 M 29.439,-70.477 L 29.439,-69.281 M 33.044,-99.247 L 33.044,-92.428 M 33.044,-92.151 L 33.044,-85.282 M 33.044,-80.347 L 33.044,-76.144 M 33.044,-76.144 L 33.044,-69.281 M 36.648,-102.244 L 36.648,-97.801 M 36.648,-91.566 L 36.648,-90.916 M 36.648,-85.571 L 36.648,-85.053 M 36.648,-83.729 L 36.648,-78.553 M 36.648,-78.553 L 36.648,-69.281 M 40.252,-103.491 L 40.252,-97.42 M 40.252,-92.453 L 40.252,-84.017 M 40.252,-84.017 L 40.252,-69.281 M 43.857,-103.491 L 43.857,-97.582 M 43.857,-95.009 L 43.857,-89.246 M 43.857,-86.431 L 43.857,-82.335 M 43.857,-77.762 L 43.857,-69.281 M 47.461,-103.491 L 47.461,-97.405 M 47.461,-91.438 L 47.461,-85.213 M 47.461,-80.158 L 47.461,-75.38 M 47.461,-72.474 L 47.461,-71.518 M 47.461,-71.518 L 47.461,-69.281 M 51.065,-103.491 L 51.065,-103.365 M 51.065,-100.478 L 51.065,-93.315 M 51.065,-88.482 L 51.065,-85.886 M 51.065,-85.886 L 51.065,-69.281 M 54.67,-103.491 L 54.67,-97.026 M 54.67,-97.026 L 54.67,-69.281 M 58.274,-103.491 L 58.274,-95.057 M 58.274,-92.109 L 58.274,-84.687 M 58.274,-84.687 L 58.274,-69.281 M 61.879,-103.491 L 61.879,-94.501 M 61.879,-93.151 L 61.879,-89.246 M 61.879,-83.979 L 61.879,-80.312 M 61.879,-79.314 L 61.879,-73.678 M 61.879,-73.243 L 61.879,-72.085 M 61.879,-72.085 L 61.879,-69.281 M 65.483,-103.491 L 65.483,-94.762 M 65.483,-94.661 L 65.483,-90.458 M 65.483,-86.94 L 65.483,-85.104 M 65.483,-83.027 L 65.483,-79.405 M 65.483,-76.884 L 65.483,-74.781 M 65.483,-73.181 L 65.483,-69.281 M 69.087,-103.491 L 69.087,-95.907 M 69.087,-93.193 L 69.087,-86.878 M 69.087,-84.315 L 69.087,-80.66 M 69.087,-79.941 L 69.087,-69.281 M 72.692,-103.491 L 72.692,-102.926 M 72.692,-102.885 L 72.692,-99.892 M 72.692,-96.456 L 72.692,-91.964 M 72.692,-87.462 L 72.692,-81.41 M 72.692,-76.487 L 72.692,-74.259 M 72.692,-74.259 L 72.692,-69.281 M 76.296,-103.491 L 76.296,-97.114 M 76.296,-90.468 L 76.296,-85.809 M 76.296,-85.304 L 76.296,-85.246 M 76.296,-81.83 L 76.296,-79.117 M 76.296,-79.117 L 76.296,-69.281 M 79.9,-103.491 L 79.9,-98.796 M 79.9,-94.787 L 79.9,-89.292 M 79.9,-87.354 L 79.9,-83.426 M 79.9,-83.426 L 79.9,-69.281 M 83.505,-103.491 L 83.505,-102.944 M 83.505,-99.82 L 83.505,-96.394 M 83.505,-94.963 L 83.505,-89.477 M 83.505,-85.731 L 83.505,-78.054 M 83.505,-77.895 L 83.505,-72.456 M 83.505,-72.456 L 83.505,-69.281 M 87.109,-103.491 L 87.109,-95.85 M 87.109,-89.959 L 87.109,-85.569 M 87.109,-85.569 L 87.109,-69.281 M 90.713,-103.491 L 90.713,-95.092 M 90.713,-95.029 L 90.713,-92.893 M 90.713,-90.057 L 90.713,-86.651 M 90.713,-83.977 L 90.713,-77.279 M 90.713,-76.727 L 90.713,-69.281 M 94.318,-103.491 L 94.318,-97.182 M 94.318,-94.851 L 94.318,-89.401 M 94.318,-85.85 L 94.318,-82.767 M 94.318,-80.456 L 94.318,-76.385 M 94.318,-73.494 L 94.318,-72.977 M 94.318,-72.977 L 94.318,-69.281 M 97.922,-103.491 L 97.922,-97.467 M 97.922,-94.867 L 97.922,-90.017 M 97.922,-84.982 L 97.922,-80.053 M 97.922,-77.369 L 97.922,-72.115 M 97.922,-72.115 L 97.922,-69.281 M 101.527,-103.491 L 101.527,-98.3 M 101.527,-94.45 L 101.527,-93.643 M 101.527,-87.576 L 101.527,-81.461 M 101.527,-76.47 L 101.527,-73.231 M 101.527,-73.231 L 101.527,-69.281 M 105.131,-103.491 L 105.131,-99.954 M 105.131,-96.715 L 105.131,-96.394 M 105.131,-92.333 L 105.131,-84.987 M 105.131,-79.936 L 105.131,-69.281 M 108.735,-103.491 L 108.735,-100.15 M 108.735,-94.998 L 108.735,-93.898 M 108.735,-93.722 L 108.735,-93.43 M 108.735,-89.975 L 108.735,-83.621 M 108.735,-79.417 L 108.735,-78.595 M 108.735,-77.487 L 108.735,-74.145 M 108.735,-72.422 L 108.735,-69.281 M 112.34,-103.491 L 112.34,-96.908 M 112.34,-94.372 L 112.34,-91.66 M 112.34,-91.66 L 112.34,-69.281 M 115.944,-102.244 L 115.944,-99.257 M 115.944,-96.219 L 115.944,-95.008 M 115.944,-93.028 L 115.944,-86.105 M 115.944,-84.567 L 115.944,-82.355 M 115.944,-79.808 L 115.944,-69.281 M 119.548,-99.247 L 119.548,-94.675 M 119.548,-89.895 L 119.548,-69.281 M 123.153,-96.251 L 123.153,-88.215 M 123.153,-83.855 L 123.153,-79.639 M 123.153,-75.053 L 123.153,-73.476 M 123.153,-72.175 L 123.153,-69.281 M 126.757,-93.254 L 126.757,-85.068 M 126.757,-82.709 L 126.757,-69.281 M 130.361,-90.258 L 130.361,-82.936 M 130.361,-80.29 L 130.361,-75.023 M 130.361,-73.02 L 130.361,-70.993 M 130.361,-70.993 L 130.361,-69.281 M 133.966,-87.261 L 133.966,-80.39 M 133.966,-78.894 L 133.966,-71.608 M 133.966,-71.373 L 133.966,-71.251 M 133.966,-71.251 L 133.966,-69.281 M 137.57,-84.264 L 137.57,-83.26 M 137.57,-78.133 L 137.57,-73.139 M 137.57,-70.662 L 137.57,-69.281 M 141.175,-81.268 L 141.175,-80.682 M 141.175,-75.883 L 141.175,-74.298 M 141.175,-73.522 L 141.175,-72.192 M 141.175,-70.42 L 141.175,-69.281 M 144.779,-78.271 L 144.779,-77.59 M 144.779,-76.194 L 144.779,-74.47 M 144.779,-71.068 L 144.779,-69.281 M 148.383,-75.274 L 148.383,-69.833 M 148.383,-69.833 L 148.383,-69.281 M 151.988,-72.278 L 151.988,-69.901 M 151.988,-69.901 L 151.988,-69.281" stroke="#000000" stroke-width="1.152"/><path d=" M 0,0 L 0,-66.281 L -1.5,-69.281 L 154.092,-69.281 L 152.592,-66.281 L 152.592,0" fill="#F2EDDE" stroke="#000000" stroke-width="1.152"/><path d=" M -2.919,0 L 155.511,0 L 155.511,-22.099 L -2.919,-22.099 L -2.919,0" fill="#E5D6B7" stroke="#000000" stroke-width="1.152"/><path d=" M 0,-22.099 L -2.919,-22.099 L -2.919,0 L 155.511,0 L 155.511,-22.099 L 152.592,-22.099" stroke="#000000" stroke-width="1.152" stroke-linejoin="round" stroke-linecap="square"/><path d=" M 2.304,-22.099 L 150.288,-22.099" stroke="#000000" stroke-width="1.152"/></g><g><path d=" M 0,0"/><path d=" M -6.321,-0.042 L -5.172,0.042 L -5.14,-1.849 L -5.108,-2.894 L -5.064,-3.727 L -4.985,-4.771 L -4.814,-6.66 L -5.194,-6.716 L -5.58,-4.855 L -5.779,-3.814 L -5.92,-2.975 L -6.073,-1.925 L -6.321,-0.042" fill="#000000"/><path d=" M -12.416,0.129 L -11.293,-0.129 L -11.782,-1.778 L -12.099,-2.698 L -12.404,-3.422 L -12.843,-4.292 L -13.695,-5.807 L -14.041,-5.64 L -13.391,-4.042 L -13.077,-3.159 L -12.879,-2.453 L -12.69,-1.548 L -12.416,0.129" fill="#000000"/><path d=" M -12.869,0.13 L -11.747,-0.13 L -12.258,-1.86 L -12.589,-2.824 L -12.909,-3.583 L -13.37,-4.495 L -14.265,-6.084 L -14.61,-5.915 L -13.917,-4.243 L -13.582,-3.319 L -13.369,-2.577 L -13.166,-1.628 L -12.869,0.13" fill="#000000"/><path d=" M -27.371,0.339 L -26.44,-0.339 L -27.633,-1.801 L -28.42,-2.553 L -29.173,-3.042 L -30.215,-3.476 L -32.182,-4.051 L -32.31,-3.689 L -30.451,-2.909 L -29.551,-2.408 L -28.969,-1.929 L -28.361,-1.198 L -27.371,0.339" fill="#000000"/><path d=" M 156.568,-0.016 L 157.72,0.016 L 157.691,-2.823 L 157.684,-4.398 L 157.689,-5.657 L 157.708,-7.233 L 157.759,-10.073 L 157.375,-10.094 L 157.109,-7.265 L 156.969,-5.69 L 156.868,-4.429 L 156.755,-2.852 L 156.568,-0.016" fill="#000000"/><path d=" M 158.622,-0.002 L 159.774,0.002 L 159.673,-2.305 L 159.618,-3.586 L 159.574,-4.612 L 159.522,-5.893 L 159.428,-8.2 L 159.044,-8.203 L 158.922,-5.897 L 158.854,-4.615 L 158.802,-3.59 L 158.737,-2.308 L 158.622,-0.002" fill="#000000"/><path d=" M 162.724,-0.08 L 163.865,0.08 L 163.964,-1.406 L 164.041,-2.217 L 164.128,-2.86 L 164.273,-3.668 L 164.58,-5.135 L 164.21,-5.241 L 163.693,-3.825 L 163.426,-3.024 L 163.238,-2.37 L 163.039,-1.549 L 162.724,-0.08" fill="#000000"/><path d=" M 174.645,-0.175 L 175.743,0.175 L 176.521,-2.615 L 177.037,-4.107 L 177.557,-5.253 L 178.353,-6.653 L 179.975,-9.142 L 179.661,-9.363 L 177.85,-6.986 L 176.924,-5.607 L 176.288,-4.44 L 175.636,-2.928 L 174.645,-0.175" fill="#000000"/><path d=" M 176.881,-0.173 L 177.98,0.173 L 178.339,-1.328 L 178.58,-2.122 L 178.827,-2.731 L 179.216,-3.487 L 180.027,-4.848 L 179.711,-5.067 L 178.71,-3.816 L 178.192,-3.08 L 177.829,-2.45 L 177.454,-1.637 L 176.881,-0.173" fill="#000000"/><path d=" M -57.222,0 L -56.01,0 M -53.859,0 L -49.738,0 M -42.601,0 L -41.176,0 M -35.493,0 L -34.663,0 M -31.034,0 L -24.371,0 M -16.919,0 L -15.707,0 M -13.556,0 L -9.436,0 M -2.298,0 L -0.873,0 M 4.81,0 L 5.639,0 M 9.268,0 L 15.931,0 M 23.383,0 L 24.595,0 M 26.746,0 L 30.867,0 M 38.004,0 L 39.429,0 M 45.112,0 L 45.942,0 M 49.571,0 L 56.234,0 M 63.686,0 L 64.898,0 M 67.049,0 L 71.169,0 M 78.307,0 L 79.732,0 M 85.415,0 L 86.244,0 M 89.873,0 L 96.537,0 M 103.988,0 L 105.2,0 M 107.351,0 L 111.472,0 M 118.609,0 L 120.034,0 M 125.717,0 L 126.547,0 M 130.176,0 L 136.839,0 M 144.291,0 L 145.503,0 M 147.654,0 L 151.774,0 M 158.912,0 L 160.337,0 M 166.02,0 L 166.849,0 M 170.479,0 L 177.142,0 M 184.593,0 L 185.805,0 M 187.956,0 L 192.077,0 M 199.214,0 L 200.639,0 M 206.322,0 L 207.152,0 M -19.074,0 L 171.666,0" stroke="#000000" stroke-width="1.152"/></g></g><style/><defs/></svg>