<?xml version="1.0" encoding="UTF-8" standalone="no"?><svg width="800" height="600" xmlns="http://www.w3.org/2000/svg" stroke-linejoin="round" stroke-linecap="round" fill-rule="evenodd" fill="none"><rect x="0" y="0" width="800" height="600" fill="#F2EDDE"/><g transform="scale(100 100) translate(0.5 0.5)"><path d=" M 0,0"/><g><path d=" M 0,0"/><g><path d=" M 0,0"/><path d=" M -0.209,0.65 L -0.35,0.791 M -0.067,0.65 L -0.35,0.933 M 0.074,0.65 L -0.35,1.074 M 0.216,0.65 L -0.35,1.216 M 0.357,0.65 L -0.35,1.357 M 0.499,0.65 L -0.35,1.499 M 0.64,0.65 L -0.35,1.64 M 0.781,0.65 L -0.35,1.781 M 1.781,-0.35 L 1.65,-0.219 M 0.923,0.65 L -0.35,1.923 M 1.923,-0.35 L 1.65,-0.077 M 1.064,0.65 L -0.35,2.064 M 2.064,-0.35 L 1.65,0.064 M 1.206,0.65 L -0.35,2.206 M 2.206,-0.35 L 1.65,0.206 M 1.347,0.65 L -0.35,2.347 M 2.347,-0.35 L 1.65,0.347 M 1.488,0.65 L -0.35,2.488 M 2.488,-0.35 L 1.65,0.488 M 1.63,0.65 L -0.35,2.63 M 2.63,-0.35 L 1.65,0.63 M 2.771,-0.35 L -0.35,2.771 M 2.913,-0.35 L -0.35,2.913 M 3.054,-0.35 L -0.35,3.054 M 3.196,-0.35 L -0.35,3.196 M 3.337,-0.35 L -0.35,3.337 M 3.478,-0.35 L -0.222,3.35 M 3.62,-0.35 L -0.08,3.35 M 3.761,-0.35 L 0.061,3.35 M 3.903,-0.35 L 0.203,3.35 M 4.044,-0.35 L 0.344,3.35 M 4.186,-0.35 L 0.486,3.35 M 4.327,-0.35 L 0.627,3.35 M 4.468,-0.35 L 0.768,3.35 M 4.61,-0.35 L 0.91,3.35 M 4.751,-0.35 L 1.051,3.35 M 4.893,-0.35 L 1.193,3.35 M 5.034,-0.35 L 1.334,3.35 M 5.175,-0.35 L 1.475,3.35 M 5.317,-0.35 L 1.617,3.35 M 5.458,-0.35 L 1.758,3.35 M 5.6,-0.35 L 1.9,3.35 M 5.741,-0.35 L 2.041,3.35 M 5.883,-0.35 L 2.183,3.35 M 6.024,-0.35 L 2.324,3.35 M 6.165,-0.35 L 2.465,3.35 M 6.307,-0.35 L 2.607,3.35 M 6.448,-0.35 L 2.748,3.35 M 6.59,-0.35 L 2.89,3.35 M 6.731,-0.35 L 3.031,3.35 M 6.873,-0.35 L 3.173,3.35 M 7.014,-0.35 L 3.314,3.35 M 4.35,2.455 L 3.455,3.35 M 7.155,-0.35 L 4.455,2.35 M 4.35,2.597 L 3.597,3.35 M 7.297,-0.35 L 4.597,2.35 M 4.35,2.738 L 3.738,3.35 M 7.35,-0.262 L 4.738,2.35 M 4.35,2.88 L 3.88,3.35 M 7.35,-0.12 L 4.88,2.35 M 4.35,3.021 L 4.021,3.35 M 7.35,0.021 L 5.021,2.35 M 4.35,3.162 L 4.162,3.35 M 7.35,0.162 L 5.162,2.35 M 4.35,3.304 L 4.304,3.35 M 7.35,0.304 L 5.304,2.35 M 7.35,0.445 L 5.445,2.35 M 7.35,0.587 L 5.587,2.35 M 7.35,0.728 L 5.728,2.35 M 7.35,0.87 L 5.87,2.35 M 7.35,1.011 L 6.011,2.35 M 7.35,1.152 L 6.152,2.35 M 7.35,1.294 L 6.294,2.35 M 7.35,1.435 L 6.435,2.35 M 7.35,1.577 L 6.577,2.35 M 7.35,1.718 L 6.718,2.35 M 7.35,1.86 L 6.86,2.35 M 7.35,2.001 L 7.001,2.35 M 7.35,2.142 L 7.142,2.35 M 7.35,2.284 L 7.284,2.35" stroke="#000000" stroke-width="0.02"/></g><g><path d=" M 0,0"/><path d=" M 3,1 L 2,1 L 2,0 L 3,0 L 4,0 L 5,0 L 6,0 L 7,0 L 7,1 L 7,2 L 6,2 L 5,2 L 5,1 L 4,1 L 3,1" fill="#8B796B" stroke="#8B796B" stroke-width="0.02"/><path d=" M 2,2 L 2,1 L 3,1 L 4,1 L 5,1 L 5,2 L 4,2 L 4,3 L 3,3 L 2,3 L 2,2" fill="#8B796B" stroke="#8B796B" stroke-width="0.02"/><path d=" M 2,2 L 2,3 L 1,3 L 0,3 L 0,2 L 0,1 L 1,1 L 2,1 L 2,2" fill="#8B796B" stroke="#8B796B" stroke-width="0.02"/></g><g><path d=" M 0,0"/><path d=" M 1,2 L 1.03,2 M 1.1,2 L 1.13,2 M 1.2,2 L 1.23,2 M 1.3,2 L 1.33,2 M 1.4,2 L 1.43,2 M 1.5,2 L 1.53,2 M 1.6,2 L 1.63,2 M 1.7,2 L 1.73,2 M 1.8,2 L 1.83,2 M 1.9,2 L 1.93,2 M 2,2 L 2,2.03 M 2,2.1 L 2,2.13 M 2,2.2 L 2,2.23 M 2,2.3 L 2,2.33 M 2,2.4 L 2,2.43 M 2,2.5 L 2,2.53 M 2,2.6 L 2,2.63 M 2,2.7 L 2,2.73 M 2,2.8 L 2,2.83 M 2,2.9 L 2,2.93 M 2,3 L 2,3 M 2,1 L 2,1.03 M 2,1.1 L 2,1.13 M 2,1.2 L 2,1.23 M 2,1.3 L 2,1.33 M 2,1.4 L 2,1.43 M 2,1.5 L 2,1.53 M 2,1.6 L 2,1.63 M 2,1.7 L 2,1.73 M 2,1.8 L 2,1.83 M 2,1.9 L 2,1.93 M 2,2 L 2.03,2 M 2.1,2 L 2.13,2 M 2.2,2 L 2.23,2 M 2.3,2 L 2.33,2 M 2.4,2 L 2.43,2 M 2.5,2 L 2.53,2 M 2.6,2 L 2.63,2 M 2.7,2 L 2.73,2 M 2.8,2 L 2.83,2 M 2.9,2 L 2.93,2 M 3,2 L 3,2 M 3,2 L 3,2.03 M 3,2.1 L 3,2.13 M 3,2.2 L 3,2.23 M 3,2.3 L 3,2.33 M 3,2.4 L 3,2.43 M 3,2.5 L 3,2.53 M 3,2.6 L 3,2.63 M 3,2.7 L 3,2.73 M 3,2.8 L 3,2.83 M 3,2.9 L 3,2.93 M 3,3 L 3,3 M 0,2 L 0.03,2 M 0.1,2 L 0.13,2 M 0.2,2 L 0.23,2 M 0.3,2 L 0.33,2 M 0.4,2 L 0.43,2 M 0.5,2 L 0.53,2 M 0.6,2 L 0.63,2 M 0.7,2 L 0.73,2 M 0.8,2 L 0.83,2 M 0.9,2 L 0.93,2 M 1,2 L 1,2.03 M 1,2.1 L 1,2.13 M 1,2.2 L 1,2.23 M 1,2.3 L 1,2.33 M 1,2.4 L 1,2.43 M 1,2.5 L 1,2.53 M 1,2.6 L 1,2.63 M 1,2.7 L 1,2.73 M 1,2.8 L 1,2.83 M 1,2.9 L 1,2.93 M 1,3 L 1,3 M 1,1 L 1,1.03 M 1,1.1 L 1,1.13 M 1,1.2 L 1,1.23 M 1,1.3 L 1,1.33 M 1,1.4 L 1,1.43 M 1,1.5 L 1,1.53 M 1,1.6 L 1,1.63 M 1,1.7 L 1,1.73 M 1,1.8 L 1,1.83 M 1,1.9 L 1,1.93 M 2,1 L 2.03,1 M 2.1,1 L 2.13,1 M 2.2,1 L 2.23,1 M 2.3,1 L 2.33,1 M 2.4,1 L 2.43,1 M 2.5,1 L 2.53,1 M 2.6,1 L 2.63,1 M 2.7,1 L 2.73,1 M 2.8,1 L 2.83,1 M 2.9,1 L 2.93,1 M 3,1 L 3,1 M 3,1 L 3,1.03 M 3,1.1 L 3,1.13 M 3,1.2 L 3,1.23 M 3,1.3 L 3,1.33 M 3,1.4 L 3,1.43 M 3,1.5 L 3,1.53 M 3,1.6 L 3,1.63 M 3,1.7 L 3,1.73 M 3,1.8 L 3,1.83 M 3,1.9 L 3,1.93 M 3,2 L 3.03,2 M 3.1,2 L 3.13,2 M 3.2,2 L 3.23,2 M 3.3,2 L 3.33,2 M 3.4,2 L 3.43,2 M 3.5,2 L 3.53,2 M 3.6,2 L 3.63,2 M 3.7,2 L 3.73,2 M 3.8,2 L 3.83,2 M 3.9,2 L 3.93,2 M 4,2 L 4,2 M 3,1 L 3.03,1 M 3.1,1 L 3.13,1 M 3.2,1 L 3.23,1 M 3.3,1 L 3.33,1 M 3.4,1 L 3.43,1 M 3.5,1 L 3.53,1 M 3.6,1 L 3.63,1 M 3.7,1 L 3.73,1 M 3.8,1 L 3.83,1 M 3.9,1 L 3.93,1 M 4,1 L 4,1 M 4,1 L 4,1.03 M 4,1.1 L 4,1.13 M 4,1.2 L 4,1.23 M 4,1.3 L 4,1.33 M 4,1.4 L 4,1.43 M 4,1.5 L 4,1.53 M 4,1.6 L 4,1.63 M 4,1.7 L 4,1.73 M 4,1.8 L 4,1.83 M 4,1.9 L 4,1.93 M 4,0 L 4,0.03 M 4,0.1 L 4,0.13 M 4,0.2 L 4,0.23 M 4,0.3 L 4,0.33 M 4,0.4 L 4,0.43 M 4,0.5 L 4,0.53 M 4,0.6 L 4,0.63 M 4,0.7 L 4,0.73 M 4,0.8 L 4,0.83 M 4,0.9 L 4,0.93 M 4,1 L 4.03,1 M 4.1,1 L 4.13,1 M 4.2,1 L 4.23,1 M 4.3,1 L 4.33,1 M 4.4,1 L 4.43,1 M 4.5,1 L 4.53,1 M 4.6,1 L 4.63,1 M 4.7,1 L 4.73,1 M 4.8,1 L 4.83,1 M 4.9,1 L 4.93,1 M 5,1 L 5,1.03 M 5,1.1 L 5,1.13 M 5,1.2 L 5,1.23 M 5,1.3 L 5,1.33 M 5,1.4 L 5,1.43 M 5,1.5 L 5,1.53 M 5,1.6 L 5,1.63 M 5,1.7 L 5,1.73 M 5,1.8 L 5,1.83 M 5,1.9 L 5,1.93 M 5,0 L 5,0.03 M 5,0.1 L 5,0.13 M 5,0.2 L 5,0.23 M 5,0.3 L 5,0.33 M 5,0.4 L 5,0.43 M 5,0.5 L 5,0.53 M 5,0.6 L 5,0.63 M 5,0.7 L 5,0.73 M 5,0.8 L 5,0.83 M 5,0.9 L 5,0.93 M 5,1 L 5.03,1 M 5.1,1 L 5.13,1 M 5.2,1 L 5.23,1 M 5.3,1 L 5.33,1 M 5.4,1 L 5.43,1 M 5.5,1 L 5.53,1 M 5.6,1 L 5.63,1 M 5.7,1 L 5.73,1 M 5.8,1 L 5.83,1 M 5.9,1 L 5.93,1 M 6,1 L 6,1.03 M 6,1.1 L 6,1.13 M 6,1.2 L 6,1.23 M 6,1.3 L 6,1.33 M 6,1.4 L 6,1.43 M 6,1.5 L 6,1.53 M 6,1.6 L 6,1.63 M 6,1.7 L 6,1.73 M 6,1.8 L 6,1.83 M 6,1.9 L 6,1.93 M 6,0 L 6,0.03 M 6,0.1 L 6,0.13 M 6,0.2 L 6,0.23 M 6,0.3 L 6,0.33 M 6,0.4 L 6,0.43 M 6,0.5 L 6,0.53 M 6,0.6 L 6,0.63 M 6,0.7 L 6,0.73 M 6,0.8 L 6,0.83 M 6,0.9 L 6,0.93 M 6,1 L 6.03,1 M 6.1,1 L 6.13,1 M 6.2,1 L 6.23,1 M 6.3,1 L 6.33,1 M 6.4,1 L 6.43,1 M 6.5,1 L 6.53,1 M 6.6,1 L 6.63,1 M 6.7,1 L 6.73,1 M 6.8,1 L 6.83,1 M 6.9,1 L 6.93,1 M 3,0 L 3,0.03 M 3,0.1 L 3,0.13 M 3,0.2 L 3,0.23 M 3,0.3 L 3,0.33 M 3,0.4 L 3,0.43 M 3,0.5 L 3,0.53 M 3,0.6 L 3,0.63 M 3,0.7 L 3,0.73 M 3,0.8 L 3,0.83 M 3,0.9 L 3,0.93" stroke="#000000" stroke-width="0.02" stroke-opacity="0.4"/></g><g><path d=" M 0,0"/><path d=" M 5.499,1.419 L 5.505,1.506 L 5.477,1.588 L 5.42,1.653 L 5.343,1.691 L 5.256,1.697 L 5.174,1.669 L 5.109,1.612 L 5.071,1.534 L 5.065,1.448 L 5.093,1.366 L 5.15,1.301 L 5.228,1.262 L 5.314,1.257 L 5.396,1.285 L 5.461,1.342 L 5.499,1.419" stroke="#000000" stroke-width="0.04" stroke-opacity="0.4"/><path d=" M 5.499,1.419 L 5.505,1.506 L 5.477,1.588 L 5.42,1.653 L 5.343,1.691 L 5.256,1.697 L 5.174,1.669 L 5.109,1.612 L 5.071,1.534 L 5.065,1.448 L 5.093,1.366 L 5.15,1.301 L 5.228,1.262 L 5.314,1.257 L 5.396,1.285 L 5.461,1.342 L 5.499,1.419" fill="#B29C85"/><path d=" M 5.422,1.372 L 5.452,1.432 L 5.456,1.499 L 5.435,1.563 L 5.39,1.613 L 5.33,1.643 L 5.263,1.648 L 5.199,1.626 L 5.148,1.582 L 5.119,1.521 L 5.114,1.454 L 5.136,1.391 L 5.18,1.34 L 5.24,1.31 L 5.308,1.306 L 5.371,1.327 L 5.422,1.372" stroke="#000000" stroke-width="0.02" stroke-opacity="0.4"/><path d=" M 2.372,0.683 L 2.386,0.757 L 2.372,0.831 L 2.33,0.894 L 2.267,0.936 L 2.193,0.951 L 2.119,0.936 L 2.057,0.894 L 2.015,0.831 L 2,0.757 L 2.015,0.683 L 2.057,0.621 L 2.119,0.579 L 2.193,0.564 L 2.267,0.579 L 2.33,0.621 L 2.372,0.683" stroke="#000000" stroke-width="0.04" stroke-opacity="0.4"/><path d=" M 2.372,0.683 L 2.386,0.757 L 2.372,0.831 L 2.33,0.894 L 2.267,0.936 L 2.193,0.951 L 2.119,0.936 L 2.057,0.894 L 2.015,0.831 L 2,0.757 L 2.015,0.683 L 2.057,0.621 L 2.119,0.579 L 2.193,0.564 L 2.267,0.579 L 2.33,0.621 L 2.372,0.683" fill="#B29C85"/><path d=" M 2.299,0.651 L 2.332,0.7 L 2.343,0.757 L 2.332,0.815 L 2.299,0.864 L 2.251,0.896 L 2.193,0.907 L 2.136,0.896 L 2.087,0.864 L 2.055,0.815 L 2.043,0.757 L 2.055,0.7 L 2.087,0.651 L 2.136,0.619 L 2.193,0.607 L 2.251,0.619 L 2.299,0.651" stroke="#000000" stroke-width="0.02" stroke-opacity="0.4"/><path d=" M 5.864,0.468 L 5.805,0.156 L 6.327,0.059 L 6.386,0.37 L 5.864,0.468" stroke="#000000" stroke-width="0.04" stroke-opacity="0.4"/><path d=" M 5.864,0.468 L 5.805,0.156 L 6.327,0.059 L 6.386,0.37 L 5.864,0.468" fill="#B29C85"/><path d=" M 6.326,0.329 L 5.905,0.408 L 5.865,0.197 L 6.286,0.118 L 6.326,0.329" stroke="#000000" stroke-width="0.02" stroke-opacity="0.4"/><path d=" M 2.906,0.601 L 2.915,0.678 L 2.894,0.753 L 2.847,0.814 L 2.779,0.852 L 2.702,0.861 L 2.627,0.84 L 2.566,0.793 L 2.528,0.725 L 2.519,0.648 L 2.54,0.573 L 2.588,0.512 L 2.655,0.474 L 2.732,0.465 L 2.807,0.486 L 2.868,0.534 L 2.906,0.601" stroke="#000000" stroke-width="0.04" stroke-opacity="0.4"/><path d=" M 2.906,0.601 L 2.915,0.678 L 2.894,0.753 L 2.847,0.814 L 2.779,0.852 L 2.702,0.861 L 2.627,0.84 L 2.566,0.793 L 2.528,0.725 L 2.519,0.648 L 2.54,0.573 L 2.588,0.512 L 2.655,0.474 L 2.732,0.465 L 2.807,0.486 L 2.868,0.534 L 2.906,0.601" fill="#B29C85"/><path d=" M 2.834,0.563 L 2.864,0.615 L 2.871,0.675 L 2.855,0.733 L 2.818,0.78 L 2.765,0.81 L 2.705,0.817 L 2.647,0.801 L 2.6,0.764 L 2.571,0.711 L 2.563,0.651 L 2.58,0.593 L 2.617,0.546 L 2.669,0.517 L 2.729,0.509 L 2.787,0.526 L 2.834,0.563" stroke="#000000" stroke-width="0.02" stroke-opacity="0.4"/><path d=" M 6.529,1.828 L 6.529,1.524 L 7,1.524 L 7,1.828 L 6.529,1.828" stroke="#000000" stroke-width="0.04" stroke-opacity="0.4"/><path d=" M 6.529,1.828 L 6.529,1.524 L 7,1.524 L 7,1.828 L 6.529,1.828" fill="#B29C85"/><path d=" M 6.953,1.78 L 6.576,1.78 L 6.576,1.572 L 6.953,1.572 L 6.953,1.78" stroke="#000000" stroke-width="0.02" stroke-opacity="0.4"/><path d=" M 2.148,2.822 L 2.148,2.509 L 2.394,2.509 L 2.394,2.822 L 2.148,2.822 M 2,2.987 L 2,2.344 L 2.336,2.344 L 2.336,2.987 L 2,2.987" stroke="#000000" stroke-width="0.04" stroke-opacity="0.4"/><path d=" M 2.148,2.822 L 2.148,2.509 L 2.394,2.509 L 2.394,2.822 L 2.148,2.822" fill="#B29C85"/><path d=" M 2,2.987 L 2,2.344 L 2.336,2.344 L 2.336,2.987 L 2,2.987" fill="#B29C85"/><path d=" M 2.359,2.787 L 2.183,2.787 L 2.183,2.544 L 2.359,2.544 L 2.359,2.787" stroke="#000000" stroke-width="0.02" stroke-opacity="0.4"/><path d=" M 3.802,1.865 L 3.802,1.335 L 4.1,1.335 L 4.1,1.865 L 3.802,1.865 M 4.229,1.634 L 4.249,1.736 L 4.229,1.838 L 4.171,1.925 L 4.084,1.983 L 3.981,2.004 L 3.879,1.983 L 3.792,1.925 L 3.734,1.838 L 3.714,1.736 L 3.734,1.634 L 3.792,1.547 L 3.879,1.489 L 3.981,1.468 L 4.084,1.489 L 4.171,1.547 L 4.229,1.634 M 3.5,1.787 L 3.5,1.336 L 4.175,1.336 L 4.175,1.787 L 3.5,1.787" stroke="#000000" stroke-width="0.04" stroke-opacity="0.4"/><path d=" M 3.802,1.865 L 3.802,1.335 L 4.1,1.335 L 4.1,1.865 L 3.802,1.865" fill="#B29C85"/><path d=" M 4.229,1.634 L 4.249,1.736 L 4.229,1.838 L 4.171,1.925 L 4.084,1.983 L 3.981,2.004 L 3.879,1.983 L 3.792,1.925 L 3.734,1.838 L 3.714,1.736 L 3.734,1.634 L 3.792,1.547 L 3.879,1.489 L 3.981,1.468 L 4.084,1.489 L 4.171,1.547 L 4.229,1.634" fill="#B29C85"/><path d=" M 3.5,1.787 L 3.5,1.336 L 4.175,1.336 L 4.175,1.787 L 3.5,1.787" fill="#B29C85"/><path d=" M 4.051,1.816 L 3.852,1.816 L 3.852,1.385 L 4.051,1.385 L 4.051,1.816" stroke="#000000" stroke-width="0.02" stroke-opacity="0.4"/><path d=" M 3.4,3 L 3.4,2.793 L 3.814,2.793 L 3.814,3 L 3.4,3" stroke="#000000" stroke-width="0.04" stroke-opacity="0.4"/><path d=" M 3.4,3 L 3.4,2.793 L 3.814,2.793 L 3.814,3 L 3.4,3" fill="#B29C85"/><path d=" M 3.777,2.963 L 3.437,2.963 L 3.437,2.829 L 3.777,2.829 L 3.777,2.963" stroke="#000000" stroke-width="0.02" stroke-opacity="0.4"/><path d=" M 0.032,1.619 L 0.062,1.31 L 0.272,1.331 L 0.243,1.639 L 0.032,1.619 M 0.341,1.906 L 0.355,1.764 L 0.638,1.791 L 0.624,1.933 L 0.341,1.906" stroke="#000000" stroke-width="0.04" stroke-opacity="0.4"/><path d=" M 0.032,1.619 L 0.062,1.31 L 0.272,1.331 L 0.243,1.639 L 0.032,1.619" fill="#B29C85"/><path d=" M 0.341,1.906 L 0.355,1.764 L 0.638,1.791 L 0.624,1.933 L 0.341,1.906" fill="#B29C85"/><path d=" M 0.214,1.604 L 0.067,1.59 L 0.09,1.345 L 0.237,1.359 L 0.214,1.604" stroke="#000000" stroke-width="0.02" stroke-opacity="0.4"/></g><g><path d=" M 0,0"/><path d=" M 6.5,0.9 L 7,0.9 L 7,1 L 6.5,1 L 6.5,0.9" fill="#A58F7D" stroke="#000000" stroke-width="0.02"/><path d=" M 6.5,0.8 L 7,0.8 L 7,0.9 L 6.5,0.9 L 6.5,0.8" fill="#A58F7D" stroke="#000000" stroke-width="0.02"/><path d=" M 6.5,0.7 L 7,0.7 L 7,0.8 L 6.5,0.8 L 6.5,0.7" fill="#A58F7D" stroke="#000000" stroke-width="0.02"/><path d=" M 6.5,0.6 L 7,0.6 L 7,0.7 L 6.5,0.7 L 6.5,0.6" fill="#A58F7D" stroke="#000000" stroke-width="0.02"/><path d=" M 6.5,0.5 L 7,0.5 L 7,0.6 L 6.5,0.6 L 6.5,0.5" fill="#A58F7D" stroke="#000000" stroke-width="0.02"/><path d=" M 6,0.5 L 6.5,0.5 L 6.5,0.6 L 6,0.6 L 6,0.5" fill="#A58F7D" stroke="#000000" stroke-width="0.02"/><path d=" M 6,0.6 L 6.5,0.6 L 6.5,0.7 L 6,0.7 L 6,0.6" fill="#A58F7D" stroke="#000000" stroke-width="0.02"/><path d=" M 6,0.7 L 6.5,0.7 L 6.5,0.8 L 6,0.8 L 6,0.7" fill="#A58F7D" stroke="#000000" stroke-width="0.02"/><path d=" M 6,0.8 L 6.5,0.8 L 6.5,0.9 L 6,0.9 L 6,0.8" fill="#A58F7D" stroke="#000000" stroke-width="0.02"/><path d=" M 6,0.9 L 6.5,0.9 L 6.5,1 L 6,1 L 6,0.9" fill="#A58F7D" stroke="#000000" stroke-width="0.02"/><path d=" M 6,0 L 7,0 L 7,0.5 L 6,0.5 L 6,0" fill="#A58F7D" stroke="#000000" stroke-width="0.02"/><path d=" M 6.75,1.25 L 6.75,1.039 L 6.75,0.93 L 6.75,0.852 L 6.75,0.781 L 6.75,0.719 L 6.75,0.656 L 6.75,0.594 L 6.75,0.531 L 6.75,0.469 L 6.742,0.414 L 6.727,0.367 L 6.703,0.328 L 6.672,0.297 L 6.633,0.273 L 6.586,0.258 L 6.531,0.25 L 6.469,0.25 L 6.414,0.258 L 6.367,0.273 L 6.328,0.297 L 6.297,0.328 L 6.273,0.375 L 6.258,0.438 L 6.25,0.539 L 6.25,0.75 M 6.25,0.75 L 6.309,0.669 M 6.25,0.75 L 6.191,0.669 M 6.77,1.25 Q 6.77,1.258 6.764,1.264 Q 6.758,1.27 6.75,1.27 L 6.75,1.27 Q 6.742,1.27 6.736,1.264 Q 6.73,1.258 6.73,1.25 L 6.73,1.25 Q 6.73,1.242 6.736,1.236 Q 6.742,1.23 6.75,1.23 L 6.75,1.23 Q 6.758,1.23 6.764,1.236 Q 6.77,1.242 6.77,1.25 L 6.77,1.25" stroke="#000000" stroke-width="0.02"/></g><g style="mix-blend-mode: multiply"><path d=" M 0,0"/><path d=" M 2.5,0.5 L 2,0.5 L 2,0.5 L 2.5,0.5 L 2.5,0.5" fill="url(#grad1)"/><path d=" M 2.5,0.5 L 2.5,0 L 6.5,0 L 6.5,0.5 L 2.5,0.5" fill="url(#grad2)"/><path d=" M 6.5,0.5 L 7,0.5 L 7,1.5 L 6.5,1.5 L 6.5,0.5" fill="url(#grad3)"/><path d=" M 6.5,1.5 L 6.5,2 L 5.5,2 L 5.5,1.5 L 6.5,1.5" fill="url(#grad4)"/><path d=" M 5.5,1.5 L 5,1.5 L 5,1 L 5.5,1 L 5.5,1.5" fill="url(#grad5)"/><path d=" M 5,0.5 L 5,1 L 2.5,1 L 2.5,0.5 L 5,0.5" fill="url(#grad6)"/><path d=" M 2.5,1 L 2,1 L 2,0.5 L 2.5,0.5 L 2.5,1" fill="url(#grad7)"/><path d=" M 2,0.5 L 2,0 L 2.5,0 L 2.5,0.5 L 2,0.5" fill="url(#grad8)"/><path d=" M 6.5,0 L 7,0 L 7,0.5 L 6.5,0.5 L 6.5,0" fill="url(#grad9)"/><path d=" M 7,1.5 L 7,2 L 6.5,2 L 6.5,1.5 L 7,1.5" fill="url(#grad10)"/><path d=" M 5.5,2 L 5,2 L 5,1.5 L 5.5,1.5 L 5.5,2" fill="url(#grad11)"/><path d=" M 5.5,1 L 5,1 L 5,0.5 L 5.5,0.5 L 5.5,0.5 L 5.5,1" fill="url(#grad12)"/><path d=" M 2.5,1.5 L 2.5,1 L 4.5,1 L 4.5,1.5 L 2.5,1.5" fill="url(#grad13)"/><path d=" M 4.5,1.5 L 5,1.5 L 5,1.5 L 4.5,1.5 L 4.5,1.5" fill="url(#grad14)"/><path d=" M 4.5,1.5 L 4.5,2 L 4,2 L 4,1.5 L 4.5,1.5" fill="url(#grad15)"/><path d=" M 3.5,2 L 4,2 L 4,2.5 L 3.5,2.5 L 3.5,2" fill="url(#grad16)"/><path d=" M 3.5,2.5 L 3.5,3 L 2.5,3 L 2.5,2.5 L 3.5,2.5" fill="url(#grad17)"/><path d=" M 2.5,2.5 L 2,2.5 L 2,1.5 L 2.5,1.5 L 2.5,2.5" fill="url(#grad18)"/><path d=" M 2,1.5 L 2,1 L 2.5,1 L 2.5,1.5 L 2,1.5" fill="url(#grad19)"/><path d=" M 4.5,1 L 5,1 L 5,1.5 L 4.5,1.5 L 4.5,1" fill="url(#grad20)"/><path d=" M 5,1.5 L 5,2 L 4.5,2 L 4.5,1.5 L 5,1.5" fill="url(#grad21)"/><path d=" M 4,1.5 L 4,2 L 3.5,2 L 3.5,1.5 L 3.5,1.5 L 4,1.5" fill="url(#grad22)"/><path d=" M 4,2.5 L 4,3 L 3.5,3 L 3.5,2.5 L 4,2.5" fill="url(#grad23)"/><path d=" M 2.5,3 L 2,3 L 2,2.5 L 2.5,2.5 L 2.5,3" fill="url(#grad24)"/><path d=" M 1.5,2.5 L 1.5,3 L 0.5,3 L 0.5,2.5 L 1.5,2.5" fill="url(#grad25)"/><path d=" M 0.5,2.5 L 0,2.5 L 0,1.5 L 0.5,1.5 L 0.5,2.5" fill="url(#grad26)"/><path d=" M 0.5,1.5 L 0.5,1 L 1.5,1 L 1.5,1.5 L 0.5,1.5" fill="url(#grad27)"/><path d=" M 1.5,1.5 L 2,1.5 L 2,2.5 L 1.5,2.5 L 1.5,1.5" fill="url(#grad28)"/><path d=" M 2,2.5 L 2,3 L 1.5,3 L 1.5,2.5 L 2,2.5" fill="url(#grad29)"/><path d=" M 0.5,3 L 0,3 L 0,2.5 L 0.5,2.5 L 0.5,3" fill="url(#grad30)"/><path d=" M 0,1.5 L 0,1 L 0.5,1 L 0.5,1.5 L 0,1.5" fill="url(#grad31)"/><path d=" M 1.5,1 L 2,1 L 2,1.5 L 1.5,1.5 L 1.5,1" fill="url(#grad32)"/><path d=" M 0,1 L 2,1 L 2,0 L 7,0 L 7,2 L 4,2 L 4,3 L 0,3 L 0,1" fill="url(#grad33)"/><path d=" M 0,1 L 2,1 L 2,0 L 7,0 L 7,2 L 4,2 L 4,3 L 0,3 L 0,1" fill="url(#grad34)"/><path d=" M 5,1 L 2,1 L 2,0 L 7,0 L 7,2 L 5,2 L 5,1" fill="url(#grad35)"/><path d=" M 2,3 L 2,1 L 5,1 L 5,2 L 4,2 L 4,3 L 2,3" fill="url(#grad36)"/><path d=" M 2,1 L 2,3 L 0,3 L 0,1 L 2,1" fill="url(#grad37)"/></g><g style="mix-blend-mode: plus-lighter"><path d=" M 0,0"/><path d=" M 5,1 L 2,1 L 2,0 L 7,0 L 7,2 L 5,2 L 5,1" fill="url(#grad38)"/><path d=" M 2,3 L 2,1 L 5,1 L 5,2 L 4,2 L 4,3 L 2,3" fill="url(#grad39)"/><path d=" M 2,1 L 2,3 L 0,3 L 0,1 L 2,1" fill="url(#grad40)"/></g><g><path d=" M 0,0"/><path d=" M 2.03,1.008 L 1.87,1.008 L 1.87,-0.008 L 2.03,-0.008 L 2.03,1.008" fill="#000000" stroke="#000000" stroke-width="0.04" stroke-linejoin="miter" stroke-linecap="square"/><path d=" M 1.945,0.945 L 2.055,0.945 L 2.055,1.055 L 1.945,1.055 L 1.945,0.945" fill="#000000" stroke="#000000" stroke-width="0.04" stroke-linejoin="miter" stroke-linecap="square"/><path d=" M 1.992,0.03 L 1.992,-0.13 L 3.008,-0.13 L 3.008,0.03 L 1.992,0.03" fill="#000000" stroke="#000000" stroke-width="0.04" stroke-linejoin="miter" stroke-linecap="square"/><path d=" M 1.945,-0.055 L 2.055,-0.055 L 2.055,0.055 L 1.945,0.055 L 1.945,-0.055" fill="#000000" stroke="#000000" stroke-width="0.04" stroke-linejoin="miter" stroke-linecap="square"/><path d=" M 2.992,0.03 L 2.992,-0.13 L 4.008,-0.13 L 4.008,0.03 L 2.992,0.03" fill="#000000" stroke="#000000" stroke-width="0.04" stroke-linejoin="miter" stroke-linecap="square"/><path d=" M 2.945,-0.055 L 3.055,-0.055 L 3.055,0.055 L 2.945,0.055 L 2.945,-0.055" fill="#000000" stroke="#000000" stroke-width="0.04" stroke-linejoin="miter" stroke-linecap="square"/><path d=" M 3.992,0.03 L 3.992,-0.13 L 5.008,-0.13 L 5.008,0.03 L 3.992,0.03" fill="#000000" stroke="#000000" stroke-width="0.04" stroke-linejoin="miter" stroke-linecap="square"/><path d=" M 3.945,-0.055 L 4.055,-0.055 L 4.055,0.055 L 3.945,0.055 L 3.945,-0.055" fill="#000000" stroke="#000000" stroke-width="0.04" stroke-linejoin="miter" stroke-linecap="square"/><path d=" M 4.992,0.03 L 4.992,-0.13 L 6.008,-0.13 L 6.008,0.03 L 4.992,0.03" fill="#000000" stroke="#000000" stroke-width="0.04" stroke-linejoin="miter" stroke-linecap="square"/><path d=" M 4.945,-0.055 L 5.055,-0.055 L 5.055,0.055 L 4.945,0.055 L 4.945,-0.055" fill="#000000" stroke="#000000" stroke-width="0.04" stroke-linejoin="miter" stroke-linecap="square"/><path d=" M 5.992,0.03 L 5.992,-0.13 L 7.008,-0.13 L 7.008,0.03 L 5.992,0.03" fill="#000000" stroke="#000000" stroke-width="0.04" stroke-linejoin="miter" stroke-linecap="square"/><path d=" M 5.945,-0.055 L 6.055,-0.055 L 6.055,0.055 L 5.945,0.055 L 5.945,-0.055" fill="#000000" stroke="#000000" stroke-width="0.04" stroke-linejoin="miter" stroke-linecap="square"/><path d=" M 6.97,-0.008 L 7.13,-0.008 L 7.13,1.008 L 6.97,1.008 L 6.97,-0.008" fill="#000000" stroke="#000000" stroke-width="0.04" stroke-linejoin="miter" stroke-linecap="square"/><path d=" M 6.945,-0.055 L 7.055,-0.055 L 7.055,0.055 L 6.945,0.055 L 6.945,-0.055" fill="#000000" stroke="#000000" stroke-width="0.04" stroke-linejoin="miter" stroke-linecap="square"/><path d=" M 6.97,0.992 L 7.13,0.992 L 7.13,2.008 L 6.97,2.008 L 6.97,0.992" fill="#000000" stroke="#000000" stroke-width="0.04" stroke-linejoin="miter" stroke-linecap="square"/><path d=" M 6.945,0.945 L 7.055,0.945 L 7.055,1.055 L 6.945,1.055 L 6.945,0.945" fill="#000000" stroke="#000000" stroke-width="0.04" stroke-linejoin="miter" stroke-linecap="square"/><path d=" M 7.008,1.97 L 7.008,2.13 L 5.992,2.13 L 5.992,1.97 L 7.008,1.97" fill="#000000" stroke="#000000" stroke-width="0.04" stroke-linejoin="miter" stroke-linecap="square"/><path d=" M 6.945,1.945 L 7.055,1.945 L 7.055,2.055 L 6.945,2.055 L 6.945,1.945" fill="#000000" stroke="#000000" stroke-width="0.04" stroke-linejoin="miter" stroke-linecap="square"/><path d=" M 6.008,1.97 L 6.008,2.13 L 4.992,2.13 L 4.992,1.97 L 6.008,1.97" fill="#000000" stroke="#000000" stroke-width="0.04" stroke-linejoin="miter" stroke-linecap="square"/><path d=" M 5.945,1.945 L 6.055,1.945 L 6.055,2.055 L 5.945,2.055 L 5.945,1.945" fill="#000000" stroke="#000000" stroke-width="0.04" stroke-linejoin="miter" stroke-linecap="square"/><path d=" M 5.008,1.97 L 5.008,2.13 L 3.992,2.13 L 3.992,1.97 L 5.008,1.97" fill="#000000" stroke="#000000" stroke-width="0.04" stroke-linejoin="miter" stroke-linecap="square"/><path d=" M 4.945,1.945 L 5.055,1.945 L 5.055,2.055 L 4.945,2.055 L 4.945,1.945" fill="#000000" stroke="#000000" stroke-width="0.04" stroke-linejoin="miter" stroke-linecap="square"/><path d=" M 3.97,1.992 L 4.13,1.992 L 4.13,3.008 L 3.97,3.008 L 3.97,1.992" fill="#000000" stroke="#000000" stroke-width="0.04" stroke-linejoin="miter" stroke-linecap="square"/><path d=" M 3.945,1.945 L 4.055,1.945 L 4.055,2.055 L 3.945,2.055 L 3.945,1.945" fill="#000000" stroke="#000000" stroke-width="0.04" stroke-linejoin="miter" stroke-linecap="square"/><path d=" M 4.008,2.97 L 4.008,3.13 L 2.992,3.13 L 2.992,2.97 L 4.008,2.97" fill="#000000" stroke="#000000" stroke-width="0.04" stroke-linejoin="miter" stroke-linecap="square"/><path d=" M 3.945,2.945 L 4.055,2.945 L 4.055,3.055 L 3.945,3.055 L 3.945,2.945" fill="#000000" stroke="#000000" stroke-width="0.04" stroke-linejoin="miter" stroke-linecap="square"/><path d=" M 3.008,2.97 L 3.008,3.13 L 1.992,3.13 L 1.992,2.97 L 3.008,2.97" fill="#000000" stroke="#000000" stroke-width="0.04" stroke-linejoin="miter" stroke-linecap="square"/><path d=" M 2.945,2.945 L 3.055,2.945 L 3.055,3.055 L 2.945,3.055 L 2.945,2.945" fill="#000000" stroke="#000000" stroke-width="0.04" stroke-linejoin="miter" stroke-linecap="square"/><path d=" M 2.008,2.97 L 2.008,3.13 L 0.992,3.13 L 0.992,2.97 L 2.008,2.97" fill="#000000" stroke="#000000" stroke-width="0.04" stroke-linejoin="miter" stroke-linecap="square"/><path d=" M 1.945,2.945 L 2.055,2.945 L 2.055,3.055 L 1.945,3.055 L 1.945,2.945" fill="#000000" stroke="#000000" stroke-width="0.04" stroke-linejoin="miter" stroke-linecap="square"/><path d=" M 1.008,2.97 L 1.008,3.13 L -0.008,3.13 L -0.008,2.97 L 1.008,2.97" fill="#000000" stroke="#000000" stroke-width="0.04" stroke-linejoin="miter" stroke-linecap="square"/><path d=" M 0.945,2.945 L 1.055,2.945 L 1.055,3.055 L 0.945,3.055 L 0.945,2.945" fill="#000000" stroke="#000000" stroke-width="0.04" stroke-linejoin="miter" stroke-linecap="square"/><path d=" M 0.03,3.008 L -0.13,3.008 L -0.13,1.992 L 0.03,1.992 L 0.03,3.008" fill="#000000" stroke="#000000" stroke-width="0.04" stroke-linejoin="miter" stroke-linecap="square"/><path d=" M -0.055,2.945 L 0.055,2.945 L 0.055,3.055 L -0.055,3.055 L -0.055,2.945" fill="#000000" stroke="#000000" stroke-width="0.04" stroke-linejoin="miter" stroke-linecap="square"/><path d=" M 0.03,2.008 L -0.13,2.008 L -0.13,0.992 L 0.03,0.992 L 0.03,2.008" fill="#000000" stroke="#000000" stroke-width="0.04" stroke-linejoin="miter" stroke-linecap="square"/><path d=" M -0.055,1.945 L 0.055,1.945 L 0.055,2.055 L -0.055,2.055 L -0.055,1.945" fill="#000000" stroke="#000000" stroke-width="0.04" stroke-linejoin="miter" stroke-linecap="square"/><path d=" M -0.008,1.03 L -0.008,0.87 L 1.008,0.87 L 1.008,1.03 L -0.008,1.03" fill="#000000" stroke="#000000" stroke-width="0.04" stroke-linejoin="miter" stroke-linecap="square"/><path d=" M -0.055,0.945 L 0.055,0.945 L 0.055,1.055 L -0.055,1.055 L -0.055,0.945" fill="#000000" stroke="#000000" stroke-width="0.04" stroke-linejoin="miter" stroke-linecap="square"/><path d=" M 0.992,1.03 L 0.992,0.87 L 2.008,0.87 L 2.008,1.03 L 0.992,1.03" fill="#000000" stroke="#000000" stroke-width="0.04" stroke-linejoin="miter" stroke-linecap="square"/><path d=" M 0.945,0.945 L 1.055,0.945 L 1.055,1.055 L 0.945,1.055 L 0.945,0.945" fill="#000000" stroke="#000000" stroke-width="0.04" stroke-linejoin="miter" stroke-linecap="square"/><path d=" M 1.87,-0.13 L 2.03,-0.13 L 2.03,0.03 L 1.87,0.03 L 1.87,-0.13 M 6.97,-0.13 L 7.13,-0.13 L 7.13,0.03 L 6.97,0.03 L 6.97,-0.13 M 6.97,1.97 L 7.13,1.97 L 7.13,2.13 L 6.97,2.13 L 6.97,1.97 M 3.97,1.97 L 4.13,1.97 L 4.13,2.13 L 3.97,2.13 L 3.97,1.97 M 3.97,2.97 L 4.13,2.97 L 4.13,3.13 L 3.97,3.13 L 3.97,2.97 M -0.13,2.97 L 0.03,2.97 L 0.03,3.13 L -0.13,3.13 L -0.13,2.97 M -0.13,0.87 L 0.03,0.87 L 0.03,1.03 L -0.13,1.03 L -0.13,0.87 M 1.87,0.87 L 2.03,0.87 L 2.03,1.03 L 1.87,1.03 L 1.87,0.87" fill="#000000" stroke="#000000" stroke-width="0.04" stroke-linejoin="miter" stroke-linecap="square"/><path d=" M 5.03,2.03 L 4.97,2.03 L 4.97,0.97 L 5.03,0.97 L 5.03,2.03" fill="#000000" stroke="#000000" stroke-width="0.04" stroke-linejoin="miter" stroke-linecap="square"/><path d=" M 4.945,1.945 L 5.055,1.945 L 5.055,2.055 L 4.945,2.055 L 4.945,1.945" fill="#000000" stroke="#000000" stroke-width="0.04" stroke-linejoin="miter" stroke-linecap="square"/><path d=" M 5,0.97 L 5,1.03 L 4.68,1.03 L 4.68,0.97 L 5,0.97 M 4.32,0.97 L 4.32,1.03 L 4,1.03 L 4,0.97 L 4.32,0.97" fill="#000000" stroke="#000000" stroke-width="0.04" stroke-linejoin="miter" stroke-linecap="square"/><path d=" M 4.945,0.945 L 5.055,0.945 L 5.055,1.055 L 4.945,1.055 L 4.945,0.945" fill="#000000" stroke="#000000" stroke-width="0.04" stroke-linejoin="miter" stroke-linecap="square"/><path d=" M 4.03,0.97 L 4.03,1.03 L 2.97,1.03 L 2.97,0.97 L 4.03,0.97" fill="#000000" stroke="#000000" stroke-width="0.04" stroke-linejoin="miter" stroke-linecap="square"/><path d=" M 3.945,0.945 L 4.055,0.945 L 4.055,1.055 L 3.945,1.055 L 3.945,0.945" fill="#000000" stroke="#000000" stroke-width="0.04" stroke-linejoin="miter" stroke-linecap="square"/><path d=" M 3.03,0.97 L 3.03,1.03 L 1.97,1.03 L 1.97,0.97 L 3.03,0.97" fill="#000000" stroke="#000000" stroke-width="0.04" stroke-linejoin="miter" stroke-linecap="square"/><path d=" M 2.945,0.945 L 3.055,0.945 L 3.055,1.055 L 2.945,1.055 L 2.945,0.945" fill="#000000" stroke="#000000" stroke-width="0.04" stroke-linejoin="miter" stroke-linecap="square"/><path d=" M 2.03,3.03 L 1.97,3.03 L 1.97,1.97 L 2.03,1.97 L 2.03,3.03" fill="#000000" stroke="#000000" stroke-width="0.04" stroke-linejoin="miter" stroke-linecap="square"/><path d=" M 1.945,2.945 L 2.055,2.945 L 2.055,3.055 L 1.945,3.055 L 1.945,2.945" fill="#000000" stroke="#000000" stroke-width="0.04" stroke-linejoin="miter" stroke-linecap="square"/><path d=" M 2.03,2 L 1.97,2 L 1.97,1.68 L 2.03,1.68 L 2.03,2 M 2.03,1.32 L 1.97,1.32 L 1.97,1 L 2.03,1 L 2.03,1.32" fill="#000000" stroke="#000000" stroke-width="0.04" stroke-linejoin="miter" stroke-linecap="square"/><path d=" M 1.945,1.945 L 2.055,1.945 L 2.055,2.055 L 1.945,2.055 L 1.945,1.945" fill="#000000" stroke="#000000" stroke-width="0.04" stroke-linejoin="miter" stroke-linecap="square"/><path d=" M 2.03,1.008 L 1.87,1.008 L 1.87,-0.008 L 2.03,-0.008 L 2.03,1.008" fill="#B2B2B2"/><path d=" M 1.945,0.945 L 2.055,0.945 L 2.055,1.055 L 1.945,1.055 L 1.945,0.945" fill="#B2B2B2"/><path d=" M 1.992,0.03 L 1.992,-0.13 L 3.008,-0.13 L 3.008,0.03 L 1.992,0.03" fill="#B2B2B2"/><path d=" M 1.945,-0.055 L 2.055,-0.055 L 2.055,0.055 L 1.945,0.055 L 1.945,-0.055" fill="#B2B2B2"/><path d=" M 2.992,0.03 L 2.992,-0.13 L 4.008,-0.13 L 4.008,0.03 L 2.992,0.03" fill="#B2B2B2"/><path d=" M 2.945,-0.055 L 3.055,-0.055 L 3.055,0.055 L 2.945,0.055 L 2.945,-0.055" fill="#B2B2B2"/><path d=" M 3.992,0.03 L 3.992,-0.13 L 5.008,-0.13 L 5.008,0.03 L 3.992,0.03" fill="#B2B2B2"/><path d=" M 3.945,-0.055 L 4.055,-0.055 L 4.055,0.055 L 3.945,0.055 L 3.945,-0.055" fill="#B2B2B2"/><path d=" M 4.992,0.03 L 4.992,-0.13 L 6.008,-0.13 L 6.008,0.03 L 4.992,0.03" fill="#B2B2B2"/><path d=" M 4.945,-0.055 L 5.055,-0.055 L 5.055,0.055 L 4.945,0.055 L 4.945,-0.055" fill="#B2B2B2"/><path d=" M 5.992,0.03 L 5.992,-0.13 L 7.008,-0.13 L 7.008,0.03 L 5.992,0.03" fill="#B2B2B2"/><path d=" M 5.945,-0.055 L 6.055,-0.055 L 6.055,0.055 L 5.945,0.055 L 5.945,-0.055" fill="#B2B2B2"/><path d=" M 6.97,-0.008 L 7.13,-0.008 L 7.13,1.008 L 6.97,1.008 L 6.97,-0.008" fill="#B2B2B2"/><path d=" M 6.945,-0.055 L 7.055,-0.055 L 7.055,0.055 L 6.945,0.055 L 6.945,-0.055" fill="#B2B2B2"/><path d=" M 6.97,0.992 L 7.13,0.992 L 7.13,2.008 L 6.97,2.008 L 6.97,0.992" fill="#B2B2B2"/><path d=" M 6.945,0.945 L 7.055,0.945 L 7.055,1.055 L 6.945,1.055 L 6.945,0.945" fill="#B2B2B2"/><path d=" M 7.008,1.97 L 7.008,2.13 L 5.992,2.13 L 5.992,1.97 L 7.008,1.97" fill="#B2B2B2"/><path d=" M 6.945,1.945 L 7.055,1.945 L 7.055,2.055 L 6.945,2.055 L 6.945,1.945" fill="#B2B2B2"/><path d=" M 6.008,1.97 L 6.008,2.13 L 4.992,2.13 L 4.992,1.97 L 6.008,1.97" fill="#B2B2B2"/><path d=" M 5.945,1.945 L 6.055,1.945 L 6.055,2.055 L 5.945,2.055 L 5.945,1.945" fill="#B2B2B2"/><path d=" M 5.008,1.97 L 5.008,2.13 L 3.992,2.13 L 3.992,1.97 L 5.008,1.97" fill="#B2B2B2"/><path d=" M 4.945,1.945 L 5.055,1.945 L 5.055,2.055 L 4.945,2.055 L 4.945,1.945" fill="#B2B2B2"/><path d=" M 3.97,1.992 L 4.13,1.992 L 4.13,3.008 L 3.97,3.008 L 3.97,1.992" fill="#B2B2B2"/><path d=" M 3.945,1.945 L 4.055,1.945 L 4.055,2.055 L 3.945,2.055 L 3.945,1.945" fill="#B2B2B2"/><path d=" M 4.008,2.97 L 4.008,3.13 L 2.992,3.13 L 2.992,2.97 L 4.008,2.97" fill="#B2B2B2"/><path d=" M 3.945,2.945 L 4.055,2.945 L 4.055,3.055 L 3.945,3.055 L 3.945,2.945" fill="#B2B2B2"/><path d=" M 3.008,2.97 L 3.008,3.13 L 1.992,3.13 L 1.992,2.97 L 3.008,2.97" fill="#B2B2B2"/><path d=" M 2.945,2.945 L 3.055,2.945 L 3.055,3.055 L 2.945,3.055 L 2.945,2.945" fill="#B2B2B2"/><path d=" M 2.008,2.97 L 2.008,3.13 L 0.992,3.13 L 0.992,2.97 L 2.008,2.97" fill="#B2B2B2"/><path d=" M 1.945,2.945 L 2.055,2.945 L 2.055,3.055 L 1.945,3.055 L 1.945,2.945" fill="#B2B2B2"/><path d=" M 1.008,2.97 L 1.008,3.13 L -0.008,3.13 L -0.008,2.97 L 1.008,2.97" fill="#B2B2B2"/><path d=" M 0.945,2.945 L 1.055,2.945 L 1.055,3.055 L 0.945,3.055 L 0.945,2.945" fill="#B2B2B2"/><path d=" M 0.03,3.008 L -0.13,3.008 L -0.13,1.992 L 0.03,1.992 L 0.03,3.008" fill="#B2B2B2"/><path d=" M -0.055,2.945 L 0.055,2.945 L 0.055,3.055 L -0.055,3.055 L -0.055,2.945" fill="#B2B2B2"/><path d=" M 0.03,2.008 L -0.13,2.008 L -0.13,0.992 L 0.03,0.992 L 0.03,2.008" fill="#B2B2B2"/><path d=" M -0.055,1.945 L 0.055,1.945 L 0.055,2.055 L -0.055,2.055 L -0.055,1.945" fill="#B2B2B2"/><path d=" M -0.008,1.03 L -0.008,0.87 L 1.008,0.87 L 1.008,1.03 L -0.008,1.03" fill="#B2B2B2"/><path d=" M -0.055,0.945 L 0.055,0.945 L 0.055,1.055 L -0.055,1.055 L -0.055,0.945" fill="#B2B2B2"/><path d=" M 0.992,1.03 L 0.992,0.87 L 2.008,0.87 L 2.008,1.03 L 0.992,1.03" fill="#B2B2B2"/><path d=" M 0.945,0.945 L 1.055,0.945 L 1.055,1.055 L 0.945,1.055 L 0.945,0.945" fill="#B2B2B2"/><path d=" M 1.87,-0.13 L 2.03,-0.13 L 2.03,0.03 L 1.87,0.03 L 1.87,-0.13 M 6.97,-0.13 L 7.13,-0.13 L 7.13,0.03 L 6.97,0.03 L 6.97,-0.13 M 6.97,1.97 L 7.13,1.97 L 7.13,2.13 L 6.97,2.13 L 6.97,1.97 M 3.97,1.97 L 4.13,1.97 L 4.13,2.13 L 3.97,2.13 L 3.97,1.97 M 3.97,2.97 L 4.13,2.97 L 4.13,3.13 L 3.97,3.13 L 3.97,2.97 M -0.13,2.97 L 0.03,2.97 L 0.03,3.13 L -0.13,3.13 L -0.13,2.97 M -0.13,0.87 L 0.03,0.87 L 0.03,1.03 L -0.13,1.03 L -0.13,0.87 M 1.87,0.87 L 2.03,0.87 L 2.03,1.03 L 1.87,1.03 L 1.87,0.87" fill="#B2B2B2"/><path d=" M 5.03,2.03 L 4.97,2.03 L 4.97,0.97 L 5.03,0.97 L 5.03,2.03" fill="#B2B2B2"/><path d=" M 4.945,1.945 L 5.055,1.945 L 5.055,2.055 L 4.945,2.055 L 4.945,1.945" fill="#B2B2B2"/><path d=" M 5,0.97 L 5,1.03 L 4.68,1.03 L 4.68,0.97 L 5,0.97 M 4.32,0.97 L 4.32,1.03 L 4,1.03 L 4,0.97 L 4.32,0.97" fill="#B2B2B2"/><path d=" M 4.945,0.945 L 5.055,0.945 L 5.055,1.055 L 4.945,1.055 L 4.945,0.945" fill="#B2B2B2"/><path d=" M 4.03,0.97 L 4.03,1.03 L 2.97,1.03 L 2.97,0.97 L 4.03,0.97" fill="#B2B2B2"/><path d=" M 3.945,0.945 L 4.055,0.945 L 4.055,1.055 L 3.945,1.055 L 3.945,0.945" fill="#B2B2B2"/><path d=" M 3.03,0.97 L 3.03,1.03 L 1.97,1.03 L 1.97,0.97 L 3.03,0.97" fill="#B2B2B2"/><path d=" M 2.945,0.945 L 3.055,0.945 L 3.055,1.055 L 2.945,1.055 L 2.945,0.945" fill="#B2B2B2"/><path d=" M 2.03,3.03 L 1.97,3.03 L 1.97,1.97 L 2.03,1.97 L 2.03,3.03" fill="#B2B2B2"/><path d=" M 1.945,2.945 L 2.055,2.945 L 2.055,3.055 L 1.945,3.055 L 1.945,2.945" fill="#B2B2B2"/><path d=" M 2.03,2 L 1.97,2 L 1.97,1.68 L 2.03,1.68 L 2.03,2 M 2.03,1.32 L 1.97,1.32 L 1.97,1 L 2.03,1 L 2.03,1.32" fill="#B2B2B2"/><path d=" M 1.945,1.945 L 2.055,1.945 L 2.055,2.055 L 1.945,2.055 L 1.945,1.945" fill="#B2B2B2"/></g><g><path d=" M 0,0"/></g><g><path d=" M 0,0"/></g></g><g stroke="#453C35" stroke-width="2"><path d=" M 0,0"/><g transform="translate(4 0.5) scale(0.021 0.021)"><path d=" M 0,0"/><text dominant-baseline="text-before-edge" style="font: 28px Share Tech" fill="#E5D6B7" transform="translate(-30.464 -16)">Cellar</text></g><g transform="translate(3 2) scale(0.016 0.016)"><path d=" M 0,0"/><text dominant-baseline="text-before-edge" style="font: 28px Share Tech" fill="#E5D6B7" transform="translate(-52.612 -16)">Workshop</text></g><g transform="translate(1 2) scale(0.02 0.02)"><path d=" M 0,0"/><text dominant-baseline="text-before-edge" style="font: 28px Share Tech" fill="#E5D6B7" transform="translate(-42.014 -16)">Storage</text></g></g><g><path d=" M 0,0"/><g transform="translate(4 0.5) scale(0.021 0.021)"><path d=" M 0,0"/><text dominant-baseline="text-before-edge" style="font: 28px Share Tech" fill="#E5D6B7" transform="translate(-30.464 -16)">Cellar</text></g><g transform="translate(3 2) scale(0.016 0.016)"><path d=" M 0,0"/><text dominant-baseline="text-before-edge" style="font: 28px Share Tech" fill="#E5D6B7" transform="translate(-52.612 -16)">Workshop</text></g><g transform="translate(1 2) scale(0.02 0.02)"><path d=" M 0,0"/><text dominant-baseline="text-before-edge" style="font: 28px Share Tech" fill="#E5D6B7" transform="translate(-42.014 -16)">Storage</text></g></g></g><style><![CDATA[@import url("https://fonts.googleapis.com/css2?family=Share+Tech&display=swap");]]></style><defs><linearGradient id="grad1" gradientUnits="userSpaceOnUse" x1="2" y1="0.5" x2="2.5" y2="0.5"><stop offset="0%" stop-color="#333333" stop-opacity="0.5"/><stop offset="25%" stop-color="#333333" stop-opacity="0.28125"/><stop offset="50%" stop-color="#333333" stop-opacity="0.125"/><stop offset="75%" stop-color="#333333" stop-opacity="0.03125"/><stop offset="100%" stop-color="#333333" stop-opacity="0"/></linearGradient><linearGradient id="grad2" gradientUnits="userSpaceOnUse" x1="2.5" y1="0" x2="2.5" y2="0.5"><stop offset="0%" stop-color="#333333" stop-opacity="0.5"/><stop offset="25%" stop-color="#333333" stop-opacity="0.28125"/><stop offset="50%" stop-color="#333333" stop-opacity="0.125"/><stop offset="75%" stop-color="#333333" stop-opacity="0.03125"/><stop offset="100%" stop-color="#333333" stop-opacity="0"/></linearGradient><linearGradient id="grad3" gradientUnits="userSpaceOnUse" x1="7" y1="0.5" x2="6.5" y2="0.5"><stop offset="0%" stop-color="#333333" stop-opacity="0.5"/><stop offset="25%" stop-color="#333333" stop-opacity="0.28125"/><stop offset="50%" stop-color="#333333" stop-opacity="0.125"/><stop offset="75%" stop-color="#333333" stop-opacity="0.03125"/><stop offset="100%" stop-color="#333333" stop-opacity="0"/></linearGradient><linearGradient id="grad4" gradientUnits="userSpaceOnUse" x1="6.5" y1="2" x2="6.5" y2="1.5"><stop offset="0%" stop-color="#333333" stop-opacity="0.5"/><stop offset="25%" stop-color="#333333" stop-opacity="0.28125"/><stop offset="50%" stop-color="#333333" stop-opacity="0.125"/><stop offset="75%" stop-color="#333333" stop-opacity="0.03125"/><stop offset="100%" stop-color="#333333" stop-opacity="0"/></linearGradient><linearGradient id="grad5" gradientUnits="userSpaceOnUse" x1="5" y1="1.5" x2="5.5" y2="1.5"><stop offset="0%" stop-color="#333333" stop-opacity="0.5"/><stop offset="25%" stop-color="#333333" stop-opacity="0.28125"/><stop offset="50%" stop-color="#333333" stop-opacity="0.125"/><stop offset="75%" stop-color="#333333" stop-opacity="0.03125"/><stop offset="100%" stop-color="#333333" stop-opacity="0"/></linearGradient><linearGradient id="grad6" gradientUnits="userSpaceOnUse" x1="5" y1="1" x2="5" y2="0.5"><stop offset="0%" stop-color="#333333" stop-opacity="0.5"/><stop offset="25%" stop-color="#333333" stop-opacity="0.28125"/><stop offset="50%" stop-color="#333333" stop-opacity="0.125"/><stop offset="75%" stop-color="#333333" stop-opacity="0.03125"/><stop offset="100%" stop-color="#333333" stop-opacity="0"/></linearGradient><radialGradient id="grad7" gradientUnits="userSpaceOnUse" cx="2.5" cy="0.5" r="0.5"><stop offset="0%" stop-color="#333333" stop-opacity="0"/><stop offset="25%" stop-color="#333333" stop-opacity="0.03125"/><stop offset="50%" stop-color="#333333" stop-opacity="0.125"/><stop offset="75%" stop-color="#333333" stop-opacity="0.28125"/><stop offset="100%" stop-color="#333333" stop-opacity="0.5"/></radialGradient><radialGradient id="grad8" gradientUnits="userSpaceOnUse" cx="2.5" cy="0.5" r="0.5"><stop offset="0%" stop-color="#333333" stop-opacity="0"/><stop offset="25%" stop-color="#333333" stop-opacity="0.03125"/><stop offset="50%" stop-color="#333333" stop-opacity="0.125"/><stop offset="75%" stop-color="#333333" stop-opacity="0.28125"/><stop offset="100%" stop-color="#333333" stop-opacity="0.5"/></radialGradient><radialGradient id="grad9" gradientUnits="userSpaceOnUse" cx="6.5" cy="0.5" r="0.5"><stop offset="0%" stop-color="#333333" stop-opacity="0"/><stop offset="25%" stop-color="#333333" stop-opacity="0.03125"/><stop offset="50%" stop-color="#333333" stop-opacity="0.125"/><stop offset="75%" stop-color="#333333" stop-opacity="0.28125"/><stop offset="100%" stop-color="#333333" stop-opacity="0.5"/></radialGradient><radialGradient id="grad10" gradientUnits="userSpaceOnUse" cx="6.5" cy="1.5" r="0.5"><stop offset="0%" stop-color="#333333" stop-opacity="0"/><stop offset="25%" stop-color="#333333" stop-opacity="0.03125"/><stop offset="50%" stop-color="#333333" stop-opacity="0.125"/><stop offset="75%" stop-color="#333333" stop-opacity="0.28125"/><stop offset="100%" stop-color="#333333" stop-opacity="0.5"/></radialGradient><radialGradient id="grad11" gradientUnits="userSpaceOnUse" cx="5.5" cy="1.5" r="0.5"><stop offset="0%" stop-color="#333333" stop-opacity="0"/><stop offset="25%" stop-color="#333333" stop-opacity="0.03125"/><stop offset="50%" stop-color="#333333" stop-opacity="0.125"/><stop offset="75%" stop-color="#333333" stop-opacity="0.28125"/><stop offset="100%" stop-color="#333333" stop-opacity="0.5"/></radialGradient><radialGradient id="grad12" gradientUnits="userSpaceOnUse" cx="5" cy="1" r="0.5"><stop offset="0%" stop-color="#333333" stop-opacity="0.5"/><stop offset="25%" stop-color="#333333" stop-opacity="0.28125"/><stop offset="50%" stop-color="#333333" stop-opacity="0.125"/><stop offset="75%" stop-color="#333333" stop-opacity="0.03125"/><stop offset="100%" stop-color="#333333" stop-opacity="0"/></radialGradient><linearGradient id="grad13" gradientUnits="userSpaceOnUse" x1="2.5" y1="1" x2="2.5" y2="1.5"><stop offset="0%" stop-color="#333333" stop-opacity="0.5"/><stop offset="25%" stop-color="#333333" stop-opacity="0.28125"/><stop offset="50%" stop-color="#333333" stop-opacity="0.125"/><stop offset="75%" stop-color="#333333" stop-opacity="0.03125"/><stop offset="100%" stop-color="#333333" stop-opacity="0"/></linearGradient><linearGradient id="grad14" gradientUnits="userSpaceOnUse" x1="5" y1="1.5" x2="4.5" y2="1.5"><stop offset="0%" stop-color="#333333" stop-opacity="0.5"/><stop offset="25%" stop-color="#333333" stop-opacity="0.28125"/><stop offset="50%" stop-color="#333333" stop-opacity="0.125"/><stop offset="75%" stop-color="#333333" stop-opacity="0.03125"/><stop offset="100%" stop-color="#333333" stop-opacity="0"/></linearGradient><linearGradient id="grad15" gradientUnits="userSpaceOnUse" x1="4.5" y1="2" x2="4.5" y2="1.5"><stop offset="0%" stop-color="#333333" stop-opacity="0.5"/><stop offset="25%" stop-color="#333333" stop-opacity="0.28125"/><stop offset="50%" stop-color="#333333" stop-opacity="0.125"/><stop offset="75%" stop-color="#333333" stop-opacity="0.03125"/><stop offset="100%" stop-color="#333333" stop-opacity="0"/></linearGradient><linearGradient id="grad16" gradientUnits="userSpaceOnUse" x1="4" y1="2" x2="3.5" y2="2"><stop offset="0%" stop-color="#333333" stop-opacity="0.5"/><stop offset="25%" stop-color="#333333" stop-opacity="0.28125"/><stop offset="50%" stop-color="#333333" stop-opacity="0.125"/><stop offset="75%" stop-color="#333333" stop-opacity="0.03125"/><stop offset="100%" stop-color="#333333" stop-opacity="0"/></linearGradient><linearGradient id="grad17" gradientUnits="userSpaceOnUse" x1="3.5" y1="3" x2="3.5" y2="2.5"><stop offset="0%" stop-color="#333333" stop-opacity="0.5"/><stop offset="25%" stop-color="#333333" stop-opacity="0.28125"/><stop offset="50%" stop-color="#333333" stop-opacity="0.125"/><stop offset="75%" stop-color="#333333" stop-opacity="0.03125"/><stop offset="100%" stop-color="#333333" stop-opacity="0"/></linearGradient><linearGradient id="grad18" gradientUnits="userSpaceOnUse" x1="2" y1="2.5" x2="2.5" y2="2.5"><stop offset="0%" stop-color="#333333" stop-opacity="0.5"/><stop offset="25%" stop-color="#333333" stop-opacity="0.28125"/><stop offset="50%" stop-color="#333333" stop-opacity="0.125"/><stop offset="75%" stop-color="#333333" stop-opacity="0.03125"/><stop offset="100%" stop-color="#333333" stop-opacity="0"/></linearGradient><radialGradient id="grad19" gradientUnits="userSpaceOnUse" cx="2.5" cy="1.5" r="0.5"><stop offset="0%" stop-color="#333333" stop-opacity="0"/><stop offset="25%" stop-color="#333333" stop-opacity="0.03125"/><stop offset="50%" stop-color="#333333" stop-opacity="0.125"/><stop offset="75%" stop-color="#333333" stop-opacity="0.28125"/><stop offset="100%" stop-color="#333333" stop-opacity="0.5"/></radialGradient><radialGradient id="grad20" gradientUnits="userSpaceOnUse" cx="4.5" cy="1.5" r="0.5"><stop offset="0%" stop-color="#333333" stop-opacity="0"/><stop offset="25%" stop-color="#333333" stop-opacity="0.03125"/><stop offset="50%" stop-color="#333333" stop-opacity="0.125"/><stop offset="75%" stop-color="#333333" stop-opacity="0.28125"/><stop offset="100%" stop-color="#333333" stop-opacity="0.5"/></radialGradient><radialGradient id="grad21" gradientUnits="userSpaceOnUse" cx="4.5" cy="1.5" r="0.5"><stop offset="0%" stop-color="#333333" stop-opacity="0"/><stop offset="25%" stop-color="#333333" stop-opacity="0.03125"/><stop offset="50%" stop-color="#333333" stop-opacity="0.125"/><stop offset="75%" stop-color="#333333" stop-opacity="0.28125"/><stop offset="100%" stop-color="#333333" stop-opacity="0.5"/></radialGradient><radialGradient id="grad22" gradientUnits="userSpaceOnUse" cx="4" cy="2" r="0.5"><stop offset="0%" stop-color="#333333" stop-opacity="0.5"/><stop offset="25%" stop-color="#333333" stop-opacity="0.28125"/><stop offset="50%" stop-color="#333333" stop-opacity="0.125"/><stop offset="75%" stop-color="#333333" stop-opacity="0.03125"/><stop offset="100%" stop-color="#333333" stop-opacity="0"/></radialGradient><radialGradient id="grad23" gradientUnits="userSpaceOnUse" cx="3.5" cy="2.5" r="0.5"><stop offset="0%" stop-color="#333333" stop-opacity="0"/><stop offset="25%" stop-color="#333333" stop-opacity="0.03125"/><stop offset="50%" stop-color="#333333" stop-opacity="0.125"/><stop offset="75%" stop-color="#333333" stop-opacity="0.28125"/><stop offset="100%" stop-color="#333333" stop-opacity="0.5"/></radialGradient><radialGradient id="grad24" gradientUnits="userSpaceOnUse" cx="2.5" cy="2.5" r="0.5"><stop offset="0%" stop-color="#333333" stop-opacity="0"/><stop offset="25%" stop-color="#333333" stop-opacity="0.03125"/><stop offset="50%" stop-color="#333333" stop-opacity="0.125"/><stop offset="75%" stop-color="#333333" stop-opacity="0.28125"/><stop offset="100%" stop-color="#333333" stop-opacity="0.5"/></radialGradient><linearGradient id="grad25" gradientUnits="userSpaceOnUse" x1="1.5" y1="3" x2="1.5" y2="2.5"><stop offset="0%" stop-color="#333333" stop-opacity="0.5"/><stop offset="25%" stop-color="#333333" stop-opacity="0.28125"/><stop offset="50%" stop-color="#333333" stop-opacity="0.125"/><stop offset="75%" stop-color="#333333" stop-opacity="0.03125"/><stop offset="100%" stop-color="#333333" stop-opacity="0"/></linearGradient><linearGradient id="grad26" gradientUnits="userSpaceOnUse" x1="0" y1="2.5" x2="0.5" y2="2.5"><stop offset="0%" stop-color="#333333" stop-opacity="0.5"/><stop offset="25%" stop-color="#333333" stop-opacity="0.28125"/><stop offset="50%" stop-color="#333333" stop-opacity="0.125"/><stop offset="75%" stop-color="#333333" stop-opacity="0.03125"/><stop offset="100%" stop-color="#333333" stop-opacity="0"/></linearGradient><linearGradient id="grad27" gradientUnits="userSpaceOnUse" x1="0.5" y1="1" x2="0.5" y2="1.5"><stop offset="0%" stop-color="#333333" stop-opacity="0.5"/><stop offset="25%" stop-color="#333333" stop-opacity="0.28125"/><stop offset="50%" stop-color="#333333" stop-opacity="0.125"/><stop offset="75%" stop-color="#333333" stop-opacity="0.03125"/><stop offset="100%" stop-color="#333333" stop-opacity="0"/></linearGradient><linearGradient id="grad28" gradientUnits="userSpaceOnUse" x1="2" y1="1.5" x2="1.5" y2="1.5"><stop offset="0%" stop-color="#333333" stop-opacity="0.5"/><stop offset="25%" stop-color="#333333" stop-opacity="0.28125"/><stop offset="50%" stop-color="#333333" stop-opacity="0.125"/><stop offset="75%" stop-color="#333333" stop-opacity="0.03125"/><stop offset="100%" stop-color="#333333" stop-opacity="0"/></linearGradient><radialGradient id="grad29" gradientUnits="userSpaceOnUse" cx="1.5" cy="2.5" r="0.5"><stop offset="0%" stop-color="#333333" stop-opacity="0"/><stop offset="25%" stop-color="#333333" stop-opacity="0.03125"/><stop offset="50%" stop-color="#333333" stop-opacity="0.125"/><stop offset="75%" stop-color="#333333" stop-opacity="0.28125"/><stop offset="100%" stop-color="#333333" stop-opacity="0.5"/></radialGradient><radialGradient id="grad30" gradientUnits="userSpaceOnUse" cx="0.5" cy="2.5" r="0.5"><stop offset="0%" stop-color="#333333" stop-opacity="0"/><stop offset="25%" stop-color="#333333" stop-opacity="0.03125"/><stop offset="50%" stop-color="#333333" stop-opacity="0.125"/><stop offset="75%" stop-color="#333333" stop-opacity="0.28125"/><stop offset="100%" stop-color="#333333" stop-opacity="0.5"/></radialGradient><radialGradient id="grad31" gradientUnits="userSpaceOnUse" cx="0.5" cy="1.5" r="0.5"><stop offset="0%" stop-color="#333333" stop-opacity="0"/><stop offset="25%" stop-color="#333333" stop-opacity="0.03125"/><stop offset="50%" stop-color="#333333" stop-opacity="0.125"/><stop offset="75%" stop-color="#333333" stop-opacity="0.28125"/><stop offset="100%" stop-color="#333333" stop-opacity="0.5"/></radialGradient><radialGradient id="grad32" gradientUnits="userSpaceOnUse" cx="1.5" cy="1.5" r="0.5"><stop offset="0%" stop-color="#333333" stop-opacity="0"/><stop offset="25%" stop-color="#333333" stop-opacity="0.03125"/><stop offset="50%" stop-color="#333333" stop-opacity="0.125"/><stop offset="75%" stop-color="#333333" stop-opacity="0.28125"/><stop offset="100%" stop-color="#333333" stop-opacity="0.5"/></radialGradient><radialGradient id="grad33" gradientUnits="userSpaceOnUse" cx="4.5" cy="1" r="1"><stop offset="0%" stop-color="#FFFFFF"/><stop offset="20%" stop-color="#FFFFFF" stop-opacity="0.896"/><stop offset="40%" stop-color="#FFFFFF" stop-opacity="0.6479999999999999"/><stop offset="60%" stop-color="#FFFFFF" stop-opacity="0.352"/><stop offset="80%" stop-color="#FFFFFF" stop-opacity="0.10399999999999987"/><stop offset="100%" stop-color="#FFFFFF" stop-opacity="0"/></radialGradient><radialGradient id="grad34" gradientUnits="userSpaceOnUse" cx="2" cy="1.5" r="1"><stop offset="0%" stop-color="#FFFFFF"/><stop offset="20%" stop-color="#FFFFFF" stop-opacity="0.896"/><stop offset="40%" stop-color="#FFFFFF" stop-opacity="0.6479999999999999"/><stop offset="60%" stop-color="#FFFFFF" stop-opacity="0.352"/><stop offset="80%" stop-color="#FFFFFF" stop-opacity="0.10399999999999987"/><stop offset="100%" stop-color="#FFFFFF" stop-opacity="0"/></radialGradient><radialGradient id="grad35" gradientUnits="userSpaceOnUse" cx="7" cy="0" r="1.871"><stop offset="0%" stop-color="#FFFFFF" stop-opacity="0.4449944320643648"/><stop offset="20%" stop-color="#FFFFFF" stop-opacity="0.39871501112967084"/><stop offset="40%" stop-color="#FFFFFF" stop-opacity="0.28835639197770835"/><stop offset="60%" stop-color="#FFFFFF" stop-opacity="0.15663804008665638"/><stop offset="80%" stop-color="#FFFFFF" stop-opacity="0.04627942093469388"/><stop offset="100%" stop-color="#FFFFFF" stop-opacity="0"/></radialGradient><radialGradient id="grad36" gradientUnits="userSpaceOnUse" cx="4" cy="3" r="1.581"><stop offset="0%" stop-color="#FFFFFF" stop-opacity="0.43245553203367587"/><stop offset="20%" stop-color="#FFFFFF" stop-opacity="0.38748015670217356"/><stop offset="40%" stop-color="#FFFFFF" stop-opacity="0.28023118475782194"/><stop offset="60%" stop-color="#FFFFFF" stop-opacity="0.1522243472758539"/><stop offset="80%" stop-color="#FFFFFF" stop-opacity="0.04497537533150223"/><stop offset="100%" stop-color="#FFFFFF" stop-opacity="0"/></radialGradient><radialGradient id="grad37" gradientUnits="userSpaceOnUse" cx="0" cy="3" r="1.414"><stop offset="0%" stop-color="#FFFFFF" stop-opacity="0.42426406871192845"/><stop offset="20%" stop-color="#FFFFFF" stop-opacity="0.3801406055658879"/><stop offset="40%" stop-color="#FFFFFF" stop-opacity="0.2749231165253296"/><stop offset="60%" stop-color="#FFFFFF" stop-opacity="0.14934095218659882"/><stop offset="80%" stop-color="#FFFFFF" stop-opacity="0.04412346314604051"/><stop offset="100%" stop-color="#FFFFFF" stop-opacity="0"/></radialGradient><radialGradient id="grad38" gradientUnits="userSpaceOnUse" cx="7" cy="0" r="1.871"><stop offset="0%" stop-color="#E3BA47" stop-opacity="0.4449944320643648"/><stop offset="20%" stop-color="#E5B242" stop-opacity="0.39871501112967084"/><stop offset="40%" stop-color="#EC9E36" stop-opacity="0.28835639197770835"/><stop offset="60%" stop-color="#F3832B" stop-opacity="0.15663804008665638"/><stop offset="80%" stop-color="#F86A26" stop-opacity="0.04627942093469388"/><stop offset="100%" stop-color="#FA5F24" stop-opacity="0"/></radialGradient><radialGradient id="grad39" gradientUnits="userSpaceOnUse" cx="4" cy="3" r="1.581"><stop offset="0%" stop-color="#E3BA47" stop-opacity="0.43245553203367587"/><stop offset="20%" stop-color="#E5B242" stop-opacity="0.38748015670217356"/><stop offset="40%" stop-color="#EC9E36" stop-opacity="0.28023118475782194"/><stop offset="60%" stop-color="#F3832B" stop-opacity="0.1522243472758539"/><stop offset="80%" stop-color="#F86A26" stop-opacity="0.04497537533150223"/><stop offset="100%" stop-color="#FA5F24" stop-opacity="0"/></radialGradient><radialGradient id="grad40" gradientUnits="userSpaceOnUse" cx="0" cy="3" r="1.414"><stop offset="0%" stop-color="#E3BA47" stop-opacity="0.42426406871192845"/><stop offset="20%" stop-color="#E5B242" stop-opacity="0.3801406055658879"/><stop offset="40%" stop-color="#EC9E36" stop-opacity="0.2749231165253296"/><stop offset="60%" stop-color="#F3832B" stop-opacity="0.14934095218659882"/><stop offset="80%" stop-color="#F86A26" stop-opacity="0.04412346314604051"/><stop offset="100%" stop-color="#FA5F24" stop-opacity="0"/></radialGradient></defs></svg>