<?xml version="1.0" encoding="UTF-8" standalone="no"?><svg width="287.036" height="120.997" xmlns="http://www.w3.org/2000/svg" stroke-linejoin="round" stroke-linecap="round" fill-rule="evenodd" fill="none"><rect x="0" y="0" width="287.036" height="120.997" fill="#F2EDDE"/><g transform="translate(10 110.997)"><path d=" M 0,0"/><g><path d=" M 0,0"/><path d=" M 38.148,-103.491 L -3,-69.281 L 270.036,-69.281 L 228.888,-103.491 L 38.148,-103.491" fill="#BE8D73" stroke="#302F2C" stroke-width="1.152"/><path d=" M 0.593,-72.268 L 0.593,-70.573 M 0.593,-70.573 L 0.593,-69.281 M 4.185,-75.255 L 4.185,-70.078 M 4.185,-70.078 L 4.185,-69.281 M 7.778,-78.242 L 7.778,-73.351 M 7.778,-72.668 L 7.778,-70.962 M 7.778,-70.962 L 7.778,-69.281 M 11.37,-81.228 L 11.37,-79.638 M 11.37,-76.345 L 11.37,-74.33 M 11.37,-74.33 L 11.37,-69.281 M 14.963,-84.215 L 14.963,-77.29 M 14.963,-76.07 L 14.963,-74.49 M 14.963,-74.49 L 14.963,-69.281 M 18.555,-87.202 L 18.555,-81.77 M 18.555,-76.357 L 18.555,-73.894 M 18.555,-73.272 L 18.555,-69.281 M 22.148,-90.189 L 22.148,-82.814 M 22.148,-77.162 L 22.148,-70.577 M 22.148,-70.577 L 22.148,-69.281 M 25.741,-93.176 L 25.741,-92.402 M 25.741,-88.796 L 25.741,-79.586 M 25.741,-77.865 L 25.741,-77.705 M 25.741,-77.705 L 25.741,-69.281 M 29.333,-96.163 L 29.333,-89.27 M 29.333,-83.042 L 29.333,-82.544 M 29.333,-78.509 L 29.333,-76.587 M 29.333,-75.96 L 29.333,-69.281 M 32.926,-99.149 L 32.926,-98.932 M 32.926,-98.477 L 32.926,-91.914 M 32.926,-88.24 L 32.926,-87.312 M 32.926,-83.53 L 32.926,-81.352 M 32.926,-81.186 L 32.926,-78.639 M 32.926,-77.01 L 32.926,-69.281 M 36.518,-102.136 L 36.518,-98.697 M 36.518,-92.799 L 36.518,-86.709 M 36.518,-83.216 L 36.518,-82.865 M 36.518,-79.95 L 36.518,-69.281 M 40.111,-103.491 L 40.111,-97.359 M 40.111,-95.347 L 40.111,-94.842 M 40.111,-92.996 L 40.111,-90.832 M 40.111,-85.089 L 40.111,-80.901 M 40.111,-80.228 L 40.111,-74.845 M 40.111,-74.845 L 40.111,-69.281 M 43.704,-103.491 L 43.704,-99.378 M 43.704,-97.588 L 43.704,-94.122 M 43.704,-90.922 L 43.704,-83.326 M 43.704,-83.326 L 43.704,-69.281 M 47.296,-103.491 L 47.296,-98.774 M 47.296,-95.32 L 47.296,-92.009 M 47.296,-89.635 L 47.296,-82.856 M 47.296,-77.843 L 47.296,-76.304 M 47.296,-76.304 L 47.296,-69.281 M 50.889,-103.491 L 50.889,-101.677 M 50.889,-98.79 L 50.889,-93.857 M 50.889,-93.598 L 50.889,-88.935 M 50.889,-88.484 L 50.889,-69.281 M 54.481,-103.491 L 54.481,-101.691 M 54.481,-98.014 L 54.481,-92.748 M 54.481,-92.568 L 54.481,-83.729 M 54.481,-78.675 L 54.481,-73.241 M 54.481,-73.241 L 54.481,-69.281 M 58.074,-103.491 L 58.074,-98.651 M 58.074,-97.682 L 58.074,-94.355 M 58.074,-93.573 L 58.074,-91.906 M 58.074,-89.824 L 58.074,-87.829 M 58.074,-86.733 L 58.074,-81.872 M 58.074,-77.822 L 58.074,-69.281 M 61.666,-103.491 L 61.666,-100.246 M 61.666,-95.451 L 61.666,-90.661 M 61.666,-88.079 L 61.666,-87.886 M 61.666,-87.886 L 61.666,-69.281 M 65.259,-103.491 L 65.259,-101.984 M 65.259,-96.435 L 65.259,-87.567 M 65.259,-81.55 L 65.259,-79.297 M 65.259,-79.297 L 65.259,-69.281 M 68.852,-103.491 L 68.852,-100.211 M 68.852,-97.226 L 68.852,-92.125 M 68.852,-87.806 L 68.852,-87.091 M 68.852,-85.864 L 68.852,-82.178 M 68.852,-76.788 L 68.852,-73.489 M 68.852,-73.167 L 68.852,-71.523 M 68.852,-71.523 L 68.852,-69.281 M 72.444,-103.491 L 72.444,-102.84 M 72.444,-98.747 L 72.444,-95.927 M 72.444,-90.315 L 72.444,-87.07 M 72.444,-81.024 L 72.444,-75.313 M 72.444,-75.023 L 72.444,-69.281 M 76.037,-103.491 L 76.037,-95.311 M 76.037,-91.689 L 76.037,-83.037 M 76.037,-82.653 L 76.037,-80.556 M 76.037,-74.489 L 76.037,-72.595 M 76.037,-72.595 L 76.037,-69.281 M 79.629,-103.491 L 79.629,-103.044 M 79.629,-98.192 L 79.629,-95.485 M 79.629,-92.425 L 79.629,-91.92 M 79.629,-87.143 L 79.629,-85.914 M 79.629,-84.067 L 79.629,-81.436 M 79.629,-80.865 L 79.629,-80.418 M 79.629,-75.566 L 79.629,-72.859 M 79.629,-72.658 L 79.629,-69.281 M 83.222,-103.491 L 83.222,-99.634 M 83.222,-94.739 L 83.222,-86.479 M 83.222,-85.983 L 83.222,-83.672 M 83.222,-77.724 L 83.222,-76.79 M 83.222,-76.76 L 83.222,-73.496 M 83.222,-72.226 L 83.222,-69.281 M 86.814,-103.491 L 86.814,-99.217 M 86.814,-96.84 L 86.814,-89.075 M 86.814,-83.962 L 86.814,-75.988 M 86.814,-72.553 L 86.814,-72.531 M 86.814,-72.531 L 86.814,-69.281 M 90.407,-103.491 L 90.407,-101.115 M 90.407,-100.551 L 90.407,-99.456 M 90.407,-95.647 L 90.407,-88.77 M 90.407,-83.653 L 90.407,-82.927 M 90.407,-76.248 L 90.407,-71.209 M 90.407,-71.209 L 90.407,-69.281 M 94,-103.491 L 94,-96.394 M 94,-91.97 L 94,-86.566 M 94,-84.564 L 94,-82.465 M 94,-82.465 L 94,-69.281 M 97.592,-103.491 L 97.592,-100.843 M 97.592,-96.367 L 97.592,-93.524 M 97.592,-91.816 L 97.592,-88.593 M 97.592,-88.394 L 97.592,-86.044 M 97.592,-80.308 L 97.592,-72.575 M 97.592,-72.504 L 97.592,-69.281 M 101.185,-103.491 L 101.185,-99.553 M 101.185,-96.045 L 101.185,-92.748 M 101.185,-86.964 L 101.185,-85.214 M 101.185,-79.701 L 101.185,-73.92 M 101.185,-73.92 L 101.185,-69.281 M 104.777,-103.491 L 104.777,-94.777 M 104.777,-93.756 L 104.777,-89.986 M 104.777,-85.575 L 104.777,-84.757 M 104.777,-82.123 L 104.777,-76.493 M 104.777,-76.493 L 104.777,-69.281 M 108.37,-103.491 L 108.37,-96.157 M 108.37,-90.46 L 108.37,-84.857 M 108.37,-83.632 L 108.37,-82.408 M 108.37,-81.303 L 108.37,-80.534 M 108.37,-80.534 L 108.37,-69.281 M 111.963,-103.491 L 111.963,-100.251 M 111.963,-98.407 L 111.963,-91.177 M 111.963,-88.851 L 111.963,-69.281 M 115.555,-103.491 L 115.555,-103.445 M 115.555,-101.686 L 115.555,-99.952 M 115.555,-94.097 L 115.555,-91.494 M 115.555,-89.575 L 115.555,-81.401 M 115.555,-78.403 L 115.555,-77.854 M 115.555,-77.854 L 115.555,-69.281 M 119.148,-103.491 L 119.148,-101.329 M 119.148,-100.886 L 119.148,-99.671 M 119.148,-94.577 L 119.148,-85.932 M 119.148,-82.261 L 119.148,-69.281 M 122.74,-103.491 L 122.74,-101.846 M 122.74,-100.509 L 122.74,-99.955 M 122.74,-97.966 L 122.74,-96.635 M 122.74,-96.302 L 122.74,-94.947 M 122.74,-91.044 L 122.74,-84.512 M 122.74,-84.512 L 122.74,-69.281 M 126.333,-103.491 L 126.333,-103.233 M 126.333,-97.006 L 126.333,-96.331 M 126.333,-90.66 L 126.333,-90.178 M 126.333,-85.478 L 126.333,-78.518 M 126.333,-76.734 L 126.333,-70.303 M 126.333,-69.383 L 126.333,-69.367 M 126.333,-69.367 L 126.333,-69.281 M 129.925,-103.491 L 129.925,-97.419 M 129.925,-90.984 L 129.925,-87.857 M 129.925,-86.629 L 129.925,-83.665 M 129.925,-83.665 L 129.925,-69.281 M 133.518,-103.491 L 133.518,-96.776 M 133.518,-95.628 L 133.518,-95.261 M 133.518,-90.389 L 133.518,-84.055 M 133.518,-78.226 L 133.518,-77.73 M 133.518,-77.73 L 133.518,-69.281 M 137.111,-103.491 L 137.111,-100.937 M 137.111,-97.279 L 137.111,-94.73 M 137.111,-90.992 L 137.111,-87.069 M 137.111,-86.347 L 137.111,-81.076 M 137.111,-81.076 L 137.111,-69.281 M 140.703,-103.491 L 140.703,-95.037 M 140.703,-90.306 L 140.703,-85.044 M 140.703,-81.477 L 140.703,-80.598 M 140.703,-76.066 L 140.703,-71.916 M 140.703,-70.147 L 140.703,-69.281 M 144.296,-103.491 L 144.296,-102.782 M 144.296,-99.588 L 144.296,-99.524 M 144.296,-96.899 L 144.296,-91.81 M 144.296,-89.497 L 144.296,-85.429 M 144.296,-79.602 L 144.296,-75.219 M 144.296,-73.476 L 144.296,-72.767 M 144.296,-70.594 L 144.296,-69.281 M 147.888,-103.491 L 147.888,-101.206 M 147.888,-101.124 L 147.888,-99.603 M 147.888,-98.084 L 147.888,-94.658 M 147.888,-88.721 L 147.888,-82.338 M 147.888,-78.067 L 147.888,-75.979 M 147.888,-74.213 L 147.888,-69.281 M 151.481,-103.491 L 151.481,-94.328 M 151.481,-89.433 L 151.481,-88.402 M 151.481,-84.962 L 151.481,-84.885 M 151.481,-81.978 L 151.481,-77.32 M 151.481,-77.32 L 151.481,-69.281 M 155.073,-103.491 L 155.073,-98.318 M 155.073,-97.941 L 155.073,-93.898 M 155.073,-88.302 L 155.073,-84.796 M 155.073,-81.842 L 155.073,-73.674 M 155.073,-72.998 L 155.073,-69.281 M 158.666,-103.491 L 158.666,-99.136 M 158.666,-92.535 L 158.666,-85.186 M 158.666,-81.285 L 158.666,-77.476 M 158.666,-76.17 L 158.666,-69.281 M 162.259,-103.491 L 162.259,-95.217 M 162.259,-94.154 L 162.259,-91.156 M 162.259,-87.053 L 162.259,-80.479 M 162.259,-80.479 L 162.259,-69.281 M 165.851,-103.491 L 165.851,-97.757 M 165.851,-92.144 L 165.851,-87.216 M 165.851,-81.699 L 165.851,-74.286 M 165.851,-74.286 L 165.851,-69.281 M 169.444,-103.491 L 169.444,-101.02 M 169.444,-100.216 L 169.444,-95.094 M 169.444,-93.721 L 169.444,-85.077 M 169.444,-78.411 L 169.444,-78.065 M 169.444,-77.453 L 169.444,-69.281 M 173.036,-103.491 L 173.036,-95.65 M 173.036,-89.274 L 173.036,-82.312 M 173.036,-76.781 L 173.036,-72.965 M 173.036,-72.965 L 173.036,-69.281 M 176.629,-103.491 L 176.629,-96.581 M 176.629,-90.307 L 176.629,-87.727 M 176.629,-84.858 L 176.629,-83.251 M 176.629,-81.68 L 176.629,-78.263 M 176.629,-76.525 L 176.629,-69.281 M 180.222,-103.491 L 180.222,-94.568 M 180.222,-89.652 L 180.222,-86.621 M 180.222,-83.202 L 180.222,-81.294 M 180.222,-81.294 L 180.222,-69.281 M 183.814,-103.491 L 183.814,-96.616 M 183.814,-93.728 L 183.814,-85.91 M 183.814,-85.795 L 183.814,-83.908 M 183.814,-83.908 L 183.814,-69.281 M 187.407,-103.491 L 187.407,-96.729 M 187.407,-90.028 L 187.407,-85.132 M 187.407,-81.08 L 187.407,-69.281 M 190.999,-103.491 L 190.999,-97.601 M 190.999,-96.327 L 190.999,-88.43 M 190.999,-85.193 L 190.999,-84.847 M 190.999,-80.476 L 190.999,-79.234 M 190.999,-74.419 L 190.999,-74.049 M 190.999,-74.049 L 190.999,-69.281 M 194.592,-103.491 L 194.592,-94.448 M 194.592,-89.337 L 194.592,-85.499 M 194.592,-80.829 L 194.592,-78.662 M 194.592,-76.234 L 194.592,-69.281 M 198.184,-103.491 L 198.184,-95.791 M 198.184,-90.767 L 198.184,-86.943 M 198.184,-80.506 L 198.184,-75.512 M 198.184,-75.512 L 198.184,-69.281 M 201.777,-103.491 L 201.777,-101.277 M 201.777,-97.745 L 201.777,-90.531 M 201.777,-87.609 L 201.777,-83.616 M 201.777,-80.733 L 201.777,-69.281 M 205.37,-103.491 L 205.37,-100.292 M 205.37,-97.182 L 205.37,-92.594 M 205.37,-91.621 L 205.37,-86.633 M 205.37,-86.378 L 205.37,-77.345 M 205.37,-76.835 L 205.37,-75.421 M 205.37,-70.966 L 205.37,-70.353 M 205.37,-70.353 L 205.37,-69.281 M 208.962,-103.491 L 208.962,-98.168 M 208.962,-97.347 L 208.962,-96.7 M 208.962,-90.011 L 208.962,-85.803 M 208.962,-84.364 L 208.962,-81.421 M 208.962,-76.028 L 208.962,-70.586 M 208.962,-70.586 L 208.962,-69.281 M 212.555,-103.491 L 212.555,-99.389 M 212.555,-94.235 L 212.555,-92.288 M 212.555,-92.288 L 212.555,-69.281 M 216.147,-103.491 L 216.147,-103.027 M 216.147,-101.584 L 216.147,-100.169 M 216.147,-96.209 L 216.147,-69.281 M 219.74,-103.491 L 219.74,-97.342 M 219.74,-92.707 L 219.74,-85.469 M 219.74,-83.111 L 219.74,-81.219 M 219.74,-75.764 L 219.74,-73.086 M 219.74,-69.616 L 219.74,-69.281 M 223.332,-103.491 L 223.332,-95.873 M 223.332,-93.94 L 223.332,-91.181 M 223.332,-85.722 L 223.332,-83.44 M 223.332,-79.952 L 223.332,-69.281 M 226.925,-103.491 L 226.925,-99.816 M 226.925,-95.285 L 226.925,-87.656 M 226.925,-81.029 L 226.925,-74.278 M 226.925,-72.42 L 226.925,-69.281 M 230.518,-102.136 L 230.518,-94.471 M 230.518,-88.385 L 230.518,-86.308 M 230.518,-80.661 L 230.518,-71.782 M 230.518,-69.968 L 230.518,-69.281 M 234.11,-99.149 L 234.11,-94.958 M 234.11,-93.643 L 234.11,-89.254 M 234.11,-86.019 L 234.11,-81.432 M 234.11,-81.42 L 234.11,-73.378 M 234.11,-73.378 L 234.11,-69.281 M 237.703,-96.163 L 237.703,-91.467 M 237.703,-91.196 L 237.703,-87.477 M 237.703,-86.077 L 237.703,-85.634 M 237.703,-85.634 L 237.703,-69.281 M 241.295,-93.176 L 241.295,-93.135 M 241.295,-91.205 L 241.295,-88.237 M 241.295,-81.984 L 241.295,-74.542 M 241.295,-74.542 L 241.295,-69.281 M 244.888,-90.189 L 244.888,-86.587 M 244.888,-82.919 L 244.888,-79.482 M 244.888,-75.322 L 244.888,-74.738 M 244.888,-72.038 L 244.888,-69.532 M 244.888,-69.532 L 244.888,-69.281 M 248.481,-87.202 L 248.481,-78.765 M 248.481,-73.452 L 248.481,-72.415 M 248.481,-72.415 L 248.481,-69.281 M 252.073,-84.215 L 252.073,-83.047 M 252.073,-79.882 L 252.073,-76.842 M 252.073,-72.857 L 252.073,-72.792 M 252.073,-72.792 L 252.073,-69.281 M 255.666,-81.228 L 255.666,-74.859 M 255.666,-73.366 L 255.666,-70.65 M 255.666,-70.174 L 255.666,-69.281 M 259.258,-78.242 L 259.258,-76.047 M 259.258,-72.3 L 259.258,-71.351 M 259.258,-71.351 L 259.258,-69.281 M 262.851,-75.255 L 262.851,-70.455 M 262.851,-70.455 L 262.851,-69.281 M 266.443,-72.268 L 266.443,-69.716 M 266.443,-69.716 L 266.443,-69.281" stroke="#302F2C" stroke-width="1.152"/><path d=" M 0,0 L 0,-66.281 L -1.5,-69.281 L 268.536,-69.281 L 267.036,-66.281 L 267.036,0" fill="#F2EDDE" stroke="#302F2C" stroke-width="1.152"/><path d=" M -2.919,0 L 269.955,0 L 269.955,-22.099 L -2.919,-22.099 L -2.919,0" fill="#E7DABE" stroke="#302F2C" stroke-width="1.152"/><path d=" M 0,-22.099 L -2.919,-22.099 L -2.919,0 L 269.955,0 L 269.955,-22.099 L 267.036,-22.099" stroke="#302F2C" stroke-width="1.152" stroke-linejoin="round" stroke-linecap="square"/><path d=" M 2.304,-22.099 L 264.732,-22.099" stroke="#302F2C" stroke-width="1.152"/><g transform="translate(165.037 -92.088)"><path d=" M 0,0"/><path d=" M -5.44,4.523 L -5.44,-10.11 L -6.776,-10.11 L -6.776,-14.766 L 6.776,-14.766 L 6.776,-10.11 L 5.44,-10.11 L 5.44,4.523" fill="#F2EDDE" stroke="#302F2C" stroke-width="1.152"/><path d=" M -3.264,-10.11 L 3.264,-10.11" stroke="#302F2C" stroke-width="1.152"/></g><g transform="translate(209.814 -39.15)"><path d=" M 0,0"/><path d=" M -6.28,-9.331 L 6.28,-9.331 L 6.28,9.331 L -6.28,9.331 L -6.28,-9.331" fill="#F2EDDE" stroke="#302F2C" stroke-width="1.152"/><path d=" M -3.502,-6.553 L 3.502,-6.553 L 3.502,6.553 L -3.502,6.553 L -3.502,-6.553" fill="#302F2C" stroke="#302F2C" stroke-width="1.152"/><path d=" M 0,-6.553 L 0,6.553 M -3.502,0 L 3.502,0" stroke="#F2EDDE" stroke-width="1.152"/><path d=" M -3.502,-6.553 L 3.502,-6.553 L 3.502,6.553 L -3.502,6.553 L -3.502,-6.553" stroke="#302F2C" stroke-width="1.152"/></g><g transform="translate(247.962 -39.15)"><path d=" M 0,0"/><path d=" M -6.28,-9.331 L 6.28,-9.331 L 6.28,9.331 L -6.28,9.331 L -6.28,-9.331" fill="#F2EDDE" stroke="#302F2C" stroke-width="1.152"/><path d=" M -3.502,-6.553 L 3.502,-6.553 L 3.502,6.553 L -3.502,6.553 L -3.502,-6.553" fill="#302F2C" stroke="#302F2C" stroke-width="1.152"/><path d=" M 0,-6.553 L 0,6.553 M -3.502,0 L 3.502,0" stroke="#F2EDDE" stroke-width="1.152"/><path d=" M -3.502,-6.553 L 3.502,-6.553 L 3.502,6.553 L -3.502,6.553 L -3.502,-6.553" stroke="#302F2C" stroke-width="1.152"/></g></g><g><path d=" M 0,0"/><path d=" M -4.888,-0.067 L -3.744,0.067 L -3.649,-1.661 L -3.576,-2.61 L -3.491,-3.364 L -3.35,-4.31 L -3.053,-6.024 L -3.426,-6.113 L -3.935,-4.443 L -4.198,-3.502 L -4.382,-2.739 L -4.578,-1.782 L -4.888,-0.067" fill="#302F2C"/><path d=" M -6.708,0.029 L -5.557,-0.029 L -5.779,-2.301 L -5.914,-3.567 L -6.038,-4.579 L -6.211,-5.839 L -6.545,-8.098 L -6.927,-8.06 L -6.809,-5.782 L -6.756,-4.52 L -6.728,-3.512 L -6.713,-2.25 L -6.708,0.029" fill="#302F2C"/><path d=" M -9.248,0.108 L -8.116,-0.108 L -8.539,-1.756 L -8.811,-2.677 L -9.072,-3.406 L -9.447,-4.29 L -10.174,-5.842 L -10.532,-5.701 L -10.01,-4.08 L -9.76,-3.186 L -9.603,-2.472 L -9.456,-1.564 L -9.248,0.108" fill="#302F2C"/><path d=" M -16.458,0.148 L -15.345,-0.148 L -16.152,-2.762 L -16.681,-4.206 L -17.198,-5.334 L -17.949,-6.686 L -19.419,-9.042 L -19.752,-8.851 L -18.479,-6.401 L -17.855,-5.033 L -17.45,-3.924 L -17.052,-2.497 L -16.458,0.148" fill="#302F2C"/><path d=" M -25.482,0.155 L -24.373,-0.155 L -24.951,-1.826 L -25.328,-2.755 L -25.693,-3.479 L -26.218,-4.338 L -27.236,-5.817 L -27.565,-5.619 L -26.743,-4.041 L -26.345,-3.166 L -26.092,-2.461 L -25.847,-1.55 L -25.482,0.155" fill="#302F2C"/><path d=" M -31.31,0.283 L -30.307,-0.283 L -31.925,-2.936 L -32.987,-4.334 L -34.016,-5.326 L -35.489,-6.374 L -38.34,-8.024 L -38.544,-7.699 L -35.836,-5.873 L -34.502,-4.779 L -33.623,-3.806 L -32.721,-2.432 L -31.31,0.283" fill="#302F2C"/><path d=" M -45.545,0.217 L -44.478,-0.217 L -45.412,-2.229 L -46.028,-3.328 L -46.627,-4.156 L -47.487,-5.098 L -49.154,-6.67 L -49.431,-6.404 L -47.939,-4.694 L -47.211,-3.724 L -46.74,-2.918 L -46.268,-1.842 L -45.545,0.217" fill="#302F2C"/><path d=" M 270.203,-0.036 L 271.353,0.036 L 271.389,-2.248 L 271.425,-3.512 L 271.473,-4.52 L 271.557,-5.784 L 271.738,-8.065 L 271.357,-8.113 L 270.961,-5.855 L 270.757,-4.595 L 270.612,-3.581 L 270.456,-2.313 L 270.203,-0.036" fill="#302F2C"/><path d=" M 275.882,-0.115 L 277.01,0.115 L 277.206,-1.384 L 277.344,-2.195 L 277.492,-2.831 L 277.73,-3.628 L 278.226,-5.076 L 277.872,-5.226 L 277.171,-3.852 L 276.81,-3.066 L 276.557,-2.414 L 276.292,-1.59 L 275.882,-0.115" fill="#302F2C"/><path d=" M 283.945,-0.223 L 285.007,0.223 L 285.928,-2.25 L 286.53,-3.543 L 287.127,-4.509 L 288.042,-5.661 L 289.908,-7.679 L 289.637,-7.951 L 287.598,-6.074 L 286.55,-4.951 L 285.823,-3.963 L 285.077,-2.647 L 283.945,-0.223" fill="#302F2C"/><path d=" M 291.559,-0.246 L 292.601,0.246 L 293.169,-1.207 L 293.534,-1.947 L 293.896,-2.489 L 294.464,-3.137 L 295.647,-4.277 L 295.4,-4.571 L 294.055,-3.585 L 293.35,-2.972 L 292.851,-2.409 L 292.337,-1.645 L 291.559,-0.246" fill="#302F2C"/><path d=" M -57.222,0 L -53.712,0 M -51.479,0 L -46.286,0 M -45.826,0 L -41.695,0 M -39.582,0 L -36.148,0 M -34.01,0 L -32.535,0 M -25.06,0 L -21.55,0 M -19.317,0 L -14.124,0 M -13.664,0 L -9.533,0 M -7.42,0 L -3.986,0 M -1.848,0 L -0.373,0 M 7.102,0 L 10.612,0 M 12.845,0 L 18.038,0 M 18.498,0 L 22.629,0 M 24.742,0 L 28.176,0 M 30.314,0 L 31.79,0 M 39.265,0 L 42.774,0 M 45.007,0 L 50.201,0 M 50.661,0 L 54.791,0 M 56.905,0 L 60.339,0 M 62.477,0 L 63.952,0 M 71.427,0 L 74.936,0 M 77.17,0 L 82.363,0 M 82.823,0 L 86.954,0 M 89.067,0 L 92.501,0 M 94.639,0 L 96.114,0 M 103.589,0 L 107.099,0 M 109.332,0 L 114.525,0 M 114.985,0 L 119.116,0 M 121.229,0 L 124.663,0 M 126.801,0 L 128.276,0 M 135.751,0 L 139.261,0 M 141.494,0 L 146.687,0 M 147.147,0 L 151.278,0 M 153.391,0 L 156.825,0 M 158.963,0 L 160.438,0 M 167.913,0 L 171.423,0 M 173.656,0 L 178.849,0 M 179.309,0 L 183.44,0 M 185.553,0 L 188.987,0 M 191.125,0 L 192.6,0 M 200.076,0 L 203.585,0 M 205.818,0 L 211.012,0 M 211.472,0 L 215.602,0 M 217.716,0 L 221.15,0 M 223.288,0 L 224.763,0 M 232.238,0 L 235.747,0 M 237.981,0 L 243.174,0 M 243.634,0 L 247.765,0 M 249.878,0 L 253.312,0 M 255.45,0 L 256.925,0 M 264.4,0 L 267.91,0 M 270.143,0 L 275.336,0 M 275.796,0 L 279.927,0 M 282.04,0 L 285.474,0 M 287.612,0 L 289.087,0 M 296.562,0 L 300.072,0 M 302.305,0 L 307.498,0 M 307.958,0 L 312.089,0 M 314.202,0 L 317.636,0 M 319.774,0 L 321.249,0 M -19.074,0 L 286.11,0" stroke="#302F2C" stroke-width="1.152"/></g><g><path d=" M 0,0"/><path d=" M 38.148,-103.491 L -3,-69.281 L 193.74,-69.281 L 152.592,-103.491 L 38.148,-103.491" fill="#B27559" stroke="#000000" stroke-width="1.152"/><path d=" M 0.577,-72.255 L 0.577,-69.324 M 0.577,-69.324 L 0.577,-69.281 M 4.154,-75.229 L 4.154,-70.391 M 4.154,-70.391 L 4.154,-69.281 M 7.731,-78.203 L 7.731,-73.604 M 7.731,-71.508 L 7.731,-69.281 M 11.308,-81.177 L 11.308,-80.458 M 11.308,-78.215 L 11.308,-72.742 M 11.308,-72.742 L 11.308,-69.281 M 14.885,-84.151 L 14.885,-78.044 M 14.885,-72.413 L 14.885,-69.694 M 14.885,-69.694 L 14.885,-69.281 M 18.463,-87.125 L 18.463,-87.023 M 18.463,-84.248 L 18.463,-80.811 M 18.463,-79.797 L 18.463,-74.566 M 18.463,-71.831 L 18.463,-69.281 M 22.04,-90.099 L 22.04,-87.631 M 22.04,-81.377 L 22.04,-81.167 M 22.04,-78.096 L 22.04,-76.594 M 22.04,-76.594 L 22.04,-69.281 M 25.617,-93.073 L 25.617,-89.296 M 25.617,-83.103 L 25.617,-81.204 M 25.617,-76.457 L 25.617,-72.383 M 25.617,-72.383 L 25.617,-69.281 M 29.194,-96.047 L 29.194,-91.483 M 29.194,-86.424 L 29.194,-79.551 M 29.194,-79.551 L 29.194,-69.281 M 32.771,-99.021 L 32.771,-95.777 M 32.771,-90.733 L 32.771,-82.882 M 32.771,-81.643 L 32.771,-80.043 M 32.771,-78.636 L 32.771,-69.281 M 36.348,-101.995 L 36.348,-101.246 M 36.348,-94.796 L 36.348,-87.987 M 36.348,-86.26 L 36.348,-85.232 M 36.348,-78.584 L 36.348,-74.008 M 36.348,-74.008 L 36.348,-69.281 M 39.925,-103.491 L 39.925,-95.119 M 39.925,-92.503 L 39.925,-88.038 M 39.925,-84.066 L 39.925,-79.193 M 39.925,-79.193 L 39.925,-69.281 M 43.502,-103.491 L 43.502,-101.886 M 43.502,-101.765 L 43.502,-97.662 M 43.502,-93.164 L 43.502,-91.737 M 43.502,-91.426 L 43.502,-90.677 M 43.502,-89.496 L 43.502,-82.365 M 43.502,-80.612 L 43.502,-79.006 M 43.502,-78.886 L 43.502,-77.25 M 43.502,-77.25 L 43.502,-69.281 M 47.079,-103.491 L 47.079,-96.478 M 47.079,-95.629 L 47.079,-89.73 M 47.079,-85.552 L 47.079,-78.309 M 47.079,-76.74 L 47.079,-69.281 M 50.656,-103.491 L 50.656,-98.093 M 50.656,-97.81 L 50.656,-95.218 M 50.656,-91.471 L 50.656,-83.828 M 50.656,-80.858 L 50.656,-77.763 M 50.656,-75.689 L 50.656,-71.671 M 50.656,-71.671 L 50.656,-69.281 M 54.233,-103.491 L 54.233,-96.181 M 54.233,-90.628 L 54.233,-85.733 M 54.233,-85.733 L 54.233,-69.281 M 57.811,-103.491 L 57.811,-94.544 M 57.811,-92.726 L 57.811,-87.962 M 57.811,-87.962 L 57.811,-69.281 M 61.388,-103.491 L 61.388,-96.627 M 61.388,-90.373 L 61.388,-87.517 M 61.388,-82.641 L 61.388,-69.281 M 64.965,-103.491 L 64.965,-97.855 M 64.965,-96.062 L 64.965,-90.898 M 64.965,-88.631 L 64.965,-81.814 M 64.965,-75.536 L 64.965,-75.321 M 64.965,-71.831 L 64.965,-69.281 M 68.542,-103.491 L 68.542,-101.168 M 68.542,-95.476 L 68.542,-87.589 M 68.542,-84.188 L 68.542,-81.829 M 68.542,-79.943 L 68.542,-74.222 M 68.542,-72.791 L 68.542,-69.281 M 72.119,-103.491 L 72.119,-103.426 M 72.119,-99.093 L 72.119,-98.126 M 72.119,-95.012 L 72.119,-88.087 M 72.119,-84.283 L 72.119,-81.598 M 72.119,-81.598 L 72.119,-69.281 M 75.696,-103.491 L 75.696,-101.83 M 75.696,-97.209 L 75.696,-97.112 M 75.696,-95.679 L 75.696,-94.586 M 75.696,-89.129 L 75.696,-80.698 M 75.696,-80.553 L 75.696,-76.119 M 75.696,-72.127 L 75.696,-71.655 M 75.696,-71.655 L 75.696,-69.281 M 79.273,-103.491 L 79.273,-97.596 M 79.273,-90.916 L 79.273,-87.415 M 79.273,-85.713 L 79.273,-82.328 M 79.273,-79.814 L 79.273,-69.281 M 82.85,-103.491 L 82.85,-95.898 M 82.85,-94.268 L 82.85,-90.556 M 82.85,-83.947 L 82.85,-77.667 M 82.85,-75.75 L 82.85,-69.281 M 86.427,-103.491 L 86.427,-95.941 M 86.427,-91.058 L 86.427,-82.278 M 86.427,-80.579 L 86.427,-72.919 M 86.427,-72.008 L 86.427,-69.281 M 90.004,-103.491 L 90.004,-95.76 M 90.004,-89.574 L 90.004,-80.878 M 90.004,-79.129 L 90.004,-77.059 M 90.004,-77.059 L 90.004,-69.281 M 93.581,-103.491 L 93.581,-103.392 M 93.581,-101.929 L 93.581,-93.846 M 93.581,-91.341 L 93.581,-84.908 M 93.581,-80.195 L 93.581,-76.467 M 93.581,-76.467 L 93.581,-69.281 M 97.159,-103.491 L 97.159,-102.879 M 97.159,-98.407 L 97.159,-93.975 M 97.159,-88.003 L 97.159,-86.851 M 97.159,-86.851 L 97.159,-69.281 M 100.736,-103.491 L 100.736,-101.137 M 100.736,-100.224 L 100.736,-91.585 M 100.736,-89.859 L 100.736,-86.262 M 100.736,-81.8 L 100.736,-73.012 M 100.736,-72.749 L 100.736,-69.281 M 104.313,-103.491 L 104.313,-103.44 M 104.313,-98.306 L 104.313,-98.215 M 104.313,-98.158 L 104.313,-96.579 M 104.313,-96.579 L 104.313,-69.281 M 107.89,-103.491 L 107.89,-99.226 M 107.89,-95.995 L 107.89,-95.141 M 107.89,-93.94 L 107.89,-90.983 M 107.89,-88.798 L 107.89,-85.41 M 107.89,-79.633 L 107.89,-76.047 M 107.89,-76.047 L 107.89,-69.281 M 111.467,-103.491 L 111.467,-94.533 M 111.467,-89.152 L 111.467,-84.585 M 111.467,-83.189 L 111.467,-69.281 M 115.044,-103.491 L 115.044,-102.999 M 115.044,-101.526 L 115.044,-98.534 M 115.044,-97.141 L 115.044,-97.122 M 115.044,-93.35 L 115.044,-85.127 M 115.044,-79.407 L 115.044,-75.086 M 115.044,-72.099 L 115.044,-71.607 M 115.044,-70.471 L 115.044,-69.281 M 118.621,-103.491 L 118.621,-97.364 M 118.621,-94.143 L 118.621,-90.952 M 118.621,-87.763 L 118.621,-83.301 M 118.621,-82.676 L 118.621,-69.281 M 122.198,-103.491 L 122.198,-96.994 M 122.198,-93.782 L 122.198,-85.242 M 122.198,-80.664 L 122.198,-75.396 M 122.198,-74.814 L 122.198,-69.281 M 125.775,-103.491 L 125.775,-97.806 M 125.775,-91.678 L 125.775,-85.214 M 125.775,-80.264 L 125.775,-69.281 M 129.352,-103.491 L 129.352,-100.442 M 129.352,-99.236 L 129.352,-94.756 M 129.352,-92.841 L 129.352,-83.681 M 129.352,-82.412 L 129.352,-76.644 M 129.352,-75.526 L 129.352,-72.736 M 129.352,-72.736 L 129.352,-69.281 M 132.929,-103.491 L 132.929,-98.637 M 132.929,-96.925 L 132.929,-94.234 M 132.929,-88.1 L 132.929,-86.494 M 132.929,-85.549 L 132.929,-79.522 M 132.929,-77.937 L 132.929,-69.281 M 136.507,-103.491 L 136.507,-99.64 M 136.507,-95.005 L 136.507,-85.775 M 136.507,-79.344 L 136.507,-73.095 M 136.507,-73.095 L 136.507,-69.281 M 140.084,-103.491 L 140.084,-102.06 M 140.084,-97.976 L 140.084,-88.671 M 140.084,-88.513 L 140.084,-88.225 M 140.084,-87.849 L 140.084,-82.666 M 140.084,-79.698 L 140.084,-79.692 M 140.084,-79.692 L 140.084,-69.281 M 143.661,-103.491 L 143.661,-102.047 M 143.661,-95.509 L 143.661,-88.345 M 143.661,-82.106 L 143.661,-77.652 M 143.661,-77.206 L 143.661,-69.281 M 147.238,-103.491 L 147.238,-101.012 M 147.238,-95.377 L 147.238,-93.148 M 147.238,-89.202 L 147.238,-69.281 M 150.815,-103.491 L 150.815,-102.404 M 150.815,-96.587 L 150.815,-92.826 M 150.815,-87.461 L 150.815,-81.378 M 150.815,-76.714 L 150.815,-69.281 M 154.392,-101.995 L 154.392,-97.571 M 154.392,-91.559 L 154.392,-84.394 M 154.392,-83.425 L 154.392,-79.361 M 154.392,-72.991 L 154.392,-72.432 M 154.392,-71.667 L 154.392,-70.47 M 154.392,-70.47 L 154.392,-69.281 M 157.969,-99.021 L 157.969,-92.073 M 157.969,-85.768 L 157.969,-78.739 M 157.969,-78.641 L 157.969,-69.281 M 161.546,-96.047 L 161.546,-87.825 M 161.546,-83.557 L 161.546,-76.993 M 161.546,-72.257 L 161.546,-69.281 M 165.123,-93.073 L 165.123,-88.357 M 165.123,-84.203 L 165.123,-82.664 M 165.123,-77.377 L 165.123,-73.538 M 165.123,-72.972 L 165.123,-69.281 M 168.7,-90.099 L 168.7,-86.076 M 168.7,-85.586 L 168.7,-78.842 M 168.7,-76.279 L 168.7,-69.281 M 172.277,-87.125 L 172.277,-83.401 M 172.277,-78.049 L 172.277,-72.354 M 172.277,-72.354 L 172.277,-69.281 M 175.855,-84.151 L 175.855,-82.407 M 175.855,-76.951 L 175.855,-74.872 M 175.855,-69.879 L 175.855,-69.708 M 175.855,-69.708 L 175.855,-69.281 M 179.432,-81.177 L 179.432,-75.127 M 179.432,-71.811 L 179.432,-70.419 M 179.432,-70.419 L 179.432,-69.281 M 183.009,-78.203 L 183.009,-69.963 M 183.009,-69.583 L 183.009,-69.332 M 183.009,-69.332 L 183.009,-69.281 M 186.586,-75.229 L 186.586,-74.322 M 186.586,-71.151 L 186.586,-70.06 M 186.586,-70.06 L 186.586,-69.281 M 190.163,-72.255 L 190.163,-70.464 M 190.163,-70.464 L 190.163,-69.281" stroke="#000000" stroke-width="1.152"/><path d=" M 0,0 L 0,-66.281 L -1.5,-69.281 L 192.24,-69.281 L 190.74,-66.281 L 190.74,0" fill="#F2EDDE" stroke="#000000" stroke-width="1.152"/><path d=" M -2.919,0 L 193.659,0 L 193.659,-22.099 L -2.919,-22.099 L -2.919,0" fill="#E5D6B7" stroke="#000000" stroke-width="1.152"/><path d=" M 0,-22.099 L -2.919,-22.099 L -2.919,0 L 193.659,0 L 193.659,-22.099 L 190.74,-22.099" stroke="#000000" stroke-width="1.152" stroke-linejoin="round" stroke-linecap="square"/><path d=" M 2.304,-22.099 L 188.436,-22.099" stroke="#000000" stroke-width="1.152"/><g transform="translate(19.074 -39.15)"><path d=" M 0,0"/><path d=" M -6.28,-9.331 L 6.28,-9.331 L 6.28,9.331 L -6.28,9.331 L -6.28,-9.331" fill="#F2EDDE" stroke="#000000" stroke-width="1.152"/><path d=" M -3.502,-6.553 L 3.502,-6.553 L 3.502,6.553 L -3.502,6.553 L -3.502,-6.553" fill="#000000" stroke="#000000" stroke-width="1.152"/><path d=" M 0,-6.553 L 0,6.553 M -3.502,0 L 3.502,0" stroke="#F2EDDE" stroke-width="1.152"/><path d=" M -3.502,-6.553 L 3.502,-6.553 L 3.502,6.553 L -3.502,6.553 L -3.502,-6.553" stroke="#000000" stroke-width="1.152"/></g><g transform="translate(57.222 -39.15)"><path d=" M 0,0"/><path d=" M -6.28,-9.331 L 6.28,-9.331 L 6.28,9.331 L -6.28,9.331 L -6.28,-9.331" fill="#F2EDDE" stroke="#000000" stroke-width="1.152"/><path d=" M -3.502,-6.553 L 3.502,-6.553 L 3.502,6.553 L -3.502,6.553 L -3.502,-6.553" fill="#000000" stroke="#000000" stroke-width="1.152"/><path d=" M 0,-6.553 L 0,6.553 M -3.502,0 L 3.502,0" stroke="#F2EDDE" stroke-width="1.152"/><path d=" M -3.502,-6.553 L 3.502,-6.553 L 3.502,6.553 L -3.502,6.553 L -3.502,-6.553" stroke="#000000" stroke-width="1.152"/></g><g transform="translate(95.37 -39.15)"><path d=" M 0,0"/><path d=" M -6.28,-9.331 L 6.28,-9.331 L 6.28,9.331 L -6.28,9.331 L -6.28,-9.331" fill="#F2EDDE" stroke="#000000" stroke-width="1.152"/><path d=" M -3.502,-6.553 L 3.502,-6.553 L 3.502,6.553 L -3.502,6.553 L -3.502,-6.553" fill="#000000" stroke="#000000" stroke-width="1.152"/><path d=" M 0,-6.553 L 0,6.553 M -3.502,0 L 3.502,0" stroke="#F2EDDE" stroke-width="1.152"/><path d=" M -3.502,-6.553 L 3.502,-6.553 L 3.502,6.553 L -3.502,6.553 L -3.502,-6.553" stroke="#000000" stroke-width="1.152"/></g><g transform="translate(171.666 -39.15)"><path d=" M 0,0"/><path d=" M -6.28,-9.331 L 6.28,-9.331 L 6.28,9.331 L -6.28,9.331 L -6.28,-9.331" fill="#F2EDDE" stroke="#000000" stroke-width="1.152"/><path d=" M -3.502,-6.553 L 3.502,-6.553 L 3.502,6.553 L -3.502,6.553 L -3.502,-6.553" fill="#000000" stroke="#000000" stroke-width="1.152"/><path d=" M 0,-6.553 L 0,6.553 M -3.502,0 L 3.502,0" stroke="#F2EDDE" stroke-width="1.152"/><path d=" M -3.502,-6.553 L 3.502,-6.553 L 3.502,6.553 L -3.502,6.553 L -3.502,-6.553" stroke="#000000" stroke-width="1.152"/></g><g transform="translate(133.518 -9.018)"><path d=" M 0,0"/><path d=" M -19.074,-44.393 L 19.074,-44.393 L 19.074,-52.322 L -19.074,-52.322 L -19.074,-44.393" fill="#B27559" stroke="#000000" stroke-width="1.152"/><path d=" M -15.606,-44.393 L -15.606,-44.726 M -15.606,-44.726 L -15.606,-51.709 M -15.606,-51.771 L -15.606,-52.322 M -12.138,-44.393 L -12.138,-46.225 M -12.138,-46.225 L -12.138,-52.322 M -8.67,-44.393 L -8.67,-47.81 M -8.67,-47.81 L -8.67,-51.811 M -5.202,-44.393 L -5.202,-45.71 M -5.202,-45.71 L -5.202,-46.74 M -5.202,-47.996 L -5.202,-52.322 M -1.734,-44.393 L -1.734,-46.804 M -1.734,-46.804 L -1.734,-52.322 M 1.734,-44.393 L 1.734,-45.97 M 1.734,-45.97 L 1.734,-51.59 M 5.202,-44.393 L 5.202,-47.854 M 5.202,-47.854 L 5.202,-52.322 M 8.67,-44.393 L 8.67,-44.801 M 8.67,-44.801 L 8.67,-46.424 M 8.67,-49.353 L 8.67,-52.322 M 12.138,-44.393 L 12.138,-44.831 M 12.138,-44.831 L 12.138,-52.322 M 15.606,-44.393 L 15.606,-48.49 M 15.606,-48.49 L 15.606,-51.717" stroke="#000000" stroke-width="1.152"/><path d=" M -16.608,-44.393 L -16.608,-40.393 M 16.608,-44.393 L 16.608,-40.393" stroke="#000000" stroke-width="1.152"/><g transform="translate(-17.618 -22.879)"><path d=" M 0,0"/><path d=" M -2.234,0 L 2.234,0 L 2.912,-8.95 L -2.912,-8.95" fill="#F2EDDE"/><path d=" M -2.234,0 L 2.234,0" stroke="#000000" stroke-width="1.152"/><path d=" M 0,-11.377 L 2.912,-8.95 L -2.912,-8.95" fill="#000000" stroke="#000000" stroke-width="1.152"/><path d=" M -2.234,0 L -2.912,-8.95 M 2.234,0 L 2.912,-8.95 M 0,0 L 0,-8.95 M 0,-11.377 L 0,-13.805" stroke="#000000" stroke-width="1.152"/></g><g transform="translate(17.618 -22.879)"><path d=" M 0,0"/><path d=" M -2.234,0 L 2.234,0 L 2.912,-8.95 L -2.912,-8.95" fill="#F2EDDE"/><path d=" M -2.234,0 L 2.234,0" stroke="#000000" stroke-width="1.152"/><path d=" M 0,-11.377 L 2.912,-8.95 L -2.912,-8.95" fill="#000000" stroke="#000000" stroke-width="1.152"/><path d=" M -2.234,0 L -2.912,-8.95 M 2.234,0 L 2.912,-8.95 M 0,0 L 0,-8.95 M 0,-11.377 L 0,-13.805" stroke="#000000" stroke-width="1.152"/></g><g><path d=" M 0,0"/><path d=" M -9.211,0 L 9.211,0 L 9.211,-39.462 L -9.211,-39.462 L -9.211,0" fill="#F2EDDE" stroke="#000000" stroke-width="1.152"/><path d=" M -6.433,0 L 6.433,0 L 6.433,-36.684 L -6.433,-36.684 L -6.433,0" fill="#E5D6B7" stroke="#000000" stroke-width="1.152"/><path d=" M -3.217,0 L -3.217,-36.684 M 0,0 L 0,-36.684 M 3.217,0 L 3.217,-36.684" stroke="#000000" stroke-width="1.152"/><path d=" M -3.217,-20.342 L -3.217,-15.342" stroke="#000000" stroke-width="2"/></g><g transform="translate(0 9.018)"><path d=" M 0,0"/><path d=" M -14.143,0 L 14.143,0 L 14.143,-9.018 L -14.143,-9.018 L -14.143,0" fill="#F2EDDE" stroke="#000000" stroke-width="1.152"/><path d=" M -14.143,-3.006 L 14.143,-3.006 M -14.143,-6.012 L 14.143,-6.012" stroke="#000000" stroke-width="1.152"/></g></g></g><g><path d=" M 0,0"/><path d=" M -4.102,-0.002 L -2.95,0.002 L -3.051,-2.367 L -3.107,-3.682 L -3.151,-4.735 L -3.205,-6.05 L -3.301,-8.419 L -3.685,-8.421 L -3.805,-6.053 L -3.871,-4.738 L -3.923,-3.685 L -3.987,-2.369 L -4.102,-0.002" fill="#000000"/><path d=" M -6.073,0.028 L -4.922,-0.028 L -5.125,-1.962 L -5.248,-3.04 L -5.359,-3.901 L -5.513,-4.974 L -5.81,-6.896 L -6.192,-6.859 L -6.111,-4.918 L -6.077,-3.844 L -6.062,-2.986 L -6.059,-1.912 L -6.073,0.028" fill="#000000"/><path d=" M -14.809,0.127 L -13.685,-0.127 L -14.188,-1.864 L -14.514,-2.833 L -14.829,-3.595 L -15.282,-4.513 L -16.162,-6.114 L -16.509,-5.95 L -15.831,-4.267 L -15.503,-3.336 L -15.296,-2.591 L -15.097,-1.638 L -14.809,0.127" fill="#000000"/><path d=" M -18.26,0.186 L -17.169,-0.186 L -17.819,-1.762 L -18.246,-2.635 L -18.66,-3.306 L -19.253,-4.084 L -20.397,-5.4 L -20.702,-5.167 L -19.744,-3.732 L -19.282,-2.932 L -18.987,-2.283 L -18.697,-1.431 L -18.26,0.186" fill="#000000"/><path d=" M -20.937,0.129 L -19.814,-0.129 L -20.322,-1.859 L -20.652,-2.823 L -20.971,-3.581 L -21.429,-4.493 L -22.319,-6.083 L -22.664,-5.915 L -21.976,-4.243 L -21.643,-3.318 L -21.433,-2.577 L -21.231,-1.628 L -20.937,0.129" fill="#000000"/><path d=" M -42.648,0.235 L -41.596,-0.235 L -42.739,-2.534 L -43.492,-3.778 L -44.225,-4.704 L -45.279,-5.741 L -47.325,-7.457 L -47.583,-7.174 L -45.706,-5.31 L -44.786,-4.239 L -44.186,-3.336 L -43.58,-2.115 L -42.648,0.235" fill="#000000"/><path d=" M 195.671,0.054 L 196.818,-0.054 L 196.566,-1.592 L 196.41,-2.451 L 196.265,-3.137 L 196.061,-3.985 L 195.666,-5.495 L 195.289,-5.424 L 195.47,-3.88 L 195.553,-3.027 L 195.6,-2.348 L 195.635,-1.496 L 195.671,0.054" fill="#000000"/><path d=" M 196.144,0.045 L 197.292,-0.045 L 196.956,-2.932 L 196.744,-4.539 L 196.544,-5.823 L 196.256,-7.418 L 195.694,-10.273 L 195.315,-10.212 L 195.663,-7.328 L 195.83,-5.73 L 195.933,-4.453 L 196.024,-2.851 L 196.144,0.045" fill="#000000"/><path d=" M 214.894,-0.368 L 215.779,0.368 L 216.684,-0.883 L 217.226,-1.454 L 217.737,-1.807 L 218.536,-2.151 L 220.201,-2.642 L 220.117,-3.017 L 218.367,-2.744 L 217.426,-2.479 L 216.731,-2.125 L 216,-1.536 L 214.894,-0.368" fill="#000000"/><path d=" M -57.222,0 L -51.627,0 M -49.91,0 L -43.474,0 M -42.629,0 L -36.568,0 M -32.21,0 L -26.988,0 M -26.041,0 L -19.608,0 M -14.803,0 L -9.208,0 M -7.491,0 L -1.055,0 M -0.21,0 L 5.851,0 M 10.209,0 L 15.431,0 M 16.378,0 L 22.811,0 M 27.616,0 L 33.211,0 M 34.928,0 L 41.364,0 M 42.209,0 L 48.27,0 M 52.628,0 L 57.85,0 M 58.797,0 L 65.23,0 M 70.035,0 L 75.63,0 M 77.347,0 L 83.783,0 M 84.628,0 L 90.689,0 M 95.047,0 L 100.269,0 M 101.216,0 L 107.649,0 M 112.454,0 L 118.049,0 M 119.766,0 L 126.202,0 M 127.047,0 L 133.108,0 M 137.466,0 L 142.688,0 M 143.635,0 L 150.068,0 M 154.873,0 L 160.468,0 M 162.185,0 L 168.621,0 M 169.466,0 L 175.527,0 M 179.885,0 L 185.107,0 M 186.054,0 L 192.487,0 M 197.292,0 L 202.887,0 M 204.604,0 L 211.04,0 M 211.885,0 L 217.946,0 M 222.304,0 L 227.526,0 M 228.473,0 L 234.906,0 M 239.711,0 L 245.306,0 M 247.023,0 L 247.962,0 M -19.074,0 L 209.814,0" stroke="#000000" stroke-width="1.152"/></g></g><style/><defs/></svg>