<?xml version="1.0" encoding="UTF-8" standalone="no"?><svg width="210.74" height="120.997" xmlns="http://www.w3.org/2000/svg" stroke-linejoin="round" stroke-linecap="round" fill-rule="evenodd" fill="none"><rect x="0" y="0" width="210.74" height="120.997" fill="#F2EDDE"/><g transform="translate(10 110.997)"><path d=" M 0,0"/><g transform="translate(190.74 -9.018)"><path d=" M 0,0"/><g transform="translate(0 -36.684)"><path d=" M 0,0"/><path d=" M 0,-14.381 L 12.716,-14.381" stroke="#8E8B83" stroke-width="1.152"/><path d=" M 6.358,-14.381 Q 5.351,-14.381 4.393,-14.07 Q 3.436,-13.759 2.621,-13.167 Q 1.806,-12.575 1.214,-11.76 Q 0.622,-10.946 0.311,-9.988 Q 0,-9.03 0,-8.023" stroke="#8E8B83" stroke-width="1.152"/><g transform="translate(12.716 0)"><path d=" M 0,0"/><path d=" M -2.234,0 L 2.234,0 L 2.912,-8.95 L -2.912,-8.95" fill="#F2EDDE"/><path d=" M -2.234,0 L 2.234,0" stroke="#8E8B83" stroke-width="1.152"/><path d=" M 0,-11.377 L 2.912,-8.95 L -2.912,-8.95" fill="#8E8B83" stroke="#8E8B83" stroke-width="1.152"/><path d=" M -2.234,0 L -2.912,-8.95 M 2.234,0 L 2.912,-8.95 M 0,0 L 0,-8.95 M 0,-11.377 L 0,-13.805" stroke="#8E8B83" stroke-width="1.152"/></g></g><g><path d=" M 0,0"/><path d=" M 17.919,9.018 L 2.919,9.018 L 2.919,0 L 7.919,0 L 7.919,3.006 L 12.919,3.006 L 12.919,6.012 L 17.919,6.012 L 17.919,9.018" fill="#F2EDDE" stroke="#8E8B83" stroke-width="1.152"/></g></g><g><path d=" M 0,0"/><path d=" M 38.148,-103.491 L -3,-69.281 L 193.74,-69.281 L 152.592,-103.491 L 38.148,-103.491" fill="#D1AF99" stroke="#76736C" stroke-width="1.152"/><path d=" M 0.577,-72.255 L 0.577,-69.411 M 0.577,-69.411 L 0.577,-69.281 M 4.154,-75.229 L 4.154,-70.349 M 4.154,-70.349 L 4.154,-69.281 M 7.731,-78.203 L 7.731,-76.403 M 7.731,-75.062 L 7.731,-73.603 M 7.731,-73.603 L 7.731,-69.281 M 11.308,-81.177 L 11.308,-74.567 M 11.308,-74.471 L 11.308,-72.318 M 11.308,-72.318 L 11.308,-69.281 M 14.885,-84.151 L 14.885,-79.1 M 14.885,-79.1 L 14.885,-69.281 M 18.463,-87.125 L 18.463,-86.933 M 18.463,-82.702 L 18.463,-74.252 M 18.463,-74.003 L 18.463,-69.281 M 22.04,-90.099 L 22.04,-88.05 M 22.04,-86.759 L 22.04,-85.072 M 22.04,-84.616 L 22.04,-81.181 M 22.04,-74.539 L 22.04,-72.214 M 22.04,-72.214 L 22.04,-69.281 M 25.617,-93.073 L 25.617,-87.696 M 25.617,-82.417 L 25.617,-75.633 M 25.617,-75.633 L 25.617,-69.281 M 29.194,-96.047 L 29.194,-88.456 M 29.194,-86.158 L 29.194,-83.203 M 29.194,-83.203 L 29.194,-69.281 M 32.771,-99.021 L 32.771,-96.966 M 32.771,-91.738 L 32.771,-84.687 M 32.771,-79.591 L 32.771,-70.761 M 32.771,-70.65 L 32.771,-69.281 M 36.348,-101.995 L 36.348,-100.544 M 36.348,-96.388 L 36.348,-91.682 M 36.348,-85.134 L 36.348,-84.52 M 36.348,-84.52 L 36.348,-69.281 M 39.925,-103.491 L 39.925,-100.682 M 39.925,-94.76 L 39.925,-88.587 M 39.925,-84.85 L 39.925,-82.389 M 39.925,-82.389 L 39.925,-69.281 M 43.502,-103.491 L 43.502,-97.83 M 43.502,-96.179 L 43.502,-94.774 M 43.502,-94.182 L 43.502,-85.088 M 43.502,-84.119 L 43.502,-79.362 M 43.502,-73.675 L 43.502,-69.508 M 43.502,-69.508 L 43.502,-69.281 M 47.079,-103.491 L 47.079,-96.845 M 47.079,-92.241 L 47.079,-88.748 M 47.079,-88.748 L 47.079,-69.281 M 50.656,-103.491 L 50.656,-102.745 M 50.656,-100.658 L 50.656,-96.01 M 50.656,-89.912 L 50.656,-84.479 M 50.656,-78.527 L 50.656,-74.195 M 50.656,-74.195 L 50.656,-69.281 M 54.233,-103.491 L 54.233,-101.43 M 54.233,-94.772 L 54.233,-94.257 M 54.233,-93.688 L 54.233,-90.661 M 54.233,-85.236 L 54.233,-79.088 M 54.233,-79.088 L 54.233,-69.281 M 57.811,-103.491 L 57.811,-95.64 M 57.811,-94.34 L 57.811,-69.281 M 61.388,-103.491 L 61.388,-98.84 M 61.388,-98.684 L 61.388,-89.487 M 61.388,-86.955 L 61.388,-86.571 M 61.388,-85.784 L 61.388,-78.748 M 61.388,-75.931 L 61.388,-73.923 M 61.388,-73.923 L 61.388,-69.281 M 64.965,-103.491 L 64.965,-98.934 M 64.965,-93.009 L 64.965,-87.613 M 64.965,-86.379 L 64.965,-84.532 M 64.965,-84.532 L 64.965,-69.281 M 68.542,-103.491 L 68.542,-101.462 M 68.542,-97.452 L 68.542,-96.703 M 68.542,-90.54 L 68.542,-86.298 M 68.542,-85.344 L 68.542,-69.281 M 72.119,-103.491 L 72.119,-101.016 M 72.119,-100.558 L 72.119,-97.76 M 72.119,-93.285 L 72.119,-92.37 M 72.119,-89.072 L 72.119,-88.338 M 72.119,-87.07 L 72.119,-85.516 M 72.119,-83.657 L 72.119,-82.785 M 72.119,-82.785 L 72.119,-69.281 M 75.696,-103.491 L 75.696,-103.009 M 75.696,-99.877 L 75.696,-97.389 M 75.696,-94.031 L 75.696,-87.315 M 75.696,-83.092 L 75.696,-79.991 M 75.696,-77.376 L 75.696,-69.281 M 79.273,-103.491 L 79.273,-102.902 M 79.273,-96.54 L 79.273,-93.437 M 79.273,-88.839 L 79.273,-83.925 M 79.273,-82.798 L 79.273,-78.967 M 79.273,-75.697 L 79.273,-69.281 M 82.85,-103.491 L 82.85,-94.941 M 82.85,-93.221 L 82.85,-90.755 M 82.85,-87.212 L 82.85,-82.568 M 82.85,-76.332 L 82.85,-70.968 M 82.85,-70.878 L 82.85,-69.281 M 86.427,-103.491 L 86.427,-94.629 M 86.427,-90.077 L 86.427,-88.272 M 86.427,-83.508 L 86.427,-78.426 M 86.427,-73.958 L 86.427,-73.403 M 86.427,-73.403 L 86.427,-69.281 M 90.004,-103.491 L 90.004,-95.509 M 90.004,-92.684 L 90.004,-91.758 M 90.004,-89.658 L 90.004,-86.298 M 90.004,-84.875 L 90.004,-79.902 M 90.004,-73.355 L 90.004,-70.071 M 90.004,-70.071 L 90.004,-69.281 M 93.581,-103.491 L 93.581,-99.082 M 93.581,-98.995 L 93.581,-92.98 M 93.581,-91.463 L 93.581,-86.434 M 93.581,-82.61 L 93.581,-81.375 M 93.581,-75.691 L 93.581,-73.898 M 93.581,-73.898 L 93.581,-69.281 M 97.159,-103.491 L 97.159,-97.51 M 97.159,-91.278 L 97.159,-89.915 M 97.159,-87.005 L 97.159,-85.51 M 97.159,-81.301 L 97.159,-79.157 M 97.159,-79.157 L 97.159,-69.281 M 100.736,-103.491 L 100.736,-98.462 M 100.736,-96.853 L 100.736,-88.932 M 100.736,-87.669 L 100.736,-86.841 M 100.736,-81.076 L 100.736,-78.353 M 100.736,-77.874 L 100.736,-77.844 M 100.736,-72.96 L 100.736,-71.365 M 100.736,-71.365 L 100.736,-69.281 M 104.313,-103.491 L 104.313,-97.165 M 104.313,-92.289 L 104.313,-84.186 M 104.313,-81.49 L 104.313,-80.31 M 104.313,-80.31 L 104.313,-69.281 M 107.89,-103.491 L 107.89,-95.455 M 107.89,-93.211 L 107.89,-91.926 M 107.89,-89.202 L 107.89,-69.281 M 111.467,-103.491 L 111.467,-96.848 M 111.467,-90.898 L 111.467,-86.316 M 111.467,-86.028 L 111.467,-84.196 M 111.467,-84.196 L 111.467,-69.281 M 115.044,-103.491 L 115.044,-102.455 M 115.044,-97.139 L 115.044,-90.253 M 115.044,-88.747 L 115.044,-82.159 M 115.044,-77.874 L 115.044,-69.281 M 118.621,-103.491 L 118.621,-95.109 M 118.621,-90.236 L 118.621,-83.816 M 118.621,-80.965 L 118.621,-78.067 M 118.621,-72.101 L 118.621,-70.489 M 118.621,-70.489 L 118.621,-69.281 M 122.198,-103.491 L 122.198,-94.855 M 122.198,-91.605 L 122.198,-89.375 M 122.198,-88.152 L 122.198,-80.024 M 122.198,-73.305 L 122.198,-71.22 M 122.198,-71.157 L 122.198,-69.281 M 125.775,-103.491 L 125.775,-102.629 M 125.775,-96.788 L 125.775,-90.217 M 125.775,-85.065 L 125.775,-80.939 M 125.775,-80.939 L 125.775,-69.281 M 129.352,-103.491 L 129.352,-95.068 M 129.352,-94.641 L 129.352,-91.28 M 129.352,-89.319 L 129.352,-86.703 M 129.352,-86.703 L 129.352,-69.281 M 132.929,-103.491 L 132.929,-100.945 M 132.929,-98.671 L 132.929,-95.294 M 132.929,-93.408 L 132.929,-84.209 M 132.929,-82.718 L 132.929,-78.684 M 132.929,-76.416 L 132.929,-74.82 M 132.929,-72.578 L 132.929,-71.393 M 132.929,-71.393 L 132.929,-69.281 M 136.507,-103.491 L 136.507,-99.642 M 136.507,-96.96 L 136.507,-91.5 M 136.507,-88.352 L 136.507,-86.462 M 136.507,-81.95 L 136.507,-81.16 M 136.507,-81.16 L 136.507,-69.281 M 140.084,-103.491 L 140.084,-103.305 M 140.084,-98.117 L 140.084,-95.422 M 140.084,-94.727 L 140.084,-92.399 M 140.084,-91.797 L 140.084,-69.281 M 143.661,-103.491 L 143.661,-95.684 M 143.661,-89.713 L 143.661,-81.737 M 143.661,-75.587 L 143.661,-72.235 M 143.661,-72.235 L 143.661,-69.281 M 147.238,-103.491 L 147.238,-99.775 M 147.238,-98.381 L 147.238,-92.666 M 147.238,-87.971 L 147.238,-87.847 M 147.238,-87.847 L 147.238,-69.281 M 150.815,-103.491 L 150.815,-98.882 M 150.815,-94.527 L 150.815,-92.101 M 150.815,-88.272 L 150.815,-86.353 M 150.815,-79.989 L 150.815,-78.149 M 150.815,-78.149 L 150.815,-69.281 M 154.392,-101.995 L 154.392,-101.363 M 154.392,-97.235 L 154.392,-96.616 M 154.392,-96.002 L 154.392,-88.384 M 154.392,-81.786 L 154.392,-78.732 M 154.392,-76.528 L 154.392,-73.016 M 154.392,-69.989 L 154.392,-69.281 M 157.969,-99.021 L 157.969,-98.164 M 157.969,-94.459 L 157.969,-88.131 M 157.969,-82.538 L 157.969,-76.33 M 157.969,-75.637 L 157.969,-73.156 M 157.969,-71.882 L 157.969,-69.281 M 161.546,-96.047 L 161.546,-95.839 M 161.546,-95.507 L 161.546,-86.324 M 161.546,-85.946 L 161.546,-81.984 M 161.546,-76.106 L 161.546,-72.791 M 161.546,-72.32 L 161.546,-70.108 M 161.546,-70.108 L 161.546,-69.281 M 165.123,-93.073 L 165.123,-86.531 M 165.123,-84.585 L 165.123,-76.851 M 165.123,-76.098 L 165.123,-70.288 M 165.123,-69.773 L 165.123,-69.281 M 168.7,-90.099 L 168.7,-82.784 M 168.7,-78.314 L 168.7,-77.336 M 168.7,-77.336 L 168.7,-69.281 M 172.277,-87.125 L 172.277,-83.837 M 172.277,-83.57 L 172.277,-78.156 M 172.277,-76.183 L 172.277,-73.376 M 172.277,-71.472 L 172.277,-69.281 M 175.855,-84.151 L 175.855,-80.85 M 175.855,-76.879 L 175.855,-73.508 M 175.855,-70.104 L 175.855,-69.281 M 179.432,-81.177 L 179.432,-75.343 M 179.432,-71.42 L 179.432,-69.281 M 183.009,-78.203 L 183.009,-77.995 M 183.009,-75.925 L 183.009,-74.46 M 183.009,-70.528 L 183.009,-70.364 M 183.009,-70.364 L 183.009,-69.281 M 186.586,-75.229 L 186.586,-70.317 M 186.586,-69.739 L 186.586,-69.281 M 190.163,-72.255 L 190.163,-69.921 M 190.163,-69.921 L 190.163,-69.281" stroke="#76736C" stroke-width="1.152"/><path d=" M 0,0 L 0,-66.281 L -1.5,-69.281 L 192.24,-69.281 L 190.74,-66.281 L 190.74,0" fill="#F2EDDE" stroke="#76736C" stroke-width="1.152"/><path d=" M -2.919,0 L 193.659,0 L 193.659,-22.099 L -2.919,-22.099 L -2.919,0" fill="#EBE1CA" stroke="#76736C" stroke-width="1.152"/><path d=" M 0,-22.099 L -2.919,-22.099 L -2.919,0 L 193.659,0 L 193.659,-22.099 L 190.74,-22.099" stroke="#76736C" stroke-width="1.152" stroke-linejoin="round" stroke-linecap="square"/><path d=" M 2.304,-22.099 L 188.436,-22.099" stroke="#76736C" stroke-width="1.152"/><g transform="translate(72.856 -92.088)"><path d=" M 0,0"/><path d=" M -5.44,4.523 L -5.44,-10.11 L -6.776,-10.11 L -6.776,-14.766 L 6.776,-14.766 L 6.776,-10.11 L 5.44,-10.11 L 5.44,4.523" fill="#F2EDDE" stroke="#76736C" stroke-width="1.152"/><path d=" M -3.264,-10.11 L 3.264,-10.11" stroke="#76736C" stroke-width="1.152"/></g><g transform="translate(38.148 -80.176)"><path d=" M 0,0"/><path d=" M 9.252,12.047 L -9.252,12.047 L -9.252,-10.379 L 0,-15.268 L 9.252,-10.379 L 9.252,12.047" fill="#F2EDDE"/><path d=" M -9.252,10.895 L -9.252,-10.379 L 0,-15.268 L 9.252,-10.379 L 9.252,10.895" stroke="#76736C" stroke-width="1.152"/><g><path d=" M 0,0"/><path d=" M -4.796,-6.44 L 4.796,-6.44 L 4.796,6.44 L -4.796,6.44 L -4.796,-6.44" fill="#F2EDDE" stroke="#76736C" stroke-width="1.152"/><path d=" M -4.796,-6.44 L 4.796,-6.44 L 4.796,6.44 L -4.796,6.44 L -4.796,-6.44" fill="#76736C" stroke="#76736C" stroke-width="1.152"/><path d=" M 0,-6.44 L 0,6.44 M -4.796,0 L 4.796,0" stroke="#F2EDDE" stroke-width="1.152"/><path d=" M -4.796,-6.44 L 4.796,-6.44 L 4.796,6.44 L -4.796,6.44 L -4.796,-6.44" stroke="#76736C" stroke-width="1.152"/></g></g><g transform="translate(76.296 -80.176)"><path d=" M 0,0"/><path d=" M 9.252,12.047 L -9.252,12.047 L -9.252,-10.379 L 0,-15.268 L 9.252,-10.379 L 9.252,12.047" fill="#F2EDDE"/><path d=" M -9.252,10.895 L -9.252,-10.379 L 0,-15.268 L 9.252,-10.379 L 9.252,10.895" stroke="#76736C" stroke-width="1.152"/><g><path d=" M 0,0"/><path d=" M -4.796,-6.44 L 4.796,-6.44 L 4.796,6.44 L -4.796,6.44 L -4.796,-6.44" fill="#F2EDDE" stroke="#76736C" stroke-width="1.152"/><path d=" M -4.796,-6.44 L 4.796,-6.44 L 4.796,6.44 L -4.796,6.44 L -4.796,-6.44" fill="#76736C" stroke="#76736C" stroke-width="1.152"/><path d=" M 0,-6.44 L 0,6.44 M -4.796,0 L 4.796,0" stroke="#F2EDDE" stroke-width="1.152"/><path d=" M -4.796,-6.44 L 4.796,-6.44 L 4.796,6.44 L -4.796,6.44 L -4.796,-6.44" stroke="#76736C" stroke-width="1.152"/></g></g><g transform="translate(114.444 -80.176)"><path d=" M 0,0"/><path d=" M 9.252,12.047 L -9.252,12.047 L -9.252,-10.379 L 0,-15.268 L 9.252,-10.379 L 9.252,12.047" fill="#F2EDDE"/><path d=" M -9.252,10.895 L -9.252,-10.379 L 0,-15.268 L 9.252,-10.379 L 9.252,10.895" stroke="#76736C" stroke-width="1.152"/><g><path d=" M 0,0"/><path d=" M -4.796,-6.44 L 4.796,-6.44 L 4.796,6.44 L -4.796,6.44 L -4.796,-6.44" fill="#F2EDDE" stroke="#76736C" stroke-width="1.152"/><path d=" M -4.796,-6.44 L 4.796,-6.44 L 4.796,6.44 L -4.796,6.44 L -4.796,-6.44" fill="#76736C" stroke="#76736C" stroke-width="1.152"/><path d=" M 0,-6.44 L 0,6.44 M -4.796,0 L 4.796,0" stroke="#F2EDDE" stroke-width="1.152"/><path d=" M -4.796,-6.44 L 4.796,-6.44 L 4.796,6.44 L -4.796,6.44 L -4.796,-6.44" stroke="#76736C" stroke-width="1.152"/></g></g><g transform="translate(152.592 -80.176)"><path d=" M 0,0"/><path d=" M 9.252,12.047 L -9.252,12.047 L -9.252,-10.379 L 0,-15.268 L 9.252,-10.379 L 9.252,12.047" fill="#F2EDDE"/><path d=" M -9.252,10.895 L -9.252,-10.379 L 0,-15.268 L 9.252,-10.379 L 9.252,10.895" stroke="#76736C" stroke-width="1.152"/><g><path d=" M 0,0"/><path d=" M -4.796,-6.44 L 4.796,-6.44 L 4.796,6.44 L -4.796,6.44 L -4.796,-6.44" fill="#F2EDDE" stroke="#76736C" stroke-width="1.152"/><path d=" M -4.796,-6.44 L 4.796,-6.44 L 4.796,6.44 L -4.796,6.44 L -4.796,-6.44" fill="#76736C" stroke="#76736C" stroke-width="1.152"/><path d=" M 0,-6.44 L 0,6.44 M -4.796,0 L 4.796,0" stroke="#F2EDDE" stroke-width="1.152"/><path d=" M -4.796,-6.44 L 4.796,-6.44 L 4.796,6.44 L -4.796,6.44 L -4.796,-6.44" stroke="#76736C" stroke-width="1.152"/></g></g><g transform="translate(19.074 -39.15)"><path d=" M 0,0"/><path d=" M -6.28,-9.331 L 6.28,-9.331 L 6.28,9.331 L -6.28,9.331 L -6.28,-9.331" fill="#F2EDDE" stroke="#76736C" stroke-width="1.152"/><path d=" M -3.502,-6.553 L 3.502,-6.553 L 3.502,6.553 L -3.502,6.553 L -3.502,-6.553" fill="#76736C" stroke="#76736C" stroke-width="1.152"/><path d=" M 0,-6.553 L 0,6.553 M -3.502,0 L 3.502,0" stroke="#F2EDDE" stroke-width="1.152"/><path d=" M -3.502,-6.553 L 3.502,-6.553 L 3.502,6.553 L -3.502,6.553 L -3.502,-6.553" stroke="#76736C" stroke-width="1.152"/></g><g transform="translate(57.222 -39.15)"><path d=" M 0,0"/><path d=" M -6.28,-9.331 L 6.28,-9.331 L 6.28,9.331 L -6.28,9.331 L -6.28,-9.331" fill="#F2EDDE" stroke="#76736C" stroke-width="1.152"/><path d=" M -3.502,-6.553 L 3.502,-6.553 L 3.502,6.553 L -3.502,6.553 L -3.502,-6.553" fill="#76736C" stroke="#76736C" stroke-width="1.152"/><path d=" M 0,-6.553 L 0,6.553 M -3.502,0 L 3.502,0" stroke="#F2EDDE" stroke-width="1.152"/><path d=" M -3.502,-6.553 L 3.502,-6.553 L 3.502,6.553 L -3.502,6.553 L -3.502,-6.553" stroke="#76736C" stroke-width="1.152"/></g></g><g><path d=" M 0,0"/><path d=" M -5.533,0.051 L -4.385,-0.051 L -4.657,-1.872 L -4.827,-2.887 L -4.985,-3.698 L -5.209,-4.702 L -5.642,-6.493 L -6.02,-6.425 L -5.8,-4.601 L -5.697,-3.592 L -5.637,-2.789 L -5.589,-1.78 L -5.533,0.051" fill="#76736C"/><path d=" M -8.461,0.109 L -7.329,-0.109 L -7.877,-2.388 L -8.232,-3.656 L -8.576,-4.659 L -9.074,-5.88 L -10.048,-8.033 L -10.404,-7.89 L -9.637,-5.668 L -9.263,-4.437 L -9.023,-3.449 L -8.794,-2.194 L -8.461,0.109" fill="#76736C"/><path d=" M -13.38,0.167 L -12.277,-0.167 L -12.849,-1.684 L -13.223,-2.527 L -13.585,-3.181 L -14.104,-3.949 L -15.105,-5.261 L -15.425,-5.048 L -14.616,-3.63 L -14.226,-2.844 L -13.979,-2.21 L -13.738,-1.385 L -13.38,0.167" fill="#76736C"/><path d=" M -19.445,0.219 L -18.38,-0.219 L -19.281,-2.127 L -19.875,-3.168 L -20.453,-3.953 L -21.281,-4.841 L -22.883,-6.32 L -23.158,-6.051 L -21.729,-4.434 L -21.034,-3.516 L -20.585,-2.754 L -20.135,-1.735 L -19.445,0.219" fill="#76736C"/><path d=" M -35.619,0.376 L -34.746,-0.376 L -36.412,-2.152 L -37.497,-3.025 L -38.525,-3.54 L -39.941,-3.923 L -42.617,-4.314 L -42.689,-3.937 L -40.092,-3.325 L -38.817,-2.858 L -37.977,-2.341 L -37.084,-1.485 L -35.619,0.376" fill="#76736C"/><path d=" M 194.448,-0.061 L 195.593,0.061 L 195.645,-1.454 L 195.691,-2.286 L 195.747,-2.947 L 195.846,-3.779 L 196.057,-5.286 L 195.682,-5.366 L 195.257,-3.898 L 195.038,-3.072 L 194.882,-2.402 L 194.715,-1.563 L 194.448,-0.061" fill="#76736C"/><path d=" M 197.497,-0.07 L 198.641,0.07 L 198.706,-1.342 L 198.759,-2.116 L 198.824,-2.729 L 198.935,-3.501 L 199.173,-4.902 L 198.8,-4.995 L 198.351,-3.639 L 198.118,-2.873 L 197.954,-2.25 L 197.778,-1.468 L 197.497,-0.07" fill="#76736C"/><path d=" M 207.071,-0.182 L 208.164,0.182 L 208.65,-1.617 L 208.973,-2.57 L 209.3,-3.297 L 209.811,-4.192 L 210.864,-5.794 L 210.556,-6.023 L 209.315,-4.537 L 208.674,-3.664 L 208.229,-2.914 L 207.77,-1.942 L 207.071,-0.182" fill="#76736C"/><path d=" M 216.489,-0.374 L 217.364,0.374 L 218.705,-1.353 L 219.52,-2.147 L 220.287,-2.628 L 221.457,-3.069 L 223.848,-3.657 L 223.774,-4.034 L 221.303,-3.667 L 219.991,-3.308 L 219.038,-2.828 L 218.031,-2.018 L 216.489,-0.374" fill="#76736C"/><path d=" M -57.222,0 L -55.205,0 M -54.883,0 L -52.409,0 M -46.321,0 L -40.78,0 M -38.52,0 L -31.664,0 M -24.161,0 L -19.559,0 M -19.351,0 L -17.334,0 M -17.012,0 L -14.538,0 M -8.45,0 L -2.909,0 M -0.649,0 L 6.208,0 M 13.711,0 L 18.312,0 M 18.52,0 L 20.537,0 M 20.86,0 L 23.333,0 M 29.421,0 L 34.962,0 M 37.222,0 L 44.079,0 M 51.582,0 L 56.184,0 M 56.392,0 L 58.408,0 M 58.731,0 L 61.204,0 M 67.292,0 L 72.833,0 M 75.093,0 L 81.95,0 M 89.453,0 L 94.055,0 M 94.263,0 L 96.28,0 M 96.602,0 L 99.075,0 M 105.163,0 L 110.705,0 M 112.965,0 L 119.821,0 M 127.324,0 L 131.926,0 M 132.134,0 L 134.151,0 M 134.473,0 L 136.947,0 M 143.035,0 L 148.576,0 M 150.836,0 L 157.692,0 M 165.196,0 L 169.797,0 M 170.005,0 L 172.022,0 M 172.344,0 L 174.818,0 M 180.906,0 L 186.447,0 M 188.707,0 L 195.564,0 M 203.067,0 L 207.668,0 M 207.876,0 L 209.893,0 M 210.216,0 L 212.689,0 M 218.777,0 L 224.318,0 M 226.578,0 L 233.435,0 M 240.938,0 L 245.54,0 M 245.748,0 L 247.764,0 M -19.074,0 L 209.814,0" stroke="#76736C" stroke-width="1.152"/></g><g transform="translate(114.444 0)"><path d=" M 0,0"/><path d=" M 38.148,-103.491 L -3,-69.281 L 79.296,-69.281 L 38.148,-103.491 L 38.148,-103.491" fill="#B27559" stroke="#000000" stroke-width="1.152"/><path d=" M 0.578,-72.256 L 0.578,-70.617 M 0.578,-69.544 L 0.578,-69.281 M 4.156,-75.231 L 4.156,-72.042 M 4.156,-70.381 L 4.156,-69.281 M 7.734,-78.205 L 7.734,-71.624 M 7.734,-71.624 L 7.734,-69.281 M 11.312,-81.18 L 11.312,-78.144 M 11.312,-74.341 L 11.312,-69.281 M 14.89,-84.155 L 14.89,-78.599 M 14.89,-78.394 L 14.89,-75.489 M 14.89,-70.44 L 14.89,-69.884 M 14.89,-69.884 L 14.89,-69.281 M 18.469,-87.13 L 18.469,-81.023 M 18.469,-79.491 L 18.469,-72.953 M 18.469,-72.953 L 18.469,-69.281 M 22.047,-90.105 L 22.047,-87.491 M 22.047,-84.859 L 22.047,-78.529 M 22.047,-75.452 L 22.047,-75.199 M 22.047,-74.686 L 22.047,-69.281 M 25.625,-93.079 L 25.625,-92.125 M 25.625,-85.856 L 25.625,-82.391 M 25.625,-82.183 L 25.625,-73.388 M 25.625,-70.008 L 25.625,-69.281 M 29.203,-96.054 L 29.203,-94.627 M 29.203,-90.066 L 29.203,-82.736 M 29.203,-78.396 L 29.203,-76.343 M 29.203,-76.343 L 29.203,-69.281 M 32.781,-99.029 L 32.781,-92.589 M 32.781,-92.142 L 32.781,-86.122 M 32.781,-86.122 L 32.781,-69.281 M 36.359,-102.004 L 36.359,-98.239 M 36.359,-93.56 L 36.359,-91.573 M 36.359,-91.573 L 36.359,-69.281 M 39.937,-102.004 L 39.937,-101.332 M 39.937,-96.311 L 39.937,-91.106 M 39.937,-89.346 L 39.937,-82.068 M 39.937,-76.303 L 39.937,-74.017 M 39.937,-73.521 L 39.937,-72.173 M 39.937,-72.173 L 39.937,-69.281 M 43.515,-99.029 L 43.515,-97.354 M 43.515,-92.726 L 43.515,-87.215 M 43.515,-86.615 L 43.515,-69.281 M 47.093,-96.054 L 47.093,-90.62 M 47.093,-85.392 L 47.093,-78.386 M 47.093,-78.386 L 47.093,-69.281 M 50.671,-93.079 L 50.671,-91.858 M 50.671,-90.208 L 50.671,-87.835 M 50.671,-84.536 L 50.671,-79.375 M 50.671,-78.307 L 50.671,-75.183 M 50.671,-71.644 L 50.671,-69.281 M 54.249,-90.105 L 54.249,-84.461 M 54.249,-81.132 L 54.249,-75.966 M 54.249,-75.966 L 54.249,-69.281 M 57.827,-87.13 L 57.827,-81.176 M 57.827,-79.67 L 57.827,-78.284 M 57.827,-78.284 L 57.827,-69.281 M 61.406,-84.155 L 61.406,-79.499 M 61.406,-78.935 L 61.406,-74.993 M 61.406,-71.928 L 61.406,-69.281 M 64.984,-81.18 L 64.984,-76.982 M 64.984,-71.898 L 64.984,-69.36 M 64.984,-69.36 L 64.984,-69.281 M 68.562,-78.205 L 68.562,-74.223 M 68.562,-71.324 L 68.562,-70.009 M 68.562,-69.885 L 68.562,-69.281 M 72.14,-75.231 L 72.14,-74.275 M 72.14,-74.259 L 72.14,-73.005 M 72.14,-70.732 L 72.14,-69.792 M 72.14,-69.792 L 72.14,-69.281 M 75.718,-72.256 L 75.718,-71.701 M 75.718,-70.5 L 75.718,-69.281" stroke="#000000" stroke-width="1.152"/><path d=" M 0,0 L 0,-66.281 L -1.5,-69.281 L 77.796,-69.281 L 76.296,-66.281 L 76.296,0" fill="#F2EDDE" stroke="#000000" stroke-width="1.152"/><path d=" M -2.919,0 L 79.215,0 L 79.215,-22.099 L -2.919,-22.099 L -2.919,0" fill="#E5D6B7" stroke="#000000" stroke-width="1.152"/><path d=" M 0,-22.099 L -2.919,-22.099 L -2.919,0 L 79.215,0 L 79.215,-22.099 L 76.296,-22.099" stroke="#000000" stroke-width="1.152" stroke-linejoin="round" stroke-linecap="square"/><path d=" M 2.304,-22.099 L 73.992,-22.099" stroke="#000000" stroke-width="1.152"/><g transform="translate(19.074 -39.15)"><path d=" M 0,0"/><path d=" M -6.28,-9.331 L 6.28,-9.331 L 6.28,9.331 L -6.28,9.331 L -6.28,-9.331" fill="#F2EDDE" stroke="#000000" stroke-width="1.152"/><path d=" M -3.502,-6.553 L 3.502,-6.553 L 3.502,6.553 L -3.502,6.553 L -3.502,-6.553" fill="#000000" stroke="#000000" stroke-width="1.152"/><path d=" M 0,-6.553 L 0,6.553 M -3.502,0 L 3.502,0" stroke="#F2EDDE" stroke-width="1.152"/><path d=" M -3.502,-6.553 L 3.502,-6.553 L 3.502,6.553 L -3.502,6.553 L -3.502,-6.553" stroke="#000000" stroke-width="1.152"/></g><g transform="translate(57.222 -39.15)"><path d=" M 0,0"/><path d=" M -6.28,-9.331 L 6.28,-9.331 L 6.28,9.331 L -6.28,9.331 L -6.28,-9.331" fill="#F2EDDE" stroke="#000000" stroke-width="1.152"/><path d=" M -3.502,-6.553 L 3.502,-6.553 L 3.502,6.553 L -3.502,6.553 L -3.502,-6.553" fill="#000000" stroke="#000000" stroke-width="1.152"/><path d=" M 0,-6.553 L 0,6.553 M -3.502,0 L 3.502,0" stroke="#F2EDDE" stroke-width="1.152"/><path d=" M -3.502,-6.553 L 3.502,-6.553 L 3.502,6.553 L -3.502,6.553 L -3.502,-6.553" stroke="#000000" stroke-width="1.152"/></g></g><g transform="translate(114.444 0)"><path d=" M 0,0"/><path d=" M -4.429,-0.085 L -3.29,0.085 L -3.164,-1.48 L -3.071,-2.335 L -2.967,-3.011 L -2.796,-3.86 L -2.438,-5.4 L -2.806,-5.513 L -3.374,-4.027 L -3.666,-3.186 L -3.872,-2.497 L -4.088,-1.632 L -4.429,-0.085" fill="#000000"/><path d=" M -5.786,0.051 L -4.638,-0.051 L -5,-2.907 L -5.229,-4.497 L -5.447,-5.767 L -5.76,-7.342 L -6.373,-10.16 L -6.751,-10.092 L -6.352,-7.242 L -6.159,-5.662 L -6.04,-4.4 L -5.931,-2.817 L -5.786,0.051" fill="#000000"/><path d=" M -10.791,0.087 L -9.653,-0.087 L -10.181,-2.836 L -10.523,-4.364 L -10.853,-5.579 L -11.333,-7.072 L -12.274,-9.722 L -12.641,-9.608 L -11.909,-6.901 L -11.552,-5.4 L -11.323,-4.198 L -11.105,-2.68 L -10.791,0.087" fill="#000000"/><path d=" M -18.403,0.102 L -17.269,-0.102 L -17.69,-1.836 L -17.961,-2.803 L -18.22,-3.57 L -18.593,-4.504 L -19.318,-6.146 L -19.678,-6.012 L -19.16,-4.305 L -18.911,-3.362 L -18.755,-2.609 L -18.609,-1.653 L -18.403,0.102" fill="#000000"/><path d=" M -30.701,0.299 L -29.716,-0.299 L -30.785,-1.856 L -31.49,-2.68 L -32.171,-3.254 L -33.126,-3.828 L -34.943,-4.688 L -35.127,-4.351 L -33.444,-3.306 L -32.629,-2.681 L -32.103,-2.124 L -31.563,-1.324 L -30.701,0.299" fill="#000000"/><path d=" M 79.207,0.014 L 80.358,-0.014 L 80.195,-2.268 L 80.098,-3.522 L 80.014,-4.525 L 79.898,-5.777 L 79.68,-8.026 L 79.297,-8.007 L 79.299,-5.749 L 79.294,-4.496 L 79.283,-3.495 L 79.26,-2.243 L 79.207,0.014" fill="#000000"/><path d=" M 82.106,0.042 L 83.255,-0.042 L 83.033,-1.596 L 82.896,-2.463 L 82.771,-3.156 L 82.597,-4.015 L 82.262,-5.549 L 81.882,-5.493 L 82.003,-3.932 L 82.056,-3.069 L 82.084,-2.382 L 82.1,-1.52 L 82.106,0.042" fill="#000000"/><path d=" M 86.275,-0.077 L 87.416,0.077 L 87.691,-2.779 L 87.884,-4.349 L 88.088,-5.595 L 88.408,-7.152 L 89.063,-9.96 L 88.692,-10.061 L 87.826,-7.302 L 87.385,-5.752 L 87.081,-4.495 L 86.765,-2.916 L 86.275,-0.077" fill="#000000"/><path d=" M 94.197,-0.112 L 95.327,0.112 L 95.767,-2.655 L 96.067,-4.164 L 96.377,-5.352 L 96.856,-6.829 L 97.834,-9.487 L 97.479,-9.633 L 96.296,-7.047 L 95.692,-5.581 L 95.278,-4.378 L 94.852,-2.856 L 94.197,-0.112" fill="#000000"/><path d=" M 100.936,-0.236 L 101.987,0.236 L 102.663,-1.532 L 103.1,-2.444 L 103.535,-3.118 L 104.21,-3.923 L 105.602,-5.336 L 105.344,-5.62 L 103.785,-4.356 L 102.975,-3.583 L 102.407,-2.887 L 101.822,-1.953 L 100.936,-0.236" fill="#000000"/><path d=" M 111.446,-0.228 L 112.504,0.228 L 113.148,-1.536 L 113.566,-2.45 L 113.983,-3.128 L 114.631,-3.944 L 115.966,-5.381 L 115.7,-5.658 L 114.194,-4.365 L 113.412,-3.58 L 112.864,-2.879 L 112.301,-1.943 L 111.446,-0.228" fill="#000000"/><path d=" M -57.222,0 L -50.269,0 M -50.107,0 L -50.03,0 M -44.23,0 L -41.927,0 M -41.211,0 L -40.1,0 M -39.205,0 L -34.528,0 M -32.568,0 L -25.615,0 M -25.452,0 L -25.376,0 M -19.576,0 L -17.273,0 M -16.557,0 L -15.446,0 M -14.551,0 L -9.874,0 M -7.914,0 L -0.961,0 M -0.798,0 L -0.721,0 M 5.078,0 L 7.381,0 M 8.097,0 L 9.208,0 M 10.103,0 L 14.78,0 M 16.74,0 L 23.693,0 M 23.856,0 L 23.933,0 M 29.732,0 L 32.035,0 M 32.751,0 L 33.862,0 M 34.757,0 L 39.434,0 M 41.394,0 L 48.347,0 M 48.51,0 L 48.587,0 M 54.386,0 L 56.689,0 M 57.405,0 L 58.516,0 M 59.411,0 L 64.088,0 M 66.048,0 L 73.001,0 M 73.164,0 L 73.241,0 M 79.04,0 L 81.343,0 M 82.059,0 L 83.17,0 M 84.066,0 L 88.742,0 M 90.702,0 L 97.655,0 M 97.818,0 L 97.895,0 M 103.694,0 L 105.997,0 M 106.713,0 L 107.825,0 M 108.72,0 L 113.397,0 M 115.356,0 L 122.309,0 M 122.472,0 L 122.549,0 M 128.348,0 L 130.651,0 M 131.367,0 L 132.479,0 M 133.374,0 L 133.518,0 M -19.074,0 L 95.37,0" stroke="#000000" stroke-width="1.152"/></g></g><style/><defs/></svg>