<?xml version="1.0" encoding="UTF-8" standalone="no"?><svg width="210.74" height="120.997" xmlns="http://www.w3.org/2000/svg" stroke-linejoin="round" stroke-linecap="round" fill-rule="evenodd" fill="none"><rect x="0" y="0" width="210.74" height="120.997" fill="#F2EDDE"/><g transform="translate(10 110.997)"><path d=" M 0,0"/><g transform="translate(0 -9.018) scale(-1 1)"><path d=" M 0,0"/><g transform="translate(0 -36.684)"><path d=" M 0,0"/><path d=" M 0,-14.381 L 12.716,-14.381" stroke="#76736C" stroke-width="1.152"/><path d=" M 6.358,-14.381 Q 5.351,-14.381 4.393,-14.07 Q 3.436,-13.759 2.621,-13.167 Q 1.806,-12.575 1.214,-11.76 Q 0.622,-10.946 0.311,-9.988 Q 0,-9.03 0,-8.023" stroke="#76736C" stroke-width="1.152"/><g transform="translate(12.716 0)"><path d=" M 0,0"/><path d=" M -2.234,0 L 2.234,0 L 2.912,-8.95 L -2.912,-8.95" fill="#F2EDDE"/><path d=" M -2.234,0 L 2.234,0" stroke="#76736C" stroke-width="1.152"/><path d=" M 0,-11.377 L 2.912,-8.95 L -2.912,-8.95" fill="#76736C" stroke="#76736C" stroke-width="1.152"/><path d=" M -2.234,0 L -2.912,-8.95 M 2.234,0 L 2.912,-8.95 M 0,0 L 0,-8.95 M 0,-11.377 L 0,-13.805" stroke="#76736C" stroke-width="1.152"/></g></g><g><path d=" M 0,0"/><path d=" M 17.919,9.018 L 2.919,9.018 L 2.919,0 L 7.919,0 L 7.919,3.006 L 12.919,3.006 L 12.919,6.012 L 17.919,6.012 L 17.919,9.018" fill="#F2EDDE" stroke="#76736C" stroke-width="1.152"/></g></g><g><path d=" M 0,0"/><path d=" M 38.148,-103.491 L -3,-69.281 L 193.74,-69.281 L 152.592,-103.491 L 38.148,-103.491" fill="#C9A088" stroke="#57554F" stroke-width="1.152"/><path d=" M 0.577,-72.255 L 0.577,-69.651 M 0.577,-69.651 L 0.577,-69.281 M 4.154,-75.229 L 4.154,-74.533 M 4.154,-69.739 L 4.154,-69.281 M 7.731,-78.203 L 7.731,-71.998 M 7.731,-71.998 L 7.731,-69.281 M 11.308,-81.177 L 11.308,-79.203 M 11.308,-73.91 L 11.308,-72.202 M 11.308,-72.202 L 11.308,-69.281 M 14.885,-84.151 L 14.885,-83.48 M 14.885,-79.573 L 14.885,-73.461 M 14.885,-73.461 L 14.885,-69.281 M 18.463,-87.125 L 18.463,-82.246 M 18.463,-81.574 L 18.463,-72.888 M 18.463,-69.373 L 18.463,-69.281 M 22.04,-90.099 L 22.04,-85.254 M 22.04,-81.437 L 22.04,-75.198 M 22.04,-75.198 L 22.04,-69.281 M 25.617,-93.073 L 25.617,-85.601 M 25.617,-81.126 L 25.617,-77.232 M 25.617,-76.97 L 25.617,-72.173 M 25.617,-72.173 L 25.617,-69.281 M 29.194,-96.047 L 29.194,-87.993 M 29.194,-86.323 L 29.194,-77.817 M 29.194,-75.371 L 29.194,-69.281 M 32.771,-99.021 L 32.771,-93.702 M 32.771,-91.955 L 32.771,-89.891 M 32.771,-89.891 L 32.771,-69.281 M 36.348,-101.995 L 36.348,-100.629 M 36.348,-96.3 L 36.348,-94.496 M 36.348,-90.254 L 36.348,-69.281 M 39.925,-103.491 L 39.925,-98.308 M 39.925,-93.795 L 39.925,-89.927 M 39.925,-85.655 L 39.925,-85.374 M 39.925,-79.176 L 39.925,-78.436 M 39.925,-75.881 L 39.925,-75.307 M 39.925,-75.307 L 39.925,-69.281 M 43.502,-103.491 L 43.502,-97.79 M 43.502,-93.86 L 43.502,-88.357 M 43.502,-84.538 L 43.502,-69.281 M 47.079,-103.491 L 47.079,-94.191 M 47.079,-88.203 L 47.079,-79.329 M 47.079,-74.805 L 47.079,-69.281 M 50.656,-103.491 L 50.656,-97.266 M 50.656,-95.861 L 50.656,-93.932 M 50.656,-90.206 L 50.656,-85.623 M 50.656,-85.165 L 50.656,-69.281 M 54.233,-103.491 L 54.233,-99.725 M 54.233,-99.599 L 54.233,-90.708 M 54.233,-85.065 L 54.233,-79.132 M 54.233,-76.895 L 54.233,-69.281 M 57.811,-103.491 L 57.811,-95.603 M 57.811,-92.313 L 57.811,-83.291 M 57.811,-80.807 L 57.811,-78.514 M 57.811,-78.514 L 57.811,-69.281 M 61.388,-103.491 L 61.388,-96.539 M 61.388,-90.073 L 61.388,-84.887 M 61.388,-84.135 L 61.388,-69.281 M 64.965,-103.491 L 64.965,-102.565 M 64.965,-98.962 L 64.965,-96.698 M 64.965,-95.009 L 64.965,-89.573 M 64.965,-85.666 L 64.965,-81.83 M 64.965,-81.055 L 64.965,-75.333 M 64.965,-75.333 L 64.965,-69.281 M 68.542,-103.491 L 68.542,-98.835 M 68.542,-95.265 L 68.542,-86.73 M 68.542,-81.327 L 68.542,-78.6 M 68.542,-75.341 L 68.542,-73.492 M 68.542,-72.568 L 68.542,-69.281 M 72.119,-103.491 L 72.119,-102.481 M 72.119,-96.827 L 72.119,-91.192 M 72.119,-90.24 L 72.119,-84.194 M 72.119,-81.51 L 72.119,-73.474 M 72.119,-73.474 L 72.119,-69.281 M 75.696,-103.491 L 75.696,-96.217 M 75.696,-94.133 L 75.696,-91.448 M 75.696,-90.344 L 75.696,-87.598 M 75.696,-86.898 L 75.696,-83.972 M 75.696,-80.644 L 75.696,-72.47 M 75.696,-72.284 L 75.696,-69.281 M 79.273,-103.491 L 79.273,-102.755 M 79.273,-97.713 L 79.273,-97.302 M 79.273,-95.228 L 79.273,-94.789 M 79.273,-91.71 L 79.273,-91.512 M 79.273,-88.699 L 79.273,-79.886 M 79.273,-75.565 L 79.273,-74.83 M 79.273,-72.65 L 79.273,-69.281 M 82.85,-103.491 L 82.85,-96.5 M 82.85,-94.93 L 82.85,-94.819 M 82.85,-92.522 L 82.85,-87.799 M 82.85,-87.799 L 82.85,-69.281 M 86.427,-103.491 L 86.427,-101.982 M 86.427,-97.082 L 86.427,-89.989 M 86.427,-86.323 L 86.427,-69.281 M 90.004,-103.491 L 90.004,-95.087 M 90.004,-91.182 L 90.004,-83.854 M 90.004,-79.898 L 90.004,-70.579 M 90.004,-70.159 L 90.004,-69.281 M 93.581,-103.491 L 93.581,-95.645 M 93.581,-95.378 L 93.581,-89.988 M 93.581,-85.837 L 93.581,-82.448 M 93.581,-82.448 L 93.581,-69.281 M 97.159,-103.491 L 97.159,-97.77 M 97.159,-91.57 L 97.159,-85.672 M 97.159,-81.393 L 97.159,-78.62 M 97.159,-75.043 L 97.159,-69.281 M 100.736,-103.491 L 100.736,-97.19 M 100.736,-91.978 L 100.736,-90.046 M 100.736,-86.289 L 100.736,-86.006 M 100.736,-86.006 L 100.736,-69.281 M 104.313,-103.491 L 104.313,-101.03 M 104.313,-96.871 L 104.313,-92.139 M 104.313,-90.685 L 104.313,-89.204 M 104.313,-87.637 L 104.313,-86.168 M 104.313,-83.834 L 104.313,-79.982 M 104.313,-79.982 L 104.313,-69.281 M 107.89,-103.491 L 107.89,-96.778 M 107.89,-93.458 L 107.89,-87.178 M 107.89,-84.02 L 107.89,-79.921 M 107.89,-79.921 L 107.89,-69.281 M 111.467,-103.491 L 111.467,-98.02 M 111.467,-92.236 L 111.467,-92.026 M 111.467,-87.465 L 111.467,-81.109 M 111.467,-76.547 L 111.467,-75.934 M 111.467,-75.934 L 111.467,-69.281 M 115.044,-103.491 L 115.044,-98.966 M 115.044,-96.658 L 115.044,-96.187 M 115.044,-93.224 L 115.044,-92.171 M 115.044,-89.009 L 115.044,-84.251 M 115.044,-82.27 L 115.044,-75.406 M 115.044,-75.271 L 115.044,-70.746 M 115.044,-70.151 L 115.044,-69.281 M 118.621,-103.491 L 118.621,-99.214 M 118.621,-97.487 L 118.621,-95.382 M 118.621,-93.076 L 118.621,-87.095 M 118.621,-81.595 L 118.621,-80.698 M 118.621,-77.806 L 118.621,-75.938 M 118.621,-71.491 L 118.621,-69.281 M 122.198,-103.491 L 122.198,-98.202 M 122.198,-97.287 L 122.198,-93.768 M 122.198,-89.093 L 122.198,-89.084 M 122.198,-85.38 L 122.198,-83.049 M 122.198,-82.033 L 122.198,-76.978 M 122.198,-75.004 L 122.198,-69.281 M 125.775,-103.491 L 125.775,-101.241 M 125.775,-100.146 L 125.775,-97.216 M 125.775,-90.884 L 125.775,-82.778 M 125.775,-80.279 L 125.775,-72.101 M 125.775,-71.004 L 125.775,-69.281 M 129.352,-103.491 L 129.352,-97.402 M 129.352,-94.712 L 129.352,-87.608 M 129.352,-81.183 L 129.352,-74.468 M 129.352,-73.257 L 129.352,-69.281 M 132.929,-103.491 L 132.929,-95.349 M 132.929,-94.768 L 132.929,-85.5 M 132.929,-78.826 L 132.929,-76.785 M 132.929,-76.466 L 132.929,-69.281 M 136.507,-103.491 L 136.507,-103.173 M 136.507,-101.535 L 136.507,-96.824 M 136.507,-91.852 L 136.507,-89.731 M 136.507,-89.342 L 136.507,-86.74 M 136.507,-80.107 L 136.507,-78.664 M 136.507,-74.597 L 136.507,-74.279 M 136.507,-72.641 L 136.507,-70.643 M 136.507,-70.643 L 136.507,-69.281 M 140.084,-103.491 L 140.084,-98.271 M 140.084,-96.959 L 140.084,-90.243 M 140.084,-89.643 L 140.084,-84.872 M 140.084,-78.574 L 140.084,-75.798 M 140.084,-73.812 L 140.084,-72.11 M 140.084,-72.027 L 140.084,-69.281 M 143.661,-103.491 L 143.661,-103.122 M 143.661,-100.495 L 143.661,-97.56 M 143.661,-97.072 L 143.661,-90.282 M 143.661,-90.059 L 143.661,-85.716 M 143.661,-84.81 L 143.661,-79.572 M 143.661,-79.572 L 143.661,-69.281 M 147.238,-103.491 L 147.238,-101.83 M 147.238,-97.048 L 147.238,-91.813 M 147.238,-91.293 L 147.238,-83.934 M 147.238,-81.899 L 147.238,-76.693 M 147.238,-76.693 L 147.238,-69.281 M 150.815,-103.491 L 150.815,-103.4 M 150.815,-99.96 L 150.815,-92.784 M 150.815,-90.749 L 150.815,-83.181 M 150.815,-77.929 L 150.815,-74.511 M 150.815,-74.511 L 150.815,-69.281 M 154.392,-101.995 L 154.392,-96.66 M 154.392,-93.808 L 154.392,-88.151 M 154.392,-84.517 L 154.392,-83.145 M 154.392,-82.7 L 154.392,-77.916 M 154.392,-77.916 L 154.392,-69.281 M 157.969,-99.021 L 157.969,-95.552 M 157.969,-89.52 L 157.969,-81.944 M 157.969,-81.572 L 157.969,-75.266 M 157.969,-75.266 L 157.969,-69.281 M 161.546,-96.047 L 161.546,-86.858 M 161.546,-82.946 L 161.546,-80.638 M 161.546,-80.638 L 161.546,-69.281 M 165.123,-93.073 L 165.123,-90.283 M 165.123,-87.392 L 165.123,-79.491 M 165.123,-78.227 L 165.123,-78.035 M 165.123,-77.846 L 165.123,-69.281 M 168.7,-90.099 L 168.7,-86.076 M 168.7,-85.796 L 168.7,-83.853 M 168.7,-79.964 L 168.7,-77.075 M 168.7,-75.85 L 168.7,-72.087 M 168.7,-72.087 L 168.7,-69.281 M 172.277,-87.125 L 172.277,-81.733 M 172.277,-78.606 L 172.277,-69.281 M 175.855,-84.151 L 175.855,-79.968 M 175.855,-76.257 L 175.855,-75.075 M 175.855,-75.075 L 175.855,-69.281 M 179.432,-81.177 L 179.432,-78.696 M 179.432,-72.533 L 179.432,-70.545 M 179.432,-70.545 L 179.432,-69.281 M 183.009,-78.203 L 183.009,-71.172 M 183.009,-69.304 L 183.009,-69.281 M 186.586,-75.229 L 186.586,-70.111 M 186.586,-69.882 L 186.586,-69.281 M 190.163,-72.255 L 190.163,-69.765 M 190.163,-69.765 L 190.163,-69.281" stroke="#57554F" stroke-width="1.152"/><path d=" M 0,0 L 0,-66.281 L -1.5,-69.281 L 192.24,-69.281 L 190.74,-66.281 L 190.74,0" fill="#F2EDDE" stroke="#57554F" stroke-width="1.152"/><path d=" M -2.919,0 L 193.659,0 L 193.659,-22.099 L -2.919,-22.099 L -2.919,0" fill="#E9DEC5" stroke="#57554F" stroke-width="1.152"/><path d=" M 0,-22.099 L -2.919,-22.099 L -2.919,0 L 193.659,0 L 193.659,-22.099 L 190.74,-22.099" stroke="#57554F" stroke-width="1.152" stroke-linejoin="round" stroke-linecap="square"/><path d=" M 2.304,-22.099 L 188.436,-22.099" stroke="#57554F" stroke-width="1.152"/><g transform="translate(95.37 -92.088)"><path d=" M 0,0"/><path d=" M -5.44,4.523 L -5.44,-10.11 L -6.776,-10.11 L -6.776,-14.766 L 6.776,-14.766 L 6.776,-10.11 L 5.44,-10.11 L 5.44,4.523" fill="#F2EDDE" stroke="#57554F" stroke-width="1.152"/><path d=" M -3.264,-10.11 L 3.264,-10.11" stroke="#57554F" stroke-width="1.152"/></g><g transform="translate(19.074 -39.15)"><path d=" M 0,0"/><path d=" M -6.28,-9.331 L 6.28,-9.331 L 6.28,9.331 L -6.28,9.331 L -6.28,-9.331" fill="#F2EDDE" stroke="#57554F" stroke-width="1.152"/><path d=" M -3.502,-6.553 L 3.502,-6.553 L 3.502,6.553 L -3.502,6.553 L -3.502,-6.553" fill="#57554F" stroke="#57554F" stroke-width="1.152"/><path d=" M 0,-6.553 L 0,6.553 M -3.502,0 L 3.502,0" stroke="#F2EDDE" stroke-width="1.152"/><path d=" M -3.502,-6.553 L 3.502,-6.553 L 3.502,6.553 L -3.502,6.553 L -3.502,-6.553" stroke="#57554F" stroke-width="1.152"/></g></g><g><path d=" M 0,0"/><path d=" M -4.077,0.076 L -2.935,-0.076 L -3.302,-2.008 L -3.536,-3.086 L -3.758,-3.944 L -4.077,-4.999 L -4.698,-6.872 L -5.069,-6.771 L -4.659,-4.849 L -4.462,-3.787 L -4.34,-2.94 L -4.228,-1.872 L -4.077,0.076" fill="#57554F"/><path d=" M -5.65,-0.034 L -4.5,0.034 L -4.502,-1.766 L -4.492,-2.761 L -4.469,-3.556 L -4.424,-4.552 L -4.32,-6.351 L -4.701,-6.397 L -5.02,-4.619 L -5.186,-3.625 L -5.305,-2.826 L -5.436,-1.827 L -5.65,-0.034" fill="#57554F"/><path d=" M -11.092,0.094 L -9.955,-0.094 L -10.502,-2.743 L -10.857,-4.217 L -11.2,-5.385 L -11.697,-6.818 L -12.674,-9.358 L -13.038,-9.234 L -12.27,-6.634 L -11.895,-5.193 L -11.654,-4.037 L -11.424,-2.575 L -11.092,0.094" fill="#57554F"/><path d=" M -15.312,0.065 L -14.167,-0.065 L -14.466,-1.733 L -14.654,-2.664 L -14.83,-3.406 L -15.081,-4.322 L -15.568,-5.948 L -15.942,-5.861 L -15.668,-4.193 L -15.538,-3.272 L -15.461,-2.539 L -15.395,-1.616 L -15.312,0.065" fill="#57554F"/><path d=" M -24.248,0.186 L -23.158,-0.186 L -23.728,-1.521 L -24.102,-2.263 L -24.463,-2.834 L -24.978,-3.491 L -25.966,-4.598 L -26.271,-4.364 L -25.468,-3.139 L -25.084,-2.459 L -24.842,-1.91 L -24.605,-1.188 L -24.248,0.186" fill="#57554F"/><path d=" M -29,0.225 L -27.94,-0.225 L -29.272,-3.095 L -30.149,-4.647 L -31.005,-5.81 L -32.245,-7.134 L -34.662,-9.352 L -34.931,-9.078 L -32.685,-6.718 L -31.58,-5.364 L -30.854,-4.223 L -30.122,-2.694 L -29,0.225" fill="#57554F"/><path d=" M -39.75,0.249 L -38.712,-0.249 L -39.712,-2.088 L -40.372,-3.082 L -41.013,-3.813 L -41.926,-4.613 L -43.685,-5.91 L -43.929,-5.613 L -42.33,-4.16 L -41.553,-3.323 L -41.05,-2.614 L -40.541,-1.643 L -39.75,0.249" fill="#57554F"/><path d=" M 194.069,-0.132 L 195.191,0.132 L 195.754,-2.735 L 196.135,-4.291 L 196.523,-5.507 L 197.121,-7.013 L 198.34,-9.716 L 197.996,-9.887 L 196.576,-7.269 L 195.852,-5.776 L 195.356,-4.542 L 194.847,-2.971 L 194.069,-0.132" fill="#57554F"/><path d=" M 200.736,-0.157 L 201.845,0.157 L 202.313,-1.895 L 202.627,-2.995 L 202.948,-3.846 L 203.447,-4.897 L 204.471,-6.786 L 204.143,-6.986 L 202.924,-5.197 L 202.297,-4.163 L 201.864,-3.292 L 201.418,-2.175 L 200.736,-0.157" fill="#57554F"/><path d=" M 213.85,-0.313 L 214.816,0.313 L 215.598,-1.086 L 216.084,-1.764 L 216.553,-2.227 L 217.286,-2.74 L 218.81,-3.587 L 218.646,-3.934 L 216.997,-3.28 L 216.122,-2.823 L 215.492,-2.345 L 214.838,-1.644 L 213.85,-0.313" fill="#57554F"/><path d=" M -57.222,0 L -50.062,0 M -44.269,0 L -38.336,0 M -32.344,0 L -26.545,0 M -19.124,0 L -17.003,0 M -15.35,0 L -14.3,0 M -9.984,0 L -2.824,0 M 2.97,0 L 8.903,0 M 14.895,0 L 20.694,0 M 28.115,0 L 30.235,0 M 31.889,0 L 32.938,0 M 37.255,0 L 44.415,0 M 50.208,0 L 56.141,0 M 62.133,0 L 67.932,0 M 75.353,0 L 77.474,0 M 79.127,0 L 80.176,0 M 84.493,0 L 91.653,0 M 97.447,0 L 103.38,0 M 109.371,0 L 115.17,0 M 122.592,0 L 124.712,0 M 126.366,0 L 127.415,0 M 131.732,0 L 138.892,0 M 144.685,0 L 150.618,0 M 156.61,0 L 162.409,0 M 169.83,0 L 171.951,0 M 173.604,0 L 174.653,0 M 178.97,0 L 186.13,0 M 191.923,0 L 197.856,0 M 203.848,0 L 209.647,0 M 217.069,0 L 219.189,0 M 220.843,0 L 221.892,0 M 226.209,0 L 233.368,0 M 239.162,0 L 245.095,0 M -19.074,0 L 209.814,0" stroke="#57554F" stroke-width="1.152"/></g><g transform="translate(38.148 0)"><path d=" M 0,0"/><path d=" M 38.148,-103.491 L -3,-69.281 L 155.592,-69.281 L 114.444,-103.491 L 38.148,-103.491" fill="#B27559" stroke="#000000" stroke-width="1.152"/><path d=" M 0.604,-72.278 L 0.604,-70.593 M 0.604,-70.593 L 0.604,-69.281 M 4.209,-75.274 L 4.209,-74.629 M 4.209,-73.88 L 4.209,-70.085 M 4.209,-70.085 L 4.209,-69.281 M 7.813,-78.271 L 7.813,-72.193 M 7.813,-70.413 L 7.813,-69.281 M 11.417,-81.268 L 11.417,-77.015 M 11.417,-72.639 L 11.417,-71.398 M 11.417,-71.398 L 11.417,-69.281 M 15.022,-84.264 L 15.022,-78.383 M 15.022,-77.78 L 15.022,-77.056 M 15.022,-77.056 L 15.022,-69.281 M 18.626,-87.261 L 18.626,-79.214 M 18.626,-78.427 L 18.626,-74.743 M 18.626,-74.743 L 18.626,-69.281 M 22.231,-90.258 L 22.231,-87.264 M 22.231,-86.4 L 22.231,-77.485 M 22.231,-75.414 L 22.231,-69.281 M 25.835,-93.254 L 25.835,-90.467 M 25.835,-89.926 L 25.835,-84.031 M 25.835,-81.149 L 25.835,-73.554 M 25.835,-73.053 L 25.835,-72.701 M 25.835,-72.701 L 25.835,-69.281 M 29.439,-96.251 L 29.439,-88.783 M 29.439,-83.708 L 29.439,-83.024 M 29.439,-81.815 L 29.439,-77.547 M 29.439,-74.81 L 29.439,-71.244 M 29.439,-70.565 L 29.439,-69.281 M 33.044,-99.247 L 33.044,-96.1 M 33.044,-89.889 L 33.044,-82.875 M 33.044,-77.394 L 33.044,-70.273 M 33.044,-70.273 L 33.044,-69.281 M 36.648,-102.244 L 36.648,-95.911 M 36.648,-95.548 L 36.648,-89.839 M 36.648,-84.575 L 36.648,-83.047 M 36.648,-83.047 L 36.648,-69.281 M 40.252,-103.491 L 40.252,-99.405 M 40.252,-93.951 L 40.252,-86.837 M 40.252,-82.554 L 40.252,-76.955 M 40.252,-76.29 L 40.252,-71.407 M 40.252,-70.335 L 40.252,-69.281 M 43.857,-103.491 L 43.857,-100.564 M 43.857,-99.071 L 43.857,-97.562 M 43.857,-95.042 L 43.857,-87.785 M 43.857,-83.151 L 43.857,-81.298 M 43.857,-76.61 L 43.857,-69.281 M 47.461,-103.491 L 47.461,-101.383 M 47.461,-100.883 L 47.461,-96.566 M 47.461,-95.951 L 47.461,-86.907 M 47.461,-85.955 L 47.461,-79.874 M 47.461,-79.37 L 47.461,-73.298 M 47.461,-71.366 L 47.461,-69.281 M 51.065,-103.491 L 51.065,-97.902 M 51.065,-96.529 L 51.065,-89.918 M 51.065,-86.505 L 51.065,-82.664 M 51.065,-82.664 L 51.065,-69.281 M 54.67,-103.491 L 54.67,-97.611 M 54.67,-94.565 L 54.67,-88.887 M 54.67,-85.465 L 54.67,-77.214 M 54.67,-72.701 L 54.67,-69.281 M 58.274,-103.491 L 58.274,-100.635 M 58.274,-98.061 L 58.274,-90.605 M 58.274,-87.734 L 58.274,-87.668 M 58.274,-81.298 L 58.274,-79.811 M 58.274,-79.811 L 58.274,-69.281 M 61.879,-103.491 L 61.879,-99.754 M 61.879,-96.216 L 61.879,-87.585 M 61.879,-86.14 L 61.879,-79.499 M 61.879,-74.939 L 61.879,-73.151 M 61.879,-73.151 L 61.879,-69.281 M 65.483,-103.491 L 65.483,-101.301 M 65.483,-95.882 L 65.483,-87.204 M 65.483,-85.838 L 65.483,-83.295 M 65.483,-81.296 L 65.483,-78.195 M 65.483,-77.95 L 65.483,-69.281 M 69.087,-103.491 L 69.087,-95.881 M 69.087,-90.875 L 69.087,-85.319 M 69.087,-79.383 L 69.087,-76.801 M 69.087,-76.801 L 69.087,-69.281 M 72.692,-103.491 L 72.692,-100.172 M 72.692,-94.123 L 72.692,-90.647 M 72.692,-84.132 L 72.692,-83.379 M 72.692,-77.511 L 72.692,-76.664 M 72.692,-74.371 L 72.692,-69.281 M 76.296,-103.491 L 76.296,-101.689 M 76.296,-96.881 L 76.296,-89.096 M 76.296,-86.974 L 76.296,-83.887 M 76.296,-78.428 L 76.296,-77.668 M 76.296,-77.668 L 76.296,-69.281 M 79.9,-103.491 L 79.9,-100.885 M 79.9,-96.502 L 79.9,-95.874 M 79.9,-91.414 L 79.9,-88.538 M 79.9,-88.435 L 79.9,-79.508 M 79.9,-75.585 L 79.9,-72.802 M 79.9,-69.501 L 79.9,-69.281 M 83.505,-103.491 L 83.505,-98.81 M 83.505,-96.709 L 83.505,-94.349 M 83.505,-87.648 L 83.505,-85.468 M 83.505,-85.468 L 83.505,-69.281 M 87.109,-103.491 L 87.109,-100.82 M 87.109,-96.764 L 87.109,-93.498 M 87.109,-91.858 L 87.109,-90.917 M 87.109,-85.114 L 87.109,-79.716 M 87.109,-77.341 L 87.109,-69.281 M 90.713,-103.491 L 90.713,-99.228 M 90.713,-92.775 L 90.713,-91.655 M 90.713,-90.289 L 90.713,-83.773 M 90.713,-81.2 L 90.713,-75.685 M 90.713,-72.365 L 90.713,-71.296 M 90.713,-71.296 L 90.713,-69.281 M 94.318,-103.491 L 94.318,-97.679 M 94.318,-96.308 L 94.318,-94.092 M 94.318,-90.003 L 94.318,-86.619 M 94.318,-81.627 L 94.318,-80.108 M 94.318,-80.108 L 94.318,-69.281 M 97.922,-103.491 L 97.922,-100.353 M 97.922,-96.11 L 97.922,-92.196 M 97.922,-89.59 L 97.922,-85.739 M 97.922,-79.03 L 97.922,-75.58 M 97.922,-75.58 L 97.922,-69.281 M 101.527,-103.491 L 101.527,-101.567 M 101.527,-100.66 L 101.527,-94.503 M 101.527,-91.39 L 101.527,-83.572 M 101.527,-79.238 L 101.527,-75.844 M 101.527,-75.844 L 101.527,-69.281 M 105.131,-103.491 L 105.131,-95.67 M 105.131,-95.34 L 105.131,-88.551 M 105.131,-82.136 L 105.131,-77.338 M 105.131,-77.338 L 105.131,-69.281 M 108.735,-103.491 L 108.735,-102.208 M 108.735,-98.245 L 108.735,-90.654 M 108.735,-85.735 L 108.735,-78.186 M 108.735,-75.754 L 108.735,-72.577 M 108.735,-72.577 L 108.735,-69.281 M 112.34,-103.491 L 112.34,-100.832 M 112.34,-96.639 L 112.34,-91.684 M 112.34,-88.804 L 112.34,-84.096 M 112.34,-81.192 L 112.34,-79.712 M 112.34,-76.215 L 112.34,-69.281 M 115.944,-102.244 L 115.944,-100.576 M 115.944,-96.867 L 115.944,-88.187 M 115.944,-84.304 L 115.944,-80.994 M 115.944,-78.477 L 115.944,-77.046 M 115.944,-77.046 L 115.944,-69.281 M 119.548,-99.247 L 119.548,-97.122 M 119.548,-90.438 L 119.548,-88.786 M 119.548,-83.581 L 119.548,-81.424 M 119.548,-78.642 L 119.548,-75.114 M 119.548,-73.177 L 119.548,-69.281 M 123.153,-96.251 L 123.153,-91.509 M 123.153,-90.614 L 123.153,-82.848 M 123.153,-80.445 L 123.153,-78.697 M 123.153,-78.697 L 123.153,-69.281 M 126.757,-93.254 L 126.757,-86.955 M 126.757,-86.371 L 126.757,-86.142 M 126.757,-83.68 L 126.757,-79.757 M 126.757,-73.781 L 126.757,-73.574 M 126.757,-72.888 L 126.757,-69.281 M 130.361,-90.258 L 130.361,-84.113 M 130.361,-78.719 L 130.361,-75.897 M 130.361,-72.229 L 130.361,-70.412 M 130.361,-70.412 L 130.361,-69.281 M 133.966,-87.261 L 133.966,-85.471 M 133.966,-80.457 L 133.966,-76.387 M 133.966,-75.93 L 133.966,-69.281 M 137.57,-84.264 L 137.57,-80.564 M 137.57,-77.91 L 137.57,-69.286 M 137.57,-69.286 L 137.57,-69.281 M 141.175,-81.268 L 141.175,-79.236 M 141.175,-76.236 L 141.175,-70.583 M 141.175,-70.583 L 141.175,-69.281 M 144.779,-78.271 L 144.779,-70.338 M 144.779,-69.423 L 144.779,-69.281 M 148.383,-75.274 L 148.383,-74.264 M 148.383,-69.88 L 148.383,-69.281 M 151.988,-72.278 L 151.988,-72.212 M 151.988,-72.208 L 151.988,-70.623 M 151.988,-70.623 L 151.988,-69.281" stroke="#000000" stroke-width="1.152"/><path d=" M 0,0 L 0,-66.281 L -1.5,-69.281 L 154.092,-69.281 L 152.592,-66.281 L 152.592,0" fill="#F2EDDE" stroke="#000000" stroke-width="1.152"/><path d=" M -2.919,0 L 155.511,0 L 155.511,-22.099 L -2.919,-22.099 L -2.919,0" fill="#E5D6B7" stroke="#000000" stroke-width="1.152"/><path d=" M 0,-22.099 L -2.919,-22.099 L -2.919,0 L 155.511,0 L 155.511,-22.099 L 152.592,-22.099" stroke="#000000" stroke-width="1.152" stroke-linejoin="round" stroke-linecap="square"/><path d=" M 2.304,-22.099 L 150.288,-22.099" stroke="#000000" stroke-width="1.152"/><g transform="translate(38.148 -80.176)"><path d=" M 0,0"/><path d=" M 9.252,12.047 L -9.252,12.047 L -9.252,-10.379 L 0,-15.268 L 9.252,-10.379 L 9.252,12.047" fill="#F2EDDE"/><path d=" M -9.252,10.895 L -9.252,-10.379 L 0,-15.268 L 9.252,-10.379 L 9.252,10.895" stroke="#000000" stroke-width="1.152"/><g><path d=" M 0,0"/><path d=" M -4.796,-6.44 L 4.796,-6.44 L 4.796,6.44 L -4.796,6.44 L -4.796,-6.44" fill="#F2EDDE" stroke="#000000" stroke-width="1.152"/><path d=" M -4.796,-6.44 L 4.796,-6.44 L 4.796,6.44 L -4.796,6.44 L -4.796,-6.44" fill="#000000" stroke="#000000" stroke-width="1.152"/><path d=" M 0,-6.44 L 0,6.44 M -4.796,0 L 4.796,0" stroke="#F2EDDE" stroke-width="1.152"/><path d=" M -4.796,-6.44 L 4.796,-6.44 L 4.796,6.44 L -4.796,6.44 L -4.796,-6.44" stroke="#000000" stroke-width="1.152"/></g></g><g transform="translate(76.296 -80.176)"><path d=" M 0,0"/><path d=" M 9.252,12.047 L -9.252,12.047 L -9.252,-10.379 L 0,-15.268 L 9.252,-10.379 L 9.252,12.047" fill="#F2EDDE"/><path d=" M -9.252,10.895 L -9.252,-10.379 L 0,-15.268 L 9.252,-10.379 L 9.252,10.895" stroke="#000000" stroke-width="1.152"/><g><path d=" M 0,0"/><path d=" M -4.796,-6.44 L 4.796,-6.44 L 4.796,6.44 L -4.796,6.44 L -4.796,-6.44" fill="#F2EDDE" stroke="#000000" stroke-width="1.152"/><path d=" M -4.796,-6.44 L 4.796,-6.44 L 4.796,6.44 L -4.796,6.44 L -4.796,-6.44" fill="#000000" stroke="#000000" stroke-width="1.152"/><path d=" M 0,-6.44 L 0,6.44 M -4.796,0 L 4.796,0" stroke="#F2EDDE" stroke-width="1.152"/><path d=" M -4.796,-6.44 L 4.796,-6.44 L 4.796,6.44 L -4.796,6.44 L -4.796,-6.44" stroke="#000000" stroke-width="1.152"/></g></g><g transform="translate(114.444 -80.176)"><path d=" M 0,0"/><path d=" M 9.252,12.047 L -9.252,12.047 L -9.252,-10.379 L 0,-15.268 L 9.252,-10.379 L 9.252,12.047" fill="#F2EDDE"/><path d=" M -9.252,10.895 L -9.252,-10.379 L 0,-15.268 L 9.252,-10.379 L 9.252,10.895" stroke="#000000" stroke-width="1.152"/><g><path d=" M 0,0"/><path d=" M -4.796,-6.44 L 4.796,-6.44 L 4.796,6.44 L -4.796,6.44 L -4.796,-6.44" fill="#F2EDDE" stroke="#000000" stroke-width="1.152"/><path d=" M -4.796,-6.44 L 4.796,-6.44 L 4.796,6.44 L -4.796,6.44 L -4.796,-6.44" fill="#000000" stroke="#000000" stroke-width="1.152"/><path d=" M 0,-6.44 L 0,6.44 M -4.796,0 L 4.796,0" stroke="#F2EDDE" stroke-width="1.152"/><path d=" M -4.796,-6.44 L 4.796,-6.44 L 4.796,6.44 L -4.796,6.44 L -4.796,-6.44" stroke="#000000" stroke-width="1.152"/></g></g><g transform="translate(19.074 -39.15)"><path d=" M 0,0"/><path d=" M -6.28,-9.331 L 6.28,-9.331 L 6.28,9.331 L -6.28,9.331 L -6.28,-9.331" fill="#F2EDDE" stroke="#000000" stroke-width="1.152"/><path d=" M -3.502,-6.553 L 3.502,-6.553 L 3.502,6.553 L -3.502,6.553 L -3.502,-6.553" fill="#000000" stroke="#000000" stroke-width="1.152"/><path d=" M 0,-6.553 L 0,6.553 M -3.502,0 L 3.502,0" stroke="#F2EDDE" stroke-width="1.152"/><path d=" M -3.502,-6.553 L 3.502,-6.553 L 3.502,6.553 L -3.502,6.553 L -3.502,-6.553" stroke="#000000" stroke-width="1.152"/></g><g transform="translate(57.222 -39.15)"><path d=" M 0,0"/><path d=" M -6.28,-9.331 L 6.28,-9.331 L 6.28,9.331 L -6.28,9.331 L -6.28,-9.331" fill="#F2EDDE" stroke="#000000" stroke-width="1.152"/><path d=" M -3.502,-6.553 L 3.502,-6.553 L 3.502,6.553 L -3.502,6.553 L -3.502,-6.553" fill="#000000" stroke="#000000" stroke-width="1.152"/><path d=" M 0,-6.553 L 0,6.553 M -3.502,0 L 3.502,0" stroke="#F2EDDE" stroke-width="1.152"/><path d=" M -3.502,-6.553 L 3.502,-6.553 L 3.502,6.553 L -3.502,6.553 L -3.502,-6.553" stroke="#000000" stroke-width="1.152"/></g><g transform="translate(95.37 -39.15)"><path d=" M 0,0"/><path d=" M -6.28,-9.331 L 6.28,-9.331 L 6.28,9.331 L -6.28,9.331 L -6.28,-9.331" fill="#F2EDDE" stroke="#000000" stroke-width="1.152"/><path d=" M -3.502,-6.553 L 3.502,-6.553 L 3.502,6.553 L -3.502,6.553 L -3.502,-6.553" fill="#000000" stroke="#000000" stroke-width="1.152"/><path d=" M 0,-6.553 L 0,6.553 M -3.502,0 L 3.502,0" stroke="#F2EDDE" stroke-width="1.152"/><path d=" M -3.502,-6.553 L 3.502,-6.553 L 3.502,6.553 L -3.502,6.553 L -3.502,-6.553" stroke="#000000" stroke-width="1.152"/></g><g transform="translate(133.518 -39.15)"><path d=" M 0,0"/><path d=" M -6.28,-9.331 L 6.28,-9.331 L 6.28,9.331 L -6.28,9.331 L -6.28,-9.331" fill="#F2EDDE" stroke="#000000" stroke-width="1.152"/><path d=" M -3.502,-6.553 L 3.502,-6.553 L 3.502,6.553 L -3.502,6.553 L -3.502,-6.553" fill="#000000" stroke="#000000" stroke-width="1.152"/><path d=" M 0,-6.553 L 0,6.553 M -3.502,0 L 3.502,0" stroke="#F2EDDE" stroke-width="1.152"/><path d=" M -3.502,-6.553 L 3.502,-6.553 L 3.502,6.553 L -3.502,6.553 L -3.502,-6.553" stroke="#000000" stroke-width="1.152"/></g></g><g transform="translate(38.148 0)"><path d=" M 0,0"/><path d=" M -4.935,-0.017 L -3.783,0.017 L -3.824,-2.22 L -3.839,-3.46 L -3.842,-4.451 L -3.834,-5.693 L -3.807,-7.931 L -4.19,-7.954 L -4.433,-5.727 L -4.561,-4.487 L -4.654,-3.493 L -4.759,-2.251 L -4.935,-0.017" fill="#000000"/><path d=" M -9.432,0.052 L -8.285,-0.052 L -8.626,-2.614 L -8.842,-4.04 L -9.046,-5.179 L -9.339,-6.591 L -9.911,-9.115 L -10.289,-9.046 L -9.931,-6.489 L -9.758,-5.072 L -9.652,-3.941 L -9.558,-2.521 L -9.432,0.052" fill="#000000"/><path d=" M -13.989,0.15 L -12.876,-0.15 L -13.738,-2.939 L -14.303,-4.479 L -14.855,-5.681 L -15.659,-7.122 L -17.235,-9.634 L -17.567,-9.442 L -16.188,-6.835 L -15.511,-5.377 L -15.071,-4.195 L -14.637,-2.672 L -13.989,0.15" fill="#000000"/><path d=" M -28.036,0.361 L -27.138,-0.361 L -28.803,-2.263 L -29.888,-3.212 L -30.921,-3.796 L -32.355,-4.277 L -35.077,-4.852 L -35.172,-4.48 L -32.541,-3.69 L -31.249,-3.133 L -30.397,-2.551 L -29.498,-1.622 L -28.036,0.361" fill="#000000"/><path d=" M 155.346,-0.066 L 156.49,0.066 L 156.635,-2.14 L 156.741,-3.354 L 156.86,-4.318 L 157.05,-5.527 L 157.446,-7.711 L 157.072,-7.798 L 156.464,-5.656 L 156.152,-4.453 L 155.934,-3.479 L 155.706,-2.258 L 155.346,-0.066" fill="#000000"/><path d=" M 158.687,-0.05 L 159.835,0.05 L 159.882,-1.725 L 159.924,-2.704 L 159.979,-3.483 L 160.073,-4.461 L 160.274,-6.23 L 159.896,-6.297 L 159.48,-4.56 L 159.266,-3.586 L 159.114,-2.799 L 158.95,-1.815 L 158.687,-0.05" fill="#000000"/><path d=" M 163.753,-0.102 L 164.887,0.102 L 165.082,-1.592 L 165.219,-2.514 L 165.368,-3.24 L 165.605,-4.15 L 166.099,-5.799 L 165.738,-5.932 L 165.037,-4.348 L 164.677,-3.448 L 164.426,-2.707 L 164.163,-1.774 L 163.753,-0.102" fill="#000000"/><path d=" M 174.338,-0.241 L 175.385,0.241 L 175.951,-1.242 L 176.316,-2.001 L 176.679,-2.558 L 177.249,-3.227 L 178.432,-4.404 L 178.18,-4.694 L 176.832,-3.668 L 176.127,-3.034 L 175.629,-2.454 L 175.116,-1.672 L 174.338,-0.241" fill="#000000"/><path d=" M 180.351,-0.264 L 181.375,0.264 L 181.98,-1.141 L 182.365,-1.848 L 182.744,-2.357 L 183.34,-2.959 L 184.581,-4.005 L 184.355,-4.315 L 182.96,-3.434 L 182.226,-2.872 L 181.704,-2.342 L 181.165,-1.611 L 180.351,-0.264" fill="#000000"/><path d=" M -57.222,0 L -56.938,0 M -50.205,0 L -47.335,0 M -39.793,0 L -32.77,0 M -32.087,0 L -24.842,0 M -22.347,0 L -21.702,0 M -17.803,0 L -17.518,0 M -10.786,0 L -7.916,0 M -0.374,0 L 6.649,0 M 7.332,0 L 14.578,0 M 17.073,0 L 17.718,0 M 21.617,0 L 21.901,0 M 28.633,0 L 31.504,0 M 39.046,0 L 46.069,0 M 46.752,0 L 53.997,0 M 56.492,0 L 57.137,0 M 61.036,0 L 61.321,0 M 68.053,0 L 70.923,0 M 78.465,0 L 85.488,0 M 86.171,0 L 93.417,0 M 95.911,0 L 96.557,0 M 100.456,0 L 100.74,0 M 107.472,0 L 110.342,0 M 117.885,0 L 124.907,0 M 125.59,0 L 132.836,0 M 135.331,0 L 135.976,0 M 139.875,0 L 140.159,0 M 146.892,0 L 149.762,0 M 157.304,0 L 164.327,0 M 165.01,0 L 172.255,0 M 174.75,0 L 175.395,0 M 179.294,0 L 179.579,0 M 186.311,0 L 189.181,0 M 196.723,0 L 203.746,0 M 204.429,0 L 209.814,0 M -19.074,0 L 171.666,0" stroke="#000000" stroke-width="1.152"/></g></g><style/><defs/></svg>