<?xml version="1.0" encoding="UTF-8" standalone="no"?><svg width="800" height="600" xmlns="http://www.w3.org/2000/svg" stroke-linejoin="round" stroke-linecap="round" fill-rule="evenodd" fill="none"><rect x="0" y="0" width="800" height="600" fill="#F2EDDE"/><g transform="scale(100 100) translate(0.5 0.5)"><path d=" M 0,0"/><g><path d=" M 0,0"/><g><path d=" M 0,0"/><path d=" M 3.125,0 L 3.875,0 L 3.875,-0.45 L 3.125,-0.45 L 3.125,0" fill="#8B796B"/><path d=" M 3.875,-0.15 L 3.875,-0.25 L 3.125,-0.25 L 3.125,-0.15 M 3.875,-0.25 L 3.875,-0.35 L 3.125,-0.35 L 3.125,-0.25 M 3.875,-0.35 L 3.875,-0.45 L 3.125,-0.45 L 3.125,-0.35" stroke="#000000" stroke-width="0.02"/><path d=" M 3.5,-1.15 L 3.5,-0.65 M 3.5,-0.65 L 3.559,-0.731 M 3.5,-0.65 L 3.441,-0.731" stroke="#000000" stroke-width="0.02"/><path d=" M -0.14,5.14 L -0.14,0.86 L 2,3 L 2,3 L -0.14,5.14" fill="#D08968"/><path d=" M -0.057,5.057 L -0.14,5.057 L -0.14,5.057 M 0.022,4.978 L -0.14,4.978 L -0.14,4.978 M 0.102,4.898 L -0.077,4.898 M -0.139,4.898 L -0.14,4.898 L -0.14,4.898 M 0.181,4.819 L -0.069,4.819 M 0.26,4.74 L 0.081,4.74 M 0.021,4.74 L -0.14,4.74 L -0.14,4.74 M 0.34,4.66 L 0.089,4.66 M 0.001,4.66 L -0.14,4.66 L -0.14,4.66 M 0.419,4.581 L 0.194,4.581 M 0.161,4.581 L -0.031,4.581 M -0.084,4.581 L -0.14,4.581 L -0.14,4.581 M 0.498,4.502 L 0.273,4.502 M 0.234,4.502 L 0.03,4.502 M -0.055,4.502 L -0.14,4.502 L -0.14,4.502 M 0.577,4.423 L 0.235,4.423 M 0.191,4.423 L 0.002,4.423 M -0.033,4.423 L -0.14,4.423 L -0.14,4.423 M 0.657,4.343 L 0.443,4.343 M 0.38,4.343 L 0.171,4.343 M 0.126,4.343 L -0.088,4.343 M 0.736,4.264 L 0.518,4.264 M 0.475,4.264 L 0.215,4.264 M 0.178,4.264 L -0.04,4.264 M -0.082,4.264 L -0.14,4.264 L -0.14,4.264 M 0.815,4.185 L 0.473,4.185 M 0.428,4.185 L 0.24,4.185 M 0.205,4.185 L -0.138,4.185 M 0.894,4.106 L 0.715,4.106 M 0.654,4.106 L 0.469,4.106 M 0.411,4.106 L 0.232,4.106 M 0.171,4.106 L -0.014,4.106 M -0.071,4.106 L -0.14,4.106 L -0.14,4.106 M 0.974,4.026 L 0.76,4.026 M 0.697,4.026 L 0.488,4.026 M 0.443,4.026 L 0.229,4.026 M 0.166,4.026 L -0.043,4.026 M -0.088,4.026 L -0.14,4.026 L -0.14,4.026 M 1.053,3.947 L 0.71,3.947 M 0.666,3.947 L 0.478,3.947 M 0.442,3.947 L 0.1,3.947 M 0.056,3.947 L -0.133,3.947 M 1.132,3.868 L 0.987,3.868 M 0.932,3.868 L 0.766,3.868 M 0.692,3.868 L 0.547,3.868 M 0.492,3.868 L 0.326,3.868 M 0.251,3.868 L 0.106,3.868 M 0.052,3.868 L -0.114,3.868 M 1.211,3.789 L 0.987,3.789 M 0.954,3.789 L 0.762,3.789 M 0.708,3.789 L 0.484,3.789 M 0.451,3.789 L 0.259,3.789 M 0.206,3.789 L -0.019,3.789 M -0.052,3.789 L -0.14,3.789 L -0.14,3.789 M 1.291,3.709 L 1.112,3.709 M 1.052,3.709 L 0.801,3.709 M 0.739,3.709 L 0.56,3.709 M 0.5,3.709 L 0.25,3.709 M 0.187,3.709 L 0.008,3.709 M -0.052,3.709 L -0.14,3.709 L -0.14,3.709 M 1.37,3.63 L 1.157,3.63 M 1.093,3.63 L 0.884,3.63 M 0.839,3.63 L 0.626,3.63 M 0.562,3.63 L 0.354,3.63 M 0.308,3.63 L 0.095,3.63 M 0.031,3.63 L -0.14,3.63 L -0.14,3.63 M 1.449,3.551 L 1.224,3.551 M 1.192,3.551 L 1,3.551 M 0.946,3.551 L 0.722,3.551 M 0.689,3.551 L 0.497,3.551 M 0.443,3.551 L 0.219,3.551 M 0.186,3.551 L -0.006,3.551 M -0.059,3.551 L -0.14,3.551 L -0.14,3.551 M 1.528,3.472 L 1.303,3.472 M 1.264,3.472 L 1.06,3.472 M 0.975,3.472 L 0.75,3.472 M 0.711,3.472 L 0.507,3.472 M 0.422,3.472 L 0.197,3.472 M 0.157,3.472 L -0.046,3.472 M -0.131,3.472 L -0.14,3.472 L -0.14,3.472 M 1.608,3.392 L 1.357,3.392 M 1.27,3.392 L 1.002,3.392 M 0.991,3.392 L 0.741,3.392 M 0.653,3.392 L 0.386,3.392 M 0.375,3.392 L 0.125,3.392 M 0.037,3.392 L -0.14,3.392 L -0.14,3.392 M 1.687,3.313 L 1.469,3.313 M 1.427,3.313 L 1.166,3.313 M 1.129,3.313 L 0.912,3.313 M 0.869,3.313 L 0.609,3.313 M 0.572,3.313 L 0.354,3.313 M 0.312,3.313 L 0.051,3.313 M 0.014,3.313 L -0.14,3.313 L -0.14,3.313 M 1.766,3.234 L 1.541,3.234 M 1.509,3.234 L 1.317,3.234 M 1.263,3.234 L 1.039,3.234 M 1.006,3.234 L 0.814,3.234 M 0.76,3.234 L 0.536,3.234 M 0.503,3.234 L 0.311,3.234 M 0.258,3.234 L 0.033,3.234 M 0,3.234 L -0.14,3.234 L -0.14,3.234 M 1.845,3.155 L 1.62,3.155 M 1.581,3.155 L 1.377,3.155 M 1.292,3.155 L 1.067,3.155 M 1.028,3.155 L 0.824,3.155 M 0.739,3.155 L 0.514,3.155 M 0.474,3.155 L 0.271,3.155 M 0.186,3.155 L -0.039,3.155 M -0.079,3.155 L -0.14,3.155 L -0.14,3.155 M 1.925,3.075 L 1.78,3.075 M 1.725,3.075 L 1.559,3.075 M 1.484,3.075 L 1.339,3.075 M 1.285,3.075 L 1.118,3.075 M 1.044,3.075 L 0.899,3.075 M 0.844,3.075 L 0.678,3.075 M 0.604,3.075 L 0.459,3.075 M 0.404,3.075 L 0.238,3.075 M 0.163,3.075 L 0.018,3.075 M -0.036,3.075 L -0.14,3.075 L -0.14,3.075 M 1.996,2.996 L 1.783,2.996 M 1.719,2.996 L 1.51,2.996 M 1.465,2.996 L 1.252,2.996 M 1.188,2.996 L 0.98,2.996 M 0.934,2.996 L 0.721,2.996 M 0.657,2.996 L 0.449,2.996 M 0.404,2.996 L 0.19,2.996 M 0.127,2.996 L -0.082,2.996 M -0.127,2.996 L -0.14,2.996 L -0.14,2.996 M 1.917,2.917 L 1.692,2.917 M 1.652,2.917 L 1.449,2.917 M 1.364,2.917 L 1.139,2.917 M 1.099,2.917 L 0.896,2.917 M 0.81,2.917 L 0.585,2.917 M 0.546,2.917 L 0.342,2.917 M 0.257,2.917 L 0.032,2.917 M -0.007,2.917 L -0.14,2.917 L -0.14,2.917 M 1.838,2.838 L 1.495,2.838 M 1.451,2.838 L 1.262,2.838 M 1.227,2.838 L 0.885,2.838 M 0.84,2.838 L 0.652,2.838 M 0.617,2.838 L 0.274,2.838 M 0.23,2.838 L 0.042,2.838 M 0.006,2.838 L -0.14,2.838 L -0.14,2.838 M 1.758,2.758 L 1.533,2.758 M 1.494,2.758 L 1.29,2.758 M 1.205,2.758 L 0.98,2.758 M 0.94,2.758 L 0.737,2.758 M 0.652,2.758 L 0.427,2.758 M 0.387,2.758 L 0.184,2.758 M 0.099,2.758 L -0.126,2.758 M 1.679,2.679 L 1.487,2.679 M 1.444,2.679 L 1.265,2.679 M 1.22,2.679 L 1.028,2.679 M 0.985,2.679 L 0.806,2.679 M 0.761,2.679 L 0.569,2.679 M 0.526,2.679 L 0.347,2.679 M 0.302,2.679 L 0.11,2.679 M 0.068,2.679 L -0.112,2.679 M 1.6,2.6 L 1.375,2.6 M 1.342,2.6 L 1.15,2.6 M 1.097,2.6 L 0.872,2.6 M 0.84,2.6 L 0.647,2.6 M 0.594,2.6 L 0.369,2.6 M 0.337,2.6 L 0.144,2.6 M 0.091,2.6 L -0.134,2.6 M 1.52,2.52 L 1.307,2.52 M 1.243,2.52 L 1.035,2.52 M 0.99,2.52 L 0.776,2.52 M 0.713,2.52 L 0.504,2.52 M 0.459,2.52 L 0.246,2.52 M 0.182,2.52 L -0.027,2.52 M -0.072,2.52 L -0.14,2.52 L -0.14,2.52 M 1.441,2.441 L 1.296,2.441 M 1.242,2.441 L 1.075,2.441 M 1.001,2.441 L 0.856,2.441 M 0.801,2.441 L 0.635,2.441 M 0.561,2.441 L 0.415,2.441 M 0.361,2.441 L 0.195,2.441 M 0.12,2.441 L -0.025,2.441 M -0.079,2.441 L -0.14,2.441 L -0.14,2.441 M 1.362,2.362 L 1.149,2.362 M 1.085,2.362 L 0.876,2.362 M 0.831,2.362 L 0.618,2.362 M 0.554,2.362 L 0.346,2.362 M 0.3,2.362 L 0.087,2.362 M 0.023,2.362 L -0.14,2.362 L -0.14,2.362 M 1.283,2.283 L 1.104,2.283 M 1.042,2.283 L 0.857,2.283 M 0.8,2.283 L 0.621,2.283 M 0.559,2.283 L 0.374,2.283 M 0.317,2.283 L 0.138,2.283 M 0.076,2.283 L -0.109,2.283 M 1.203,2.203 L 1.058,2.203 M 1.004,2.203 L 0.838,2.203 M 0.763,2.203 L 0.618,2.203 M 0.563,2.203 L 0.397,2.203 M 0.323,2.203 L 0.178,2.203 M 0.123,2.203 L -0.043,2.203 M -0.118,2.203 L -0.14,2.203 L -0.14,2.203 M 1.124,2.124 L 0.906,2.124 M 0.864,2.124 L 0.604,2.124 M 0.567,2.124 L 0.349,2.124 M 0.306,2.124 L 0.046,2.124 M 0.009,2.124 L -0.14,2.124 L -0.14,2.124 M 1.045,2.045 L 0.82,2.045 M 0.78,2.045 L 0.577,2.045 M 0.492,2.045 L 0.267,2.045 M 0.227,2.045 L 0.024,2.045 M -0.062,2.045 L -0.14,2.045 L -0.14,2.045 M 0.966,1.966 L 0.741,1.966 M 0.708,1.966 L 0.516,1.966 M 0.463,1.966 L 0.238,1.966 M 0.205,1.966 L 0.013,1.966 M -0.04,1.966 L -0.14,1.966 L -0.14,1.966 M 0.886,1.886 L 0.544,1.886 M 0.5,1.886 L 0.311,1.886 M 0.276,1.886 L -0.066,1.886 M -0.111,1.886 L -0.14,1.886 L -0.14,1.886 M 0.807,1.807 L 0.628,1.807 M 0.567,1.807 L 0.382,1.807 M 0.324,1.807 L 0.145,1.807 M 0.084,1.807 L -0.101,1.807 M 0.728,1.728 L 0.583,1.728 M 0.528,1.728 L 0.362,1.728 M 0.288,1.728 L 0.142,1.728 M 0.088,1.728 L -0.078,1.728 M 0.649,1.649 L 0.47,1.649 M 0.41,1.649 L 0.159,1.649 M 0.097,1.649 L -0.082,1.649 M 0.569,1.569 L 0.227,1.569 M 0.183,1.569 L -0.006,1.569 M -0.041,1.569 L -0.14,1.569 L -0.14,1.569 M 0.49,1.49 L 0.298,1.49 M 0.255,1.49 L 0.076,1.49 M 0.031,1.49 L -0.14,1.49 L -0.14,1.49 M 0.411,1.411 L 0.193,1.411 M 0.151,1.411 L -0.11,1.411 M 0.332,1.332 L 0.14,1.332 M 0.097,1.332 L -0.083,1.332 M -0.127,1.332 L -0.14,1.332 L -0.14,1.332 M 0.252,1.252 L 0.039,1.252 M -0.025,1.252 L -0.14,1.252 L -0.14,1.252 M 0.173,1.173 L -0.006,1.173 M -0.068,1.173 L -0.14,1.173 L -0.14,1.173 M 0.094,1.094 L -0.051,1.094 M -0.106,1.094 L -0.14,1.094 L -0.14,1.094 M 0.015,1.015 L -0.14,1.015 L -0.14,1.015 M -0.065,0.935 L -0.14,0.935 L -0.14,0.935" stroke="#000000" stroke-width="0.02" stroke-opacity="0.4"/><path d=" M -0.14,0.86 L 1.86,0.86 L 3,2 L 2,3 L -0.14,0.86" fill="#C28061"/><path d=" M -0.058,0.942 L -0.058,0.86 L -0.058,0.86 M 0.021,1.021 L 0.021,0.86 L 0.021,0.86 M 0.099,1.099 L 0.099,0.86 L 0.099,0.86 M 0.178,1.178 L 0.178,0.999 M 0.178,0.939 L 0.178,0.86 L 0.178,0.86 M 0.256,1.256 L 0.256,1.043 M 0.256,0.979 L 0.256,0.86 L 0.256,0.86 M 0.335,1.335 L 0.335,1.143 M 0.335,1.1 L 0.335,0.921 M 0.335,0.876 L 0.335,0.86 L 0.335,0.86 M 0.413,1.413 L 0.413,1.188 M 0.413,1.149 L 0.413,0.945 M 0.413,0.86 L 0.413,0.86 L 0.413,0.86 M 0.492,1.492 L 0.492,1.267 M 0.492,1.235 L 0.492,1.042 M 0.492,0.989 L 0.492,0.86 L 0.492,0.86 M 0.57,1.57 L 0.57,1.353 M 0.57,1.31 L 0.57,1.05 M 0.57,1.013 L 0.57,0.86 L 0.57,0.86 M 0.649,1.649 L 0.649,1.504 M 0.649,1.449 L 0.649,1.283 M 0.649,1.209 L 0.649,1.064 M 0.649,1.009 L 0.649,0.86 L 0.649,0.86 M 0.727,1.727 L 0.727,1.385 M 0.727,1.341 L 0.727,1.152 M 0.727,1.117 L 0.727,0.86 L 0.727,0.86 M 0.806,1.806 L 0.806,1.614 M 0.806,1.571 L 0.806,1.392 M 0.806,1.347 L 0.806,1.155 M 0.806,1.112 L 0.806,0.933 M 0.806,0.888 L 0.806,0.86 L 0.806,0.86 M 0.884,1.884 L 0.884,1.671 M 0.884,1.607 L 0.884,1.399 M 0.884,1.354 L 0.884,1.14 M 0.884,1.077 L 0.884,0.868 M 0.963,1.963 L 0.963,1.621 M 0.963,1.576 L 0.963,1.388 M 0.963,1.353 L 0.963,1.01 M 0.963,0.966 L 0.963,0.86 L 0.963,0.86 M 1.041,2.041 L 1.041,1.863 M 1.041,1.803 L 1.041,1.552 M 1.041,1.49 L 1.041,1.311 M 1.041,1.251 L 1.041,1 M 1.041,0.938 L 1.041,0.86 L 1.041,0.86 M 1.12,2.12 L 1.12,1.907 M 1.12,1.843 L 1.12,1.634 M 1.12,1.589 L 1.12,1.376 M 1.12,1.312 L 1.12,1.104 M 1.12,1.058 L 1.12,0.86 L 1.12,0.86 M 1.198,2.198 L 1.198,1.948 M 1.198,1.86 L 1.198,1.593 M 1.198,1.582 L 1.198,1.332 M 1.198,1.244 L 1.198,0.977 M 1.198,0.966 L 1.198,0.86 L 1.198,0.86 M 1.277,2.277 L 1.277,2.132 M 1.277,2.077 L 1.277,1.911 M 1.277,1.837 L 1.277,1.692 M 1.277,1.637 L 1.277,1.471 M 1.277,1.396 L 1.277,1.251 M 1.277,1.197 L 1.277,1.03 M 1.277,0.956 L 1.277,0.86 L 1.277,0.86 M 1.355,2.355 L 1.355,2.142 M 1.355,2.078 L 1.355,1.87 M 1.355,1.825 L 1.355,1.611 M 1.355,1.548 L 1.355,1.339 M 1.355,1.294 L 1.355,1.081 M 1.355,1.017 L 1.355,0.86 L 1.355,0.86 M 1.434,2.434 L 1.434,2.242 M 1.434,2.199 L 1.434,2.02 M 1.434,1.975 L 1.434,1.783 M 1.434,1.74 L 1.434,1.561 M 1.434,1.516 L 1.434,1.324 M 1.434,1.281 L 1.434,1.102 M 1.434,1.057 L 1.434,0.865 M 1.512,2.512 L 1.512,2.287 M 1.512,2.248 L 1.512,2.044 M 1.512,1.959 L 1.512,1.734 M 1.512,1.695 L 1.512,1.491 M 1.512,1.406 L 1.512,1.181 M 1.512,1.141 L 1.512,0.938 M 1.591,2.591 L 1.591,2.412 M 1.591,2.352 L 1.591,2.102 M 1.591,2.039 L 1.591,1.86 M 1.591,1.8 L 1.591,1.55 M 1.591,1.487 L 1.591,1.309 M 1.591,1.249 L 1.591,0.998 M 1.591,0.936 L 1.591,0.86 L 1.591,0.86 M 1.669,2.669 L 1.669,2.419 M 1.669,2.331 L 1.669,2.064 M 1.669,2.053 L 1.669,1.803 M 1.669,1.715 L 1.669,1.448 M 1.669,1.437 L 1.669,1.187 M 1.669,1.099 L 1.669,0.86 L 1.669,0.86 M 1.748,2.748 L 1.748,2.569 M 1.748,2.507 L 1.748,2.322 M 1.748,2.265 L 1.748,2.086 M 1.748,2.024 L 1.748,1.839 M 1.748,1.782 L 1.748,1.603 M 1.748,1.542 L 1.748,1.357 M 1.748,1.299 L 1.748,1.12 M 1.748,1.059 L 1.748,0.874 M 1.826,2.826 L 1.826,2.634 M 1.826,2.592 L 1.826,2.412 M 1.826,2.368 L 1.826,2.175 M 1.826,2.133 L 1.826,1.953 M 1.826,1.909 L 1.826,1.717 M 1.826,1.674 L 1.826,1.494 M 1.826,1.45 L 1.826,1.258 M 1.826,1.215 L 1.826,1.035 M 1.826,0.991 L 1.826,0.86 L 1.826,0.86 M 1.905,2.905 L 1.905,2.726 M 1.905,2.666 L 1.905,2.416 M 1.905,2.353 L 1.905,2.174 M 1.905,2.114 L 1.905,1.864 M 1.905,1.801 L 1.905,1.623 M 1.905,1.563 L 1.905,1.312 M 1.905,1.25 L 1.905,1.071 M 1.905,1.011 L 1.905,0.905 L 1.905,0.905 M 1.983,2.983 L 1.983,2.759 M 1.983,2.726 L 1.983,2.534 M 1.983,2.481 L 1.983,2.256 M 1.983,2.223 L 1.983,2.031 M 1.983,1.978 L 1.983,1.753 M 1.983,1.72 L 1.983,1.528 M 1.983,1.475 L 1.983,1.25 M 1.983,1.217 L 1.983,1.025 M 2.062,2.938 L 2.062,2.72 M 2.062,2.678 L 2.062,2.418 M 2.062,2.381 L 2.062,2.163 M 2.062,2.12 L 2.062,1.86 M 2.062,1.823 L 2.062,1.605 M 2.062,1.563 L 2.062,1.302 M 2.062,1.265 L 2.062,1.062 L 2.062,1.062 M 2.14,2.86 L 2.14,2.517 M 2.14,2.473 L 2.14,2.284 M 2.14,2.249 L 2.14,1.907 M 2.14,1.863 L 2.14,1.674 M 2.14,1.639 L 2.14,1.296 M 2.14,1.252 L 2.14,1.14 L 2.14,1.14 M 2.219,2.781 L 2.219,2.602 M 2.219,2.54 L 2.219,2.355 M 2.219,2.298 L 2.219,2.119 M 2.219,2.058 L 2.219,1.873 M 2.219,1.815 L 2.219,1.636 M 2.219,1.575 L 2.219,1.39 M 2.219,1.333 L 2.219,1.219 L 2.219,1.219 M 2.297,2.703 L 2.297,2.36 M 2.297,2.316 L 2.297,2.127 M 2.297,2.092 L 2.297,1.75 M 2.297,1.706 L 2.297,1.517 M 2.297,1.482 L 2.297,1.297 L 2.297,1.297 M 2.376,2.624 L 2.376,2.399 M 2.376,2.367 L 2.376,2.174 M 2.376,2.121 L 2.376,1.896 M 2.376,1.864 L 2.376,1.672 M 2.376,1.618 L 2.376,1.394 M 2.454,2.546 L 2.454,2.354 M 2.454,2.311 L 2.454,2.131 M 2.454,2.087 L 2.454,1.895 M 2.454,1.852 L 2.454,1.672 M 2.454,1.628 L 2.454,1.454 L 2.454,1.454 M 2.533,2.467 L 2.533,2.249 M 2.533,2.207 L 2.533,1.947 M 2.533,1.91 L 2.533,1.692 M 2.533,1.649 L 2.533,1.533 L 2.533,1.533 M 2.611,2.389 L 2.611,2.164 M 2.611,2.124 L 2.611,1.921 M 2.611,1.835 L 2.611,1.611 L 2.611,1.611 M 2.69,2.31 L 2.69,2.06 M 2.69,1.972 L 2.69,1.705 M 2.69,1.694 L 2.69,1.69 L 2.69,1.69 M 2.768,2.232 L 2.768,2.018 M 2.768,1.955 L 2.768,1.768 L 2.768,1.768 M 2.847,2.153 L 2.847,1.928 M 2.847,1.896 L 2.847,1.847 L 2.847,1.847 M 2.925,2.075 L 2.925,1.925 L 2.925,1.925" stroke="#000000" stroke-width="0.02" stroke-opacity="0.4"/><path d=" M 1.86,0.86 L 1.86,-0.14 L 3,1 L 3,1 L 3,2 L 1.86,0.86" fill="#D08968"/><path d=" M 3,1.917 L 2.917,1.917 L 2.917,1.917 M 3,1.838 L 2.838,1.838 L 2.838,1.838 M 3,1.758 L 2.775,1.758 M 3,1.679 L 2.679,1.679 L 2.679,1.679 M 3,1.6 L 2.775,1.6 M 2.735,1.6 L 2.6,1.6 L 2.6,1.6 M 3,1.52 L 2.75,1.52 M 2.662,1.52 L 2.52,1.52 L 2.52,1.52 M 3,1.441 L 2.855,1.441 M 2.8,1.441 L 2.634,1.441 M 2.56,1.441 L 2.441,1.441 L 2.441,1.441 M 3,1.362 L 2.787,1.362 M 2.723,1.362 L 2.514,1.362 M 2.469,1.362 L 2.362,1.362 L 2.362,1.362 M 3,1.283 L 2.821,1.283 M 2.759,1.283 L 2.574,1.283 M 2.517,1.283 L 2.338,1.283 M 3,1.203 L 2.782,1.203 M 2.74,1.203 L 2.479,1.203 M 2.442,1.203 L 2.225,1.203 M 3,1.124 L 2.775,1.124 M 2.735,1.124 L 2.532,1.124 M 2.447,1.124 L 2.222,1.124 M 2.182,1.124 L 2.124,1.124 L 2.124,1.124 M 3,1.045 L 2.658,1.045 M 2.613,1.045 L 2.425,1.045 M 2.39,1.045 L 2.047,1.045 M 2.966,0.966 L 2.787,0.966 M 2.727,0.966 L 2.476,0.966 M 2.414,0.966 L 2.235,0.966 M 2.175,0.966 L 1.966,0.966 L 1.966,0.966 M 2.886,0.886 L 2.741,0.886 M 2.687,0.886 L 2.52,0.886 M 2.446,0.886 L 2.301,0.886 M 2.246,0.886 L 2.08,0.886 M 2.006,0.886 L 1.886,0.886 L 1.886,0.886 M 2.807,0.807 L 2.594,0.807 M 2.53,0.807 L 2.322,0.807 M 2.276,0.807 L 2.063,0.807 M 1.999,0.807 L 1.86,0.807 L 1.86,0.807 M 2.728,0.728 L 2.549,0.728 M 2.489,0.728 L 2.239,0.728 M 2.176,0.728 L 1.997,0.728 M 1.937,0.728 L 1.86,0.728 L 1.86,0.728 M 2.649,0.649 L 2.457,0.649 M 2.414,0.649 L 2.234,0.649 M 2.19,0.649 L 1.998,0.649 M 1.955,0.649 L 1.86,0.649 L 1.86,0.649 M 2.569,0.569 L 2.345,0.569 M 2.312,0.569 L 2.12,0.569 M 2.066,0.569 L 1.86,0.569 L 1.86,0.569 M 2.49,0.49 L 2.345,0.49 M 2.29,0.49 L 2.124,0.49 M 2.05,0.49 L 1.905,0.49 M 2.411,0.411 L 2.193,0.411 M 2.151,0.411 L 1.89,0.411 M 2.332,0.332 L 2.153,0.332 M 2.093,0.332 L 1.86,0.332 L 1.86,0.332 M 2.252,0.252 L 2.027,0.252 M 1.988,0.252 L 1.86,0.252 L 1.86,0.252 M 2.173,0.173 L 1.994,0.173 M 1.934,0.173 L 1.86,0.173 L 1.86,0.173 M 2.094,0.094 L 1.915,0.094 M 2.015,0.015 L 1.86,0.015 L 1.86,0.015 M 1.935,-0.065 L 1.86,-0.065 L 1.86,-0.065" stroke="#000000" stroke-width="0.02" stroke-opacity="0.4"/><path d=" M 1.86,-0.14 L 7.14,-0.14 L 6,1 L 3,1 L 1.86,-0.14" fill="#C28061"/><path d=" M 1.944,-0.056 L 1.944,-0.14 L 1.944,-0.14 M 2.024,0.024 L 2.024,-0.14 L 2.024,-0.14 M 2.104,0.104 L 2.104,-0.109 M 2.184,0.184 L 2.184,-0.041 M 2.184,-0.081 L 2.184,-0.14 L 2.184,-0.14 M 2.264,0.264 L 2.264,0.119 M 2.264,0.064 L 2.264,-0.102 M 2.344,0.344 L 2.344,0.165 M 2.344,0.103 L 2.344,-0.082 M 2.344,-0.139 L 2.344,-0.14 L 2.344,-0.14 M 2.424,0.424 L 2.424,0.199 M 2.424,0.167 L 2.424,-0.026 M 2.424,-0.079 L 2.424,-0.14 L 2.424,-0.14 M 2.504,0.504 L 2.504,0.325 M 2.504,0.263 L 2.504,0.078 M 2.504,0.021 L 2.504,-0.14 L 2.504,-0.14 M 2.584,0.584 L 2.584,0.359 M 2.584,0.327 L 2.584,0.134 M 2.584,0.081 L 2.584,-0.14 L 2.584,-0.14 M 2.664,0.664 L 2.664,0.519 M 2.664,0.464 L 2.664,0.298 M 2.664,0.224 L 2.664,0.079 M 2.664,0.024 L 2.664,-0.14 L 2.664,-0.14 M 2.744,0.744 L 2.744,0.565 M 2.744,0.503 L 2.744,0.318 M 2.744,0.261 L 2.744,0.082 M 2.744,0.021 L 2.744,-0.14 L 2.744,-0.14 M 2.824,0.824 L 2.824,0.599 M 2.824,0.567 L 2.824,0.374 M 2.824,0.321 L 2.824,0.096 M 2.824,0.064 L 2.824,-0.128 M 2.904,0.904 L 2.904,0.759 M 2.904,0.704 L 2.904,0.538 M 2.904,0.464 L 2.904,0.319 M 2.904,0.264 L 2.904,0.098 M 2.904,0.023 L 2.904,-0.122 M 2.984,0.984 L 2.984,0.642 M 2.984,0.597 L 2.984,0.409 M 2.984,0.374 L 2.984,0.031 M 2.984,-0.013 L 2.984,-0.14 L 2.984,-0.14 M 3.064,1 L 3.064,0.787 M 3.064,0.723 L 3.064,0.514 M 3.064,0.469 L 3.064,0.256 M 3.064,0.192 L 3.064,-0.016 M 3.064,-0.062 L 3.064,-0.14 L 3.064,-0.14 M 3.144,1 L 3.144,0.855 M 3.144,0.8 L 3.144,0.634 M 3.144,0.56 L 3.144,0.415 M 3.144,0.36 L 3.144,0.194 M 3.144,0.119 L 3.144,-0.026 M 3.144,-0.08 L 3.144,-0.14 L 3.144,-0.14 M 3.224,1 L 3.224,0.775 M 3.224,0.735 L 3.224,0.532 M 3.224,0.447 L 3.224,0.222 M 3.224,0.182 L 3.224,-0.021 M 3.224,-0.106 L 3.224,-0.14 L 3.224,-0.14 M 3.304,1 L 3.304,0.821 M 3.304,0.761 L 3.304,0.511 M 3.304,0.448 L 3.304,0.269 M 3.304,0.21 L 3.304,-0.041 M 3.304,-0.103 L 3.304,-0.14 L 3.304,-0.14 M 3.384,1 L 3.384,0.855 M 3.384,0.8 L 3.384,0.634 M 3.384,0.56 L 3.384,0.415 M 3.384,0.36 L 3.384,0.194 M 3.384,0.119 L 3.384,-0.026 M 3.384,-0.08 L 3.384,-0.14 L 3.384,-0.14 M 3.464,1 L 3.464,0.821 M 3.464,0.759 L 3.464,0.574 M 3.464,0.517 L 3.464,0.338 M 3.464,0.277 L 3.464,0.092 M 3.464,0.034 L 3.464,-0.14 L 3.464,-0.14 M 3.544,1 L 3.544,0.787 M 3.544,0.723 L 3.544,0.514 M 3.544,0.469 L 3.544,0.256 M 3.544,0.192 L 3.544,-0.016 M 3.544,-0.062 L 3.544,-0.14 L 3.544,-0.14 M 3.624,1 L 3.624,0.775 M 3.624,0.735 L 3.624,0.532 M 3.624,0.447 L 3.624,0.222 M 3.624,0.182 L 3.624,-0.021 M 3.624,-0.106 L 3.624,-0.14 L 3.624,-0.14 M 3.704,1 L 3.704,0.775 M 3.704,0.743 L 3.704,0.55 M 3.704,0.497 L 3.704,0.272 M 3.704,0.24 L 3.704,0.048 M 3.704,-0.006 L 3.704,-0.14 L 3.704,-0.14 M 3.784,1 L 3.784,0.855 M 3.784,0.8 L 3.784,0.634 M 3.784,0.56 L 3.784,0.415 M 3.784,0.36 L 3.784,0.194 M 3.784,0.119 L 3.784,-0.026 M 3.784,-0.08 L 3.784,-0.14 L 3.784,-0.14 M 3.864,1 L 3.864,0.775 M 3.864,0.735 L 3.864,0.532 M 3.864,0.447 L 3.864,0.222 M 3.864,0.182 L 3.864,-0.021 M 3.864,-0.106 L 3.864,-0.14 L 3.864,-0.14 M 3.944,1 L 3.944,0.821 M 3.944,0.761 L 3.944,0.511 M 3.944,0.448 L 3.944,0.269 M 3.944,0.21 L 3.944,-0.041 M 3.944,-0.103 L 3.944,-0.14 L 3.944,-0.14 M 4.024,1 L 4.024,0.855 M 4.024,0.8 L 4.024,0.634 M 4.024,0.56 L 4.024,0.415 M 4.024,0.36 L 4.024,0.194 M 4.024,0.119 L 4.024,-0.026 M 4.024,-0.08 L 4.024,-0.14 L 4.024,-0.14 M 4.104,1 L 4.104,0.775 M 4.104,0.743 L 4.104,0.55 M 4.104,0.497 L 4.104,0.272 M 4.104,0.24 L 4.104,0.048 M 4.104,-0.006 L 4.104,-0.14 L 4.104,-0.14 M 4.184,1 L 4.184,0.821 M 4.184,0.759 L 4.184,0.574 M 4.184,0.517 L 4.184,0.338 M 4.184,0.277 L 4.184,0.092 M 4.184,0.034 L 4.184,-0.14 L 4.184,-0.14 M 4.264,1 L 4.264,0.787 M 4.264,0.723 L 4.264,0.514 M 4.264,0.469 L 4.264,0.256 M 4.264,0.192 L 4.264,-0.016 M 4.264,-0.062 L 4.264,-0.14 L 4.264,-0.14 M 4.344,1 L 4.344,0.775 M 4.344,0.743 L 4.344,0.55 M 4.344,0.497 L 4.344,0.272 M 4.344,0.24 L 4.344,0.048 M 4.344,-0.006 L 4.344,-0.14 L 4.344,-0.14 M 4.424,1 L 4.424,0.782 M 4.424,0.74 L 4.424,0.479 M 4.424,0.442 L 4.424,0.225 M 4.424,0.182 L 4.424,-0.078 M 4.424,-0.115 L 4.424,-0.14 L 4.424,-0.14 M 4.504,1 L 4.504,0.775 M 4.504,0.743 L 4.504,0.55 M 4.504,0.497 L 4.504,0.272 M 4.504,0.24 L 4.504,0.048 M 4.504,-0.006 L 4.504,-0.14 L 4.504,-0.14 M 4.584,1 L 4.584,0.855 M 4.584,0.8 L 4.584,0.634 M 4.584,0.56 L 4.584,0.415 M 4.584,0.36 L 4.584,0.194 M 4.584,0.119 L 4.584,-0.026 M 4.584,-0.08 L 4.584,-0.14 L 4.584,-0.14 M 4.664,1 L 4.664,0.808 M 4.664,0.765 L 4.664,0.586 M 4.664,0.541 L 4.664,0.349 M 4.664,0.306 L 4.664,0.127 M 4.664,0.082 L 4.664,-0.11 M 4.744,1 L 4.744,0.775 M 4.744,0.735 L 4.744,0.532 M 4.744,0.447 L 4.744,0.222 M 4.744,0.182 L 4.744,-0.021 M 4.744,-0.106 L 4.744,-0.14 L 4.744,-0.14 M 4.824,1 L 4.824,0.787 M 4.824,0.723 L 4.824,0.514 M 4.824,0.469 L 4.824,0.256 M 4.824,0.192 L 4.824,-0.016 M 4.824,-0.062 L 4.824,-0.14 L 4.824,-0.14 M 4.904,1 L 4.904,0.775 M 4.904,0.743 L 4.904,0.55 M 4.904,0.497 L 4.904,0.272 M 4.904,0.24 L 4.904,0.048 M 4.904,-0.006 L 4.904,-0.14 L 4.904,-0.14 M 4.984,1 L 4.984,0.658 M 4.984,0.613 L 4.984,0.425 M 4.984,0.39 L 4.984,0.047 M 4.984,0.003 L 4.984,-0.14 L 4.984,-0.14 M 5.064,1 L 5.064,0.821 M 5.064,0.761 L 5.064,0.511 M 5.064,0.448 L 5.064,0.269 M 5.064,0.21 L 5.064,-0.041 M 5.064,-0.103 L 5.064,-0.14 L 5.064,-0.14 M 5.144,1 L 5.144,0.808 M 5.144,0.765 L 5.144,0.586 M 5.144,0.541 L 5.144,0.349 M 5.144,0.306 L 5.144,0.127 M 5.144,0.082 L 5.144,-0.11 M 5.224,1 L 5.224,0.75 M 5.224,0.662 L 5.224,0.395 M 5.224,0.384 L 5.224,0.133 M 5.224,0.046 L 5.224,-0.14 L 5.224,-0.14 M 5.304,1 L 5.304,0.787 M 5.304,0.723 L 5.304,0.514 M 5.304,0.469 L 5.304,0.256 M 5.304,0.192 L 5.304,-0.016 M 5.304,-0.062 L 5.304,-0.14 L 5.304,-0.14 M 5.384,1 L 5.384,0.821 M 5.384,0.759 L 5.384,0.574 M 5.384,0.517 L 5.384,0.338 M 5.384,0.277 L 5.384,0.092 M 5.384,0.034 L 5.384,-0.14 L 5.384,-0.14 M 5.464,1 L 5.464,0.75 M 5.464,0.662 L 5.464,0.395 M 5.464,0.384 L 5.464,0.133 M 5.464,0.046 L 5.464,-0.14 L 5.464,-0.14 M 5.544,1 L 5.544,0.787 M 5.544,0.723 L 5.544,0.514 M 5.544,0.469 L 5.544,0.256 M 5.544,0.192 L 5.544,-0.016 M 5.544,-0.062 L 5.544,-0.14 L 5.544,-0.14 M 5.624,1 L 5.624,0.821 M 5.624,0.759 L 5.624,0.574 M 5.624,0.517 L 5.624,0.338 M 5.624,0.277 L 5.624,0.092 M 5.624,0.034 L 5.624,-0.14 L 5.624,-0.14 M 5.704,1 L 5.704,0.808 M 5.704,0.765 L 5.704,0.586 M 5.704,0.541 L 5.704,0.349 M 5.704,0.306 L 5.704,0.127 M 5.704,0.082 L 5.704,-0.11 M 5.784,1 L 5.784,0.775 M 5.784,0.735 L 5.784,0.532 M 5.784,0.447 L 5.784,0.222 M 5.784,0.182 L 5.784,-0.021 M 5.784,-0.106 L 5.784,-0.14 L 5.784,-0.14 M 5.864,1 L 5.864,0.821 M 5.864,0.759 L 5.864,0.574 M 5.864,0.517 L 5.864,0.338 M 5.864,0.277 L 5.864,0.092 M 5.864,0.034 L 5.864,-0.14 L 5.864,-0.14 M 5.944,1 L 5.944,0.808 M 5.944,0.765 L 5.944,0.586 M 5.944,0.541 L 5.944,0.349 M 5.944,0.306 L 5.944,0.127 M 5.944,0.082 L 5.944,-0.11 M 6.024,0.976 L 6.024,0.634 M 6.024,0.589 L 6.024,0.401 M 6.024,0.366 L 6.024,0.023 M 6.024,-0.021 L 6.024,-0.14 L 6.024,-0.14 M 6.104,0.896 L 6.104,0.671 M 6.104,0.631 L 6.104,0.428 M 6.104,0.343 L 6.104,0.118 M 6.104,0.078 L 6.104,-0.125 M 6.184,0.816 L 6.184,0.566 M 6.184,0.478 L 6.184,0.211 M 6.184,0.2 L 6.184,-0.051 M 6.184,-0.138 L 6.184,-0.14 L 6.184,-0.14 M 6.264,0.736 L 6.264,0.394 M 6.264,0.349 L 6.264,0.161 M 6.264,0.126 L 6.264,-0.14 L 6.264,-0.14 M 6.344,0.656 L 6.344,0.406 M 6.344,0.318 L 6.344,0.051 M 6.344,0.04 L 6.344,-0.14 L 6.344,-0.14 M 6.424,0.576 L 6.424,0.397 M 6.424,0.335 L 6.424,0.15 M 6.424,0.093 L 6.424,-0.086 M 6.504,0.496 L 6.504,0.278 M 6.504,0.236 L 6.504,-0.025 M 6.504,-0.062 L 6.504,-0.14 L 6.504,-0.14 M 6.584,0.416 L 6.584,0.166 M 6.584,0.078 L 6.584,-0.14 L 6.584,-0.14 M 6.664,0.336 L 6.664,0.118 M 6.664,0.076 L 6.664,-0.14 L 6.664,-0.14 M 6.744,0.256 L 6.744,0.006 M 6.744,-0.082 L 6.744,-0.14 L 6.744,-0.14 M 6.824,0.176 L 6.824,-0.003 M 6.824,-0.065 L 6.824,-0.14 L 6.824,-0.14 M 6.904,0.096 L 6.904,-0.14 L 6.904,-0.14 M 6.984,0.016 L 6.984,-0.14 L 6.984,-0.14 M 7.064,-0.064 L 7.064,-0.14 L 7.064,-0.14" stroke="#000000" stroke-width="0.02" stroke-opacity="0.4"/><path d=" M 7.14,-0.14 L 7.14,2.14 L 6,1 L 7.14,-0.14" fill="#98634C"/><path d=" M 7.057,-0.057 L 7.14,-0.057 L 7.14,-0.057 M 6.979,0.021 L 7.14,0.021 L 7.14,0.021 M 6.9,0.1 L 7.045,0.1 M 7.1,0.1 L 7.14,0.1 L 7.14,0.1 M 6.822,0.178 L 7.039,0.178 M 7.082,0.178 L 7.14,0.178 L 7.14,0.178 M 6.743,0.257 L 6.888,0.257 M 6.943,0.257 L 7.109,0.257 M 6.664,0.336 L 6.915,0.336 M 7.002,0.336 L 7.14,0.336 L 7.14,0.336 M 6.586,0.414 L 6.765,0.414 M 6.826,0.414 L 7.011,0.414 M 7.069,0.414 L 7.14,0.414 L 7.14,0.414 M 6.507,0.493 L 6.849,0.493 M 6.894,0.493 L 7.082,0.493 M 7.117,0.493 L 7.14,0.493 L 7.14,0.493 M 6.428,0.572 L 6.607,0.572 M 6.667,0.572 L 6.918,0.572 M 6.98,0.572 L 7.14,0.572 L 7.14,0.572 M 6.35,0.65 L 6.575,0.65 M 6.607,0.65 L 6.799,0.65 M 6.853,0.65 L 7.077,0.65 M 7.11,0.65 L 7.14,0.65 L 7.14,0.65 M 6.271,0.729 L 6.463,0.729 M 6.506,0.729 L 6.686,0.729 M 6.73,0.729 L 6.922,0.729 M 6.965,0.729 L 7.14,0.729 L 7.14,0.729 M 6.193,0.807 L 6.535,0.807 M 6.579,0.807 L 6.768,0.807 M 6.803,0.807 L 7.14,0.807 L 7.14,0.807 M 6.114,0.886 L 6.306,0.886 M 6.349,0.886 L 6.528,0.886 M 6.573,0.886 L 6.765,0.886 M 6.808,0.886 L 6.987,0.886 M 7.032,0.886 L 7.14,0.886 L 7.14,0.886 M 6.035,0.965 L 6.26,0.965 M 6.3,0.965 L 6.503,0.965 M 6.589,0.965 L 6.814,0.965 M 6.853,0.965 L 7.057,0.965 M 6.043,1.043 L 6.268,1.043 M 6.301,1.043 L 6.493,1.043 M 6.546,1.043 L 6.771,1.043 M 6.803,1.043 L 6.996,1.043 M 7.049,1.043 L 7.14,1.043 L 7.14,1.043 M 6.122,1.122 L 6.34,1.122 M 6.382,1.122 L 6.642,1.122 M 6.679,1.122 L 6.897,1.122 M 6.94,1.122 L 7.14,1.122 L 7.14,1.122 M 6.2,1.2 L 6.379,1.2 M 6.439,1.2 L 6.69,1.2 M 6.752,1.2 L 6.931,1.2 M 6.991,1.2 L 7.14,1.2 L 7.14,1.2 M 6.279,1.279 L 6.504,1.279 M 6.544,1.279 L 6.747,1.279 M 6.832,1.279 L 7.057,1.279 M 7.097,1.279 L 7.14,1.279 L 7.14,1.279 M 6.358,1.358 L 6.503,1.358 M 6.557,1.358 L 6.724,1.358 M 6.798,1.358 L 6.943,1.358 M 6.998,1.358 L 7.14,1.358 L 7.14,1.358 M 6.436,1.436 L 6.661,1.436 M 6.694,1.436 L 6.886,1.436 M 6.939,1.436 L 7.14,1.436 L 7.14,1.436 M 6.515,1.515 L 6.765,1.515 M 6.853,1.515 L 7.12,1.515 M 7.131,1.515 L 7.14,1.515 L 7.14,1.515 M 6.594,1.594 L 6.739,1.594 M 6.793,1.594 L 6.96,1.594 M 7.034,1.594 L 7.14,1.594 L 7.14,1.594 M 6.672,1.672 L 6.922,1.672 M 7.01,1.672 L 7.14,1.672 L 7.14,1.672 M 6.751,1.751 L 6.964,1.751 M 7.028,1.751 L 7.14,1.751 L 7.14,1.751 M 6.829,1.829 L 7.14,1.829 L 7.14,1.829 M 6.908,1.908 L 7.133,1.908 M 6.987,1.987 L 7.14,1.987 L 7.14,1.987 M 7.065,2.065 L 7.14,2.065 L 7.14,2.065" stroke="#000000" stroke-width="0.02" stroke-opacity="0.4"/><path d=" M 7.14,2.14 L 4.14,2.14 L 3,1 L 3,1 L 6,1 L 7.14,2.14" fill="#A26A51"/><path d=" M 7.056,2.056 L 7.056,2.14 L 7.056,2.14 M 6.977,1.977 L 6.977,2.14 L 6.977,2.14 M 6.897,1.897 L 6.897,2.122 M 6.818,1.818 L 6.818,2.14 L 6.818,2.14 M 6.738,1.738 L 6.738,1.956 M 6.738,1.998 L 6.738,2.14 L 6.738,2.14 M 6.658,1.658 L 6.658,1.837 M 6.658,1.897 L 6.658,2.14 L 6.658,2.14 M 6.579,1.579 L 6.579,1.771 M 6.579,1.813 L 6.579,1.993 M 6.579,2.038 L 6.579,2.14 L 6.579,2.14 M 6.499,1.499 L 6.499,1.644 M 6.499,1.699 L 6.499,1.865 M 6.499,1.939 L 6.499,2.084 M 6.499,2.139 L 6.499,2.14 L 6.499,2.14 M 6.419,1.419 L 6.419,1.637 M 6.419,1.68 L 6.419,1.94 M 6.419,1.977 L 6.419,2.14 L 6.419,2.14 M 6.34,1.34 L 6.34,1.532 M 6.34,1.575 L 6.34,1.754 M 6.34,1.799 L 6.34,1.991 M 6.34,2.033 L 6.34,2.14 L 6.34,2.14 M 6.26,1.26 L 6.26,1.405 M 6.26,1.46 L 6.26,1.626 M 6.26,1.701 L 6.26,1.846 M 6.26,1.9 L 6.26,2.067 M 6.181,1.181 L 6.181,1.394 M 6.181,1.458 L 6.181,1.666 M 6.181,1.711 L 6.181,1.925 M 6.181,1.988 L 6.181,2.14 L 6.181,2.14 M 6.101,1.101 L 6.101,1.293 M 6.101,1.336 L 6.101,1.515 M 6.101,1.56 L 6.101,1.752 M 6.101,1.795 L 6.101,1.974 M 6.101,2.019 L 6.101,2.14 L 6.101,2.14 M 6.021,1.021 L 6.021,1.239 M 6.021,1.282 L 6.021,1.542 M 6.021,1.579 L 6.021,1.797 M 6.021,1.839 L 6.021,2.099 M 6.021,2.136 L 6.021,2.14 L 6.021,2.14 M 5.942,1 L 5.942,1.213 M 5.942,1.277 L 5.942,1.486 M 5.942,1.531 L 5.942,1.744 M 5.942,1.808 L 5.942,2.016 M 5.942,2.062 L 5.942,2.14 L 5.942,2.14 M 5.862,1 L 5.862,1.225 M 5.862,1.265 L 5.862,1.468 M 5.862,1.553 L 5.862,1.778 M 5.862,1.818 L 5.862,2.021 M 5.862,2.106 L 5.862,2.14 L 5.862,2.14 M 5.783,1 L 5.783,1.225 M 5.783,1.257 L 5.783,1.45 M 5.783,1.503 L 5.783,1.728 M 5.783,1.76 L 5.783,1.952 M 5.783,2.006 L 5.783,2.14 L 5.783,2.14 M 5.703,1 L 5.703,1.192 M 5.703,1.235 L 5.703,1.414 M 5.703,1.459 L 5.703,1.651 M 5.703,1.694 L 5.703,1.873 M 5.703,1.918 L 5.703,2.11 M 5.623,1 L 5.623,1.213 M 5.623,1.277 L 5.623,1.486 M 5.623,1.531 L 5.623,1.744 M 5.623,1.808 L 5.623,2.016 M 5.623,2.062 L 5.623,2.14 L 5.623,2.14 M 5.544,1 L 5.544,1.192 M 5.544,1.235 L 5.544,1.414 M 5.544,1.459 L 5.544,1.651 M 5.544,1.694 L 5.544,1.873 M 5.544,1.918 L 5.544,2.11 M 5.464,1 L 5.464,1.25 M 5.464,1.338 L 5.464,1.605 M 5.464,1.616 L 5.464,1.867 M 5.464,1.954 L 5.464,2.14 L 5.464,2.14 M 5.384,1 L 5.384,1.225 M 5.384,1.265 L 5.384,1.468 M 5.384,1.553 L 5.384,1.778 M 5.384,1.818 L 5.384,2.021 M 5.384,2.106 L 5.384,2.14 L 5.384,2.14 M 5.305,1 L 5.305,1.342 M 5.305,1.387 L 5.305,1.575 M 5.305,1.61 L 5.305,1.953 M 5.305,1.997 L 5.305,2.14 L 5.305,2.14 M 5.225,1 L 5.225,1.225 M 5.225,1.257 L 5.225,1.45 M 5.225,1.503 L 5.225,1.728 M 5.225,1.76 L 5.225,1.952 M 5.225,2.006 L 5.225,2.14 L 5.225,2.14 M 5.146,1 L 5.146,1.192 M 5.146,1.235 L 5.146,1.414 M 5.146,1.459 L 5.146,1.651 M 5.146,1.694 L 5.146,1.873 M 5.146,1.918 L 5.146,2.11 M 5.066,1 L 5.066,1.218 M 5.066,1.26 L 5.066,1.521 M 5.066,1.558 L 5.066,1.775 M 5.066,1.818 L 5.066,2.078 M 5.066,2.115 L 5.066,2.14 L 5.066,2.14 M 4.986,1 L 4.986,1.145 M 4.986,1.2 L 4.986,1.366 M 4.986,1.44 L 4.986,1.585 M 4.986,1.64 L 4.986,1.806 M 4.986,1.881 L 4.986,2.026 M 4.986,2.08 L 4.986,2.14 L 4.986,2.14 M 4.907,1 L 4.907,1.179 M 4.907,1.239 L 4.907,1.489 M 4.907,1.552 L 4.907,1.731 M 4.907,1.79 L 4.907,2.041 M 4.907,2.103 L 4.907,2.14 L 4.907,2.14 M 4.827,1 L 4.827,1.145 M 4.827,1.2 L 4.827,1.366 M 4.827,1.44 L 4.827,1.585 M 4.827,1.64 L 4.827,1.806 M 4.827,1.881 L 4.827,2.026 M 4.827,2.08 L 4.827,2.14 L 4.827,2.14 M 4.748,1 L 4.748,1.179 M 4.748,1.239 L 4.748,1.489 M 4.748,1.552 L 4.748,1.731 M 4.748,1.79 L 4.748,2.041 M 4.748,2.103 L 4.748,2.14 L 4.748,2.14 M 4.668,1 L 4.668,1.179 M 4.668,1.241 L 4.668,1.426 M 4.668,1.483 L 4.668,1.662 M 4.668,1.723 L 4.668,1.908 M 4.668,1.966 L 4.668,2.14 L 4.668,2.14 M 4.588,1 L 4.588,1.225 M 4.588,1.265 L 4.588,1.468 M 4.588,1.553 L 4.588,1.778 M 4.588,1.818 L 4.588,2.021 M 4.588,2.106 L 4.588,2.14 L 4.588,2.14 M 4.509,1 L 4.509,1.342 M 4.509,1.387 L 4.509,1.575 M 4.509,1.61 L 4.509,1.953 M 4.509,1.997 L 4.509,2.14 L 4.509,2.14 M 4.429,1 L 4.429,1.218 M 4.429,1.26 L 4.429,1.521 M 4.429,1.558 L 4.429,1.775 M 4.429,1.818 L 4.429,2.078 M 4.429,2.115 L 4.429,2.14 L 4.429,2.14 M 4.349,1 L 4.349,1.213 M 4.349,1.277 L 4.349,1.486 M 4.349,1.531 L 4.349,1.744 M 4.349,1.808 L 4.349,2.016 M 4.349,2.062 L 4.349,2.14 L 4.349,2.14 M 4.27,1 L 4.27,1.179 M 4.27,1.239 L 4.27,1.489 M 4.27,1.552 L 4.27,1.731 M 4.27,1.79 L 4.27,2.041 M 4.27,2.103 L 4.27,2.14 L 4.27,2.14 M 4.19,1 L 4.19,1.192 M 4.19,1.235 L 4.19,1.414 M 4.19,1.459 L 4.19,1.651 M 4.19,1.694 L 4.19,1.873 M 4.19,1.918 L 4.19,2.11 M 4.111,1 L 4.111,1.342 M 4.111,1.387 L 4.111,1.575 M 4.111,1.61 L 4.111,1.953 M 4.111,1.997 L 4.111,2.111 L 4.111,2.111 M 4.031,1 L 4.031,1.25 M 4.031,1.338 L 4.031,1.605 M 4.031,1.616 L 4.031,1.867 M 4.031,1.954 L 4.031,2.031 L 4.031,2.031 M 3.951,1 L 3.951,1.179 M 3.951,1.239 L 3.951,1.489 M 3.951,1.552 L 3.951,1.731 M 3.951,1.79 L 3.951,1.951 L 3.951,1.951 M 3.872,1 L 3.872,1.25 M 3.872,1.338 L 3.872,1.605 M 3.872,1.616 L 3.872,1.867 M 3.792,1 L 3.792,1.218 M 3.792,1.26 L 3.792,1.521 M 3.792,1.558 L 3.792,1.775 M 3.713,1 L 3.713,1.192 M 3.713,1.235 L 3.713,1.414 M 3.713,1.459 L 3.713,1.651 M 3.713,1.694 L 3.713,1.713 L 3.713,1.713 M 3.633,1 L 3.633,1.225 M 3.633,1.257 L 3.633,1.45 M 3.633,1.503 L 3.633,1.633 L 3.633,1.633 M 3.553,1 L 3.553,1.342 M 3.553,1.387 L 3.553,1.553 L 3.553,1.553 M 3.474,1 L 3.474,1.179 M 3.474,1.239 L 3.474,1.474 L 3.474,1.474 M 3.394,1 L 3.394,1.179 M 3.394,1.241 L 3.394,1.394 L 3.394,1.394 M 3.314,1 L 3.314,1.213 M 3.314,1.277 L 3.314,1.314 L 3.314,1.314 M 3.235,1 L 3.235,1.225 M 3.155,1 L 3.155,1.155 L 3.155,1.155 M 3.076,1 L 3.076,1.076 L 3.076,1.076" stroke="#000000" stroke-width="0.02" stroke-opacity="0.4"/><path d=" M 4.14,2.14 L 4.14,5.14 L 2,3 L 2,3 L 3,2 L 3,1 L 4.14,2.14" fill="#98634C"/><path d=" M 3,1.084 L 3.084,1.084 L 3.084,1.084 M 3,1.163 L 3.163,1.163 L 3.163,1.163 M 3,1.243 L 3.179,1.243 M 3.241,1.243 L 3.243,1.243 L 3.243,1.243 M 3,1.322 L 3.225,1.322 M 3.257,1.322 L 3.322,1.322 L 3.322,1.322 M 3,1.402 L 3.25,1.402 M 3.338,1.402 L 3.402,1.402 L 3.402,1.402 M 3,1.482 L 3.218,1.482 M 3.26,1.482 L 3.482,1.482 L 3.482,1.482 M 3,1.561 L 3.225,1.561 M 3.257,1.561 L 3.45,1.561 M 3.503,1.561 L 3.561,1.561 L 3.561,1.561 M 3,1.641 L 3.225,1.641 M 3.265,1.641 L 3.468,1.641 M 3.553,1.641 L 3.641,1.641 L 3.641,1.641 M 3,1.721 L 3.225,1.721 M 3.257,1.721 L 3.45,1.721 M 3.503,1.721 L 3.721,1.721 L 3.721,1.721 M 3,1.8 L 3.179,1.8 M 3.241,1.8 L 3.426,1.8 M 3.483,1.8 L 3.662,1.8 M 3.723,1.8 L 3.8,1.8 L 3.8,1.8 M 3,1.88 L 3.25,1.88 M 3.338,1.88 L 3.605,1.88 M 3.616,1.88 L 3.867,1.88 M 3,1.959 L 3.342,1.959 M 3.387,1.959 L 3.575,1.959 M 3.61,1.959 L 3.953,1.959 M 2.961,2.039 L 3.14,2.039 M 3.202,2.039 L 3.387,2.039 M 3.444,2.039 L 3.623,2.039 M 3.684,2.039 L 3.869,2.039 M 3.927,2.039 L 4.039,2.039 L 4.039,2.039 M 2.881,2.119 L 3.073,2.119 M 3.116,2.119 L 3.296,2.119 M 3.34,2.119 L 3.532,2.119 M 3.575,2.119 L 3.755,2.119 M 3.799,2.119 L 3.991,2.119 M 4.034,2.119 L 4.119,2.119 L 4.119,2.119 M 2.802,2.198 L 3.027,2.198 M 3.059,2.198 L 3.251,2.198 M 3.305,2.198 L 3.529,2.198 M 3.562,2.198 L 3.754,2.198 M 3.808,2.198 L 4.032,2.198 M 4.065,2.198 L 4.14,2.198 L 4.14,2.198 M 2.722,2.278 L 2.935,2.278 M 2.999,2.278 L 3.208,2.278 M 3.253,2.278 L 3.466,2.278 M 3.53,2.278 L 3.739,2.278 M 3.784,2.278 L 3.997,2.278 M 4.061,2.278 L 4.14,2.278 L 4.14,2.278 M 2.643,2.357 L 2.822,2.357 M 2.883,2.357 L 3.068,2.357 M 3.125,2.357 L 3.304,2.357 M 3.366,2.357 L 3.551,2.357 M 3.608,2.357 L 3.787,2.357 M 3.849,2.357 L 4.034,2.357 M 4.091,2.357 L 4.14,2.357 L 4.14,2.357 M 2.563,2.437 L 2.742,2.437 M 2.802,2.437 L 3.052,2.437 M 3.115,2.437 L 3.293,2.437 M 3.353,2.437 L 3.604,2.437 M 3.666,2.437 L 3.845,2.437 M 3.905,2.437 L 4.14,2.437 L 4.14,2.437 M 2.483,2.517 L 2.708,2.517 M 2.748,2.517 L 2.951,2.517 M 3.037,2.517 L 3.262,2.517 M 3.301,2.517 L 3.505,2.517 M 3.59,2.517 L 3.815,2.517 M 3.854,2.517 L 4.058,2.517 M 2.404,2.596 L 2.654,2.596 M 2.742,2.596 L 3.009,2.596 M 3.02,2.596 L 3.27,2.596 M 3.358,2.596 L 3.625,2.596 M 3.636,2.596 L 3.886,2.596 M 3.974,2.596 L 4.14,2.596 L 4.14,2.596 M 2.324,2.676 L 2.503,2.676 M 2.563,2.676 L 2.813,2.676 M 2.876,2.676 L 3.055,2.676 M 3.115,2.676 L 3.365,2.676 M 3.428,2.676 L 3.606,2.676 M 3.666,2.676 L 3.917,2.676 M 3.979,2.676 L 4.14,2.676 L 4.14,2.676 M 2.244,2.756 L 2.587,2.756 M 2.631,2.756 L 2.82,2.756 M 2.855,2.756 L 3.197,2.756 M 3.242,2.756 L 3.43,2.756 M 3.465,2.756 L 3.808,2.756 M 3.852,2.756 L 4.04,2.756 M 4.076,2.756 L 4.14,2.756 L 4.14,2.756 M 2.165,2.835 L 2.415,2.835 M 2.503,2.835 L 2.77,2.835 M 2.781,2.835 L 3.031,2.835 M 3.119,2.835 L 3.386,2.835 M 3.397,2.835 L 3.648,2.835 M 3.735,2.835 L 4.003,2.835 M 4.014,2.835 L 4.14,2.835 L 4.14,2.835 M 2.085,2.915 L 2.428,2.915 M 2.472,2.915 L 2.66,2.915 M 2.696,2.915 L 3.038,2.915 M 3.082,2.915 L 3.271,2.915 M 3.306,2.915 L 3.648,2.915 M 3.693,2.915 L 3.881,2.915 M 3.916,2.915 L 4.14,2.915 L 4.14,2.915 M 2.006,2.994 L 2.219,2.994 M 2.283,2.994 L 2.491,2.994 M 2.536,2.994 L 2.75,2.994 M 2.813,2.994 L 3.022,2.994 M 3.067,2.994 L 3.281,2.994 M 3.344,2.994 L 3.553,2.994 M 3.598,2.994 L 3.811,2.994 M 3.875,2.994 L 4.084,2.994 M 4.129,2.994 L 4.14,2.994 L 4.14,2.994 M 2.074,3.074 L 2.416,3.074 M 2.461,3.074 L 2.649,3.074 M 2.684,3.074 L 3.027,3.074 M 3.071,3.074 L 3.26,3.074 M 3.295,3.074 L 3.637,3.074 M 3.681,3.074 L 3.87,3.074 M 3.905,3.074 L 4.14,3.074 L 4.14,3.074 M 2.154,3.154 L 2.346,3.154 M 2.388,3.154 L 2.568,3.154 M 2.613,3.154 L 2.805,3.154 M 2.847,3.154 L 3.027,3.154 M 3.071,3.154 L 3.263,3.154 M 3.306,3.154 L 3.486,3.154 M 3.53,3.154 L 3.722,3.154 M 3.765,3.154 L 3.945,3.154 M 3.989,3.154 L 4.14,3.154 L 4.14,3.154 M 2.233,3.233 L 2.483,3.233 M 2.571,3.233 L 2.838,3.233 M 2.849,3.233 L 3.1,3.233 M 3.188,3.233 L 3.455,3.233 M 3.466,3.233 L 3.716,3.233 M 3.804,3.233 L 4.071,3.233 M 4.082,3.233 L 4.14,3.233 L 4.14,3.233 M 2.313,3.313 L 2.531,3.313 M 2.573,3.313 L 2.833,3.313 M 2.87,3.313 L 3.088,3.313 M 3.131,3.313 L 3.391,3.313 M 3.428,3.313 L 3.646,3.313 M 3.688,3.313 L 3.948,3.313 M 3.985,3.313 L 4.14,3.313 L 4.14,3.313 M 2.392,3.392 L 2.572,3.392 M 2.633,3.392 L 2.818,3.392 M 2.875,3.392 L 3.054,3.392 M 3.116,3.392 L 3.301,3.392 M 3.358,3.392 L 3.537,3.392 M 3.599,3.392 L 3.784,3.392 M 3.841,3.392 L 4.02,3.392 M 4.082,3.392 L 4.14,3.392 L 4.14,3.392 M 2.472,3.472 L 2.617,3.472 M 2.672,3.472 L 2.838,3.472 M 2.912,3.472 L 3.057,3.472 M 3.112,3.472 L 3.278,3.472 M 3.353,3.472 L 3.498,3.472 M 3.552,3.472 L 3.719,3.472 M 3.793,3.472 L 3.938,3.472 M 3.993,3.472 L 4.14,3.472 L 4.14,3.472 M 2.552,3.552 L 2.802,3.552 M 2.89,3.552 L 3.157,3.552 M 3.168,3.552 L 3.418,3.552 M 3.506,3.552 L 3.773,3.552 M 3.784,3.552 L 4.034,3.552 M 4.122,3.552 L 4.14,3.552 L 4.14,3.552 M 2.631,3.631 L 2.81,3.631 M 2.872,3.631 L 3.057,3.631 M 3.114,3.631 L 3.293,3.631 M 3.355,3.631 L 3.54,3.631 M 3.597,3.631 L 3.776,3.631 M 3.838,3.631 L 4.023,3.631 M 4.08,3.631 L 4.14,3.631 L 4.14,3.631 M 2.711,3.711 L 2.903,3.711 M 2.946,3.711 L 3.125,3.711 M 3.17,3.711 L 3.362,3.711 M 3.405,3.711 L 3.584,3.711 M 3.629,3.711 L 3.821,3.711 M 3.863,3.711 L 4.043,3.711 M 4.088,3.711 L 4.14,3.711 L 4.14,3.711 M 2.791,3.791 L 3.015,3.791 M 3.048,3.791 L 3.24,3.791 M 3.293,3.791 L 3.518,3.791 M 3.551,3.791 L 3.743,3.791 M 3.796,3.791 L 4.021,3.791 M 4.054,3.791 L 4.14,3.791 L 4.14,3.791 M 2.87,3.87 L 3.088,3.87 M 3.13,3.87 L 3.391,3.87 M 3.428,3.87 L 3.646,3.87 M 3.688,3.87 L 3.948,3.87 M 3.985,3.87 L 4.14,3.87 L 4.14,3.87 M 2.95,3.95 L 3.129,3.95 M 3.189,3.95 L 3.439,3.95 M 3.501,3.95 L 3.68,3.95 M 3.74,3.95 L 3.991,3.95 M 4.053,3.95 L 4.14,3.95 L 4.14,3.95 M 3.029,4.029 L 3.372,4.029 M 3.416,4.029 L 3.605,4.029 M 3.64,4.029 L 3.982,4.029 M 4.026,4.029 L 4.14,4.029 L 4.14,4.029 M 3.109,4.109 L 3.334,4.109 M 3.366,4.109 L 3.559,4.109 M 3.612,4.109 L 3.837,4.109 M 3.869,4.109 L 4.061,4.109 M 4.115,4.109 L 4.14,4.109 L 4.14,4.109 M 3.189,4.189 L 3.414,4.189 M 3.453,4.189 L 3.657,4.189 M 3.742,4.189 L 3.967,4.189 M 4.006,4.189 L 4.14,4.189 L 4.14,4.189 M 3.268,4.268 L 3.486,4.268 M 3.529,4.268 L 3.789,4.268 M 3.826,4.268 L 4.044,4.268 M 4.086,4.268 L 4.14,4.268 L 4.14,4.268 M 3.348,4.348 L 3.573,4.348 M 3.605,4.348 L 3.797,4.348 M 3.851,4.348 L 4.075,4.348 M 4.108,4.348 L 4.14,4.348 L 4.14,4.348 M 3.427,4.427 L 3.606,4.427 M 3.666,4.427 L 3.917,4.427 M 3.979,4.427 L 4.14,4.427 L 4.14,4.427 M 3.507,4.507 L 3.699,4.507 M 3.742,4.507 L 3.921,4.507 M 3.966,4.507 L 4.14,4.507 L 4.14,4.507 M 3.587,4.587 L 3.929,4.587 M 3.973,4.587 L 4.14,4.587 L 4.14,4.587 M 3.666,4.666 L 3.845,4.666 M 3.907,4.666 L 4.092,4.666 M 3.746,4.746 L 3.971,4.746 M 4.003,4.746 L 4.14,4.746 L 4.14,4.746 M 3.826,4.826 L 4.043,4.826 M 4.086,4.826 L 4.14,4.826 L 4.14,4.826 M 3.905,4.905 L 4.13,4.905 M 3.985,4.985 L 4.14,4.985 L 4.14,4.985 M 4.064,5.064 L 4.14,5.064 L 4.14,5.064" stroke="#000000" stroke-width="0.02" stroke-opacity="0.4"/><path d=" M 4.14,5.14 L -0.14,5.14 L 2,3 L 4.14,5.14" fill="#A26A51"/><path d=" M 4.057,5.057 L 4.057,5.14 L 4.057,5.14 M 3.978,4.978 L 3.978,5.14 L 3.978,5.14 M 3.898,4.898 L 3.898,5.123 M 3.819,4.819 L 3.819,4.998 M 3.819,5.06 L 3.819,5.14 L 3.819,5.14 M 3.74,4.74 L 3.74,4.965 M 3.74,5.004 L 3.74,5.14 L 3.74,5.14 M 3.66,4.66 L 3.66,4.878 M 3.66,4.921 L 3.66,5.14 L 3.66,5.14 M 3.581,4.581 L 3.581,4.806 M 3.581,4.846 L 3.581,5.049 M 3.581,5.134 L 3.581,5.14 L 3.581,5.14 M 3.502,4.502 L 3.502,4.715 M 3.502,4.779 L 3.502,4.988 M 3.502,5.033 L 3.502,5.14 L 3.502,5.14 M 3.423,4.423 L 3.423,4.615 M 3.423,4.657 L 3.423,4.837 M 3.423,4.882 L 3.423,5.074 M 3.423,5.116 L 3.423,5.14 L 3.423,5.14 M 3.343,4.343 L 3.343,4.522 M 3.343,4.582 L 3.343,4.833 M 3.343,4.895 L 3.343,5.074 M 3.343,5.134 L 3.343,5.14 L 3.343,5.14 M 3.264,4.264 L 3.264,4.482 M 3.264,4.525 L 3.264,4.785 M 3.264,4.822 L 3.264,5.04 M 3.264,5.082 L 3.264,5.14 L 3.264,5.14 M 3.185,4.185 L 3.185,4.435 M 3.185,4.523 L 3.185,4.79 M 3.185,4.801 L 3.185,5.051 M 3.185,5.139 L 3.185,5.14 L 3.185,5.14 M 3.106,4.106 L 3.106,4.33 M 3.106,4.363 L 3.106,4.555 M 3.106,4.609 L 3.106,4.833 M 3.106,4.866 L 3.106,5.058 M 3.106,5.111 L 3.106,5.14 L 3.106,5.14 M 3.026,4.026 L 3.026,4.218 M 3.026,4.261 L 3.026,4.441 M 3.026,4.485 L 3.026,4.677 M 3.026,4.72 L 3.026,4.9 M 3.026,4.944 L 3.026,5.136 M 2.947,3.947 L 2.947,4.172 M 2.947,4.212 L 2.947,4.415 M 2.947,4.5 L 2.947,4.725 M 2.947,4.765 L 2.947,4.968 M 2.947,5.054 L 2.947,5.14 L 2.947,5.14 M 2.868,3.868 L 2.868,4.081 M 2.868,4.145 L 2.868,4.353 M 2.868,4.399 L 2.868,4.612 M 2.868,4.676 L 2.868,4.884 M 2.868,4.929 L 2.868,5.14 L 2.868,5.14 M 2.789,3.789 L 2.789,4.006 M 2.789,4.049 L 2.789,4.309 M 2.789,4.346 L 2.789,4.564 M 2.789,4.607 L 2.789,4.867 M 2.789,4.904 L 2.789,5.122 M 2.709,3.709 L 2.709,3.888 M 2.709,3.948 L 2.709,4.199 M 2.709,4.261 L 2.709,4.44 M 2.709,4.5 L 2.709,4.75 M 2.709,4.813 L 2.709,4.992 M 2.709,5.052 L 2.709,5.14 L 2.709,5.14 M 2.63,3.63 L 2.63,3.972 M 2.63,4.017 L 2.63,4.205 M 2.63,4.24 L 2.63,4.583 M 2.63,4.627 L 2.63,4.816 M 2.63,4.851 L 2.63,5.14 L 2.63,5.14 M 2.551,3.551 L 2.551,3.764 M 2.551,3.828 L 2.551,4.036 M 2.551,4.082 L 2.551,4.295 M 2.551,4.359 L 2.551,4.567 M 2.551,4.612 L 2.551,4.826 M 2.551,4.889 L 2.551,5.098 M 2.472,3.472 L 2.472,3.697 M 2.472,3.736 L 2.472,3.94 M 2.472,4.025 L 2.472,4.25 M 2.472,4.289 L 2.472,4.493 M 2.472,4.578 L 2.472,4.803 M 2.472,4.843 L 2.472,5.046 M 2.472,5.131 L 2.472,5.14 L 2.472,5.14 M 2.392,3.392 L 2.392,3.606 M 2.392,3.669 L 2.392,3.878 M 2.392,3.923 L 2.392,4.136 M 2.392,4.2 L 2.392,4.409 M 2.392,4.454 L 2.392,4.667 M 2.392,4.731 L 2.392,4.939 M 2.392,4.985 L 2.392,5.14 L 2.392,5.14 M 2.313,3.313 L 2.313,3.538 M 2.313,3.57 L 2.313,3.763 M 2.313,3.816 L 2.313,4.041 M 2.313,4.073 L 2.313,4.266 M 2.313,4.319 L 2.313,4.544 M 2.313,4.576 L 2.313,4.768 M 2.313,4.822 L 2.313,5.046 M 2.313,5.079 L 2.313,5.14 L 2.313,5.14 M 2.234,3.234 L 2.234,3.459 M 2.234,3.498 L 2.234,3.702 M 2.234,3.787 L 2.234,4.012 M 2.234,4.052 L 2.234,4.255 M 2.234,4.34 L 2.234,4.565 M 2.234,4.605 L 2.234,4.808 M 2.234,4.894 L 2.234,5.119 M 2.155,3.155 L 2.155,3.372 M 2.155,3.415 L 2.155,3.675 M 2.155,3.712 L 2.155,3.93 M 2.155,3.972 L 2.155,4.233 M 2.155,4.27 L 2.155,4.488 M 2.155,4.53 L 2.155,4.79 M 2.155,4.827 L 2.155,5.045 M 2.155,5.088 L 2.155,5.14 L 2.155,5.14 M 2.075,3.075 L 2.075,3.326 M 2.075,3.413 L 2.075,3.681 M 2.075,3.692 L 2.075,3.942 M 2.075,4.03 L 2.075,4.297 M 2.075,4.308 L 2.075,4.558 M 2.075,4.646 L 2.075,4.913 M 2.075,4.924 L 2.075,5.14 L 2.075,5.14 M 1.996,3.004 L 1.996,3.346 M 1.996,3.391 L 1.996,3.579 M 1.996,3.614 L 1.996,3.957 M 1.996,4.001 L 1.996,4.19 M 1.996,4.225 L 1.996,4.567 M 1.996,4.611 L 1.996,4.8 M 1.996,4.835 L 1.996,5.14 L 1.996,5.14 M 1.917,3.083 L 1.917,3.308 M 1.917,3.341 L 1.917,3.533 M 1.917,3.586 L 1.917,3.811 M 1.917,3.843 L 1.917,4.036 M 1.917,4.089 L 1.917,4.314 M 1.917,4.346 L 1.917,4.539 M 1.917,4.592 L 1.917,4.817 M 1.917,4.849 L 1.917,5.041 M 1.917,5.095 L 1.917,5.14 L 1.917,5.14 M 1.838,3.162 L 1.838,3.413 M 1.838,3.501 L 1.838,3.768 M 1.838,3.779 L 1.838,4.029 M 1.838,4.117 L 1.838,4.384 M 1.838,4.395 L 1.838,4.645 M 1.838,4.733 L 1.838,5 M 1.838,5.011 L 1.838,5.14 L 1.838,5.14 M 1.758,3.242 L 1.758,3.434 M 1.758,3.476 L 1.758,3.656 M 1.758,3.701 L 1.758,3.893 M 1.758,3.935 L 1.758,4.115 M 1.758,4.16 L 1.758,4.352 M 1.758,4.394 L 1.758,4.574 M 1.758,4.618 L 1.758,4.811 M 1.758,4.853 L 1.758,5.033 M 1.758,5.077 L 1.758,5.14 L 1.758,5.14 M 1.679,3.321 L 1.679,3.571 M 1.679,3.659 L 1.679,3.926 M 1.679,3.937 L 1.679,4.188 M 1.679,4.275 L 1.679,4.542 M 1.679,4.553 L 1.679,4.804 M 1.679,4.892 L 1.679,5.14 L 1.679,5.14 M 1.6,3.4 L 1.6,3.743 M 1.6,3.787 L 1.6,3.975 M 1.6,4.011 L 1.6,4.353 M 1.6,4.397 L 1.6,4.586 M 1.6,4.621 L 1.6,4.963 M 1.6,5.008 L 1.6,5.14 L 1.6,5.14 M 1.52,3.48 L 1.52,3.693 M 1.52,3.757 L 1.52,3.965 M 1.52,4.01 L 1.52,4.224 M 1.52,4.287 L 1.52,4.496 M 1.52,4.541 L 1.52,4.754 M 1.52,4.818 L 1.52,5.027 M 1.52,5.072 L 1.52,5.14 L 1.52,5.14 M 1.441,3.559 L 1.441,3.784 M 1.441,3.823 L 1.441,4.027 M 1.441,4.112 L 1.441,4.337 M 1.441,4.377 L 1.441,4.58 M 1.441,4.665 L 1.441,4.89 M 1.441,4.93 L 1.441,5.133 M 1.362,3.638 L 1.362,3.817 M 1.362,3.879 L 1.362,4.064 M 1.362,4.121 L 1.362,4.3 M 1.362,4.362 L 1.362,4.546 M 1.362,4.604 L 1.362,4.783 M 1.362,4.844 L 1.362,5.029 M 1.362,5.087 L 1.362,5.14 L 1.362,5.14 M 1.283,3.717 L 1.283,3.942 M 1.283,3.975 L 1.283,4.167 M 1.283,4.22 L 1.283,4.445 M 1.283,4.478 L 1.283,4.67 M 1.283,4.723 L 1.283,4.948 M 1.283,4.98 L 1.283,5.14 L 1.283,5.14 M 1.203,3.797 L 1.203,3.975 M 1.203,4.035 L 1.203,4.286 M 1.203,4.348 L 1.203,4.527 M 1.203,4.587 L 1.203,4.838 M 1.203,4.9 L 1.203,5.079 M 1.203,5.139 L 1.203,5.14 L 1.203,5.14 M 1.124,3.876 L 1.124,4.126 M 1.124,4.214 L 1.124,4.481 M 1.124,4.492 L 1.124,4.742 M 1.124,4.83 L 1.124,5.097 M 1.124,5.108 L 1.124,5.14 L 1.124,5.14 M 1.045,3.955 L 1.045,4.134 M 1.045,4.194 L 1.045,4.444 M 1.045,4.507 L 1.045,4.686 M 1.045,4.746 L 1.045,4.996 M 1.045,5.059 L 1.045,5.14 L 1.045,5.14 M 0.966,4.034 L 0.966,4.259 M 0.966,4.292 L 0.966,4.484 M 0.966,4.537 L 0.966,4.762 M 0.966,4.795 L 0.966,4.987 M 0.966,5.04 L 0.966,5.14 L 0.966,5.14 M 0.886,4.114 L 0.886,4.331 M 0.886,4.374 L 0.886,4.634 M 0.886,4.671 L 0.886,4.889 M 0.886,4.931 L 0.886,5.14 L 0.886,5.14 M 0.807,4.193 L 0.807,4.443 M 0.807,4.531 L 0.807,4.798 M 0.807,4.809 L 0.807,5.059 M 0.728,4.272 L 0.728,4.497 M 0.728,4.529 L 0.728,4.722 M 0.728,4.775 L 0.728,5 M 0.728,5.032 L 0.728,5.14 L 0.728,5.14 M 0.649,4.351 L 0.649,4.53 M 0.649,4.592 L 0.649,4.777 M 0.649,4.834 L 0.649,5.013 M 0.649,5.075 L 0.649,5.14 L 0.649,5.14 M 0.569,4.431 L 0.569,4.644 M 0.569,4.708 L 0.569,4.916 M 0.569,4.961 L 0.569,5.14 L 0.569,5.14 M 0.49,4.51 L 0.49,4.76 M 0.49,4.848 L 0.49,5.115 M 0.49,5.126 L 0.49,5.14 L 0.49,5.14 M 0.411,4.589 L 0.411,4.781 M 0.411,4.824 L 0.411,5.003 M 0.411,5.048 L 0.411,5.14 L 0.411,5.14 M 0.332,4.668 L 0.332,4.886 M 0.332,4.929 L 0.332,5.14 L 0.332,5.14 M 0.252,4.748 L 0.252,4.893 M 0.252,4.947 L 0.252,5.114 M 0.173,4.827 L 0.173,5.052 M 0.173,5.091 L 0.173,5.14 L 0.173,5.14 M 0.094,4.906 L 0.094,5.085 M 0.015,4.985 L 0.015,5.14 L 0.015,5.14 M -0.065,5.065 L -0.065,5.14 L -0.065,5.14" stroke="#000000" stroke-width="0.02" stroke-opacity="0.4"/><path d=" M 4.14,5.14 L -0.14,5.14 L -0.14,0.86 L 1.86,0.86 L 1.86,-0.14 L 7.14,-0.14 L 7.14,2.14 L 4.14,2.14 L 4.14,5.14" stroke="#000000" stroke-width="0.02"/><path d=" M 7.112,-0.112 L 6.926,0.074" stroke="#664333" stroke-width="0.1"/><path d=" M 7.162,-0.112 Q 7.162,-0.091 7.147,-0.076 Q 7.132,-0.062 7.112,-0.062 L 7.112,-0.062 Q 7.091,-0.062 7.076,-0.076 Q 7.062,-0.091 7.062,-0.112 L 7.062,-0.112 Q 7.062,-0.132 7.076,-0.147 Q 7.091,-0.162 7.112,-0.162 L 7.112,-0.162 Q 7.132,-0.162 7.147,-0.147 Q 7.162,-0.132 7.162,-0.112 L 7.162,-0.112" fill="#000000"/><path d=" M 7.112,-0.112 L 6.926,0.074" stroke="#AC7156" stroke-width="0.06"/><path d=" M 6.926,0.074 L 6.741,0.259" stroke="#664333" stroke-width="0.1"/><path d=" M 6.926,0.074 L 6.741,0.259" stroke="#AC7156" stroke-width="0.06"/><path d=" M 6.741,0.259 L 6.556,0.444" stroke="#664333" stroke-width="0.1"/><path d=" M 6.741,0.259 L 6.556,0.444" stroke="#AC7156" stroke-width="0.06"/><path d=" M 6.556,0.444 L 6.371,0.629" stroke="#664333" stroke-width="0.1"/><path d=" M 6.556,0.444 L 6.371,0.629" stroke="#AC7156" stroke-width="0.06"/><path d=" M 6.371,0.629 L 6.185,0.815" stroke="#664333" stroke-width="0.1"/><path d=" M 6.371,0.629 L 6.185,0.815" stroke="#AC7156" stroke-width="0.06"/><path d=" M 6.185,0.815 L 6,1" stroke="#664333" stroke-width="0.1"/><path d=" M 6.185,0.815 L 6,1" stroke="#AC7156" stroke-width="0.06"/><path d=" M 7.112,2.112 L 6.926,1.926" stroke="#5D3D2E" stroke-width="0.1"/><path d=" M 7.162,2.112 Q 7.162,2.132 7.147,2.147 Q 7.132,2.162 7.112,2.162 L 7.112,2.162 Q 7.091,2.162 7.076,2.147 Q 7.062,2.132 7.062,2.112 L 7.062,2.112 Q 7.062,2.091 7.076,2.076 Q 7.091,2.062 7.112,2.062 L 7.112,2.062 Q 7.132,2.062 7.147,2.076 Q 7.162,2.091 7.162,2.112 L 7.162,2.112" fill="#000000"/><path d=" M 7.112,2.112 L 6.926,1.926" stroke="#9D674E" stroke-width="0.06"/><path d=" M 6.926,1.926 L 6.741,1.741" stroke="#5D3D2E" stroke-width="0.1"/><path d=" M 6.926,1.926 L 6.741,1.741" stroke="#9D674E" stroke-width="0.06"/><path d=" M 6.741,1.741 L 6.556,1.556" stroke="#5D3D2E" stroke-width="0.1"/><path d=" M 6.741,1.741 L 6.556,1.556" stroke="#9D674E" stroke-width="0.06"/><path d=" M 6.556,1.556 L 6.371,1.371" stroke="#5D3D2E" stroke-width="0.1"/><path d=" M 6.556,1.556 L 6.371,1.371" stroke="#9D674E" stroke-width="0.06"/><path d=" M 6.371,1.371 L 6.185,1.185" stroke="#5D3D2E" stroke-width="0.1"/><path d=" M 6.371,1.371 L 6.185,1.185" stroke="#9D674E" stroke-width="0.06"/><path d=" M 6.185,1.185 L 6,1" stroke="#5D3D2E" stroke-width="0.1"/><path d=" M 6.185,1.185 L 6,1" stroke="#9D674E" stroke-width="0.06"/><path d=" M 6,1 L 5.75,1" stroke="#6A4635" stroke-width="0.1"/><path d=" M 6,1 L 5.75,1" stroke="#B27559" stroke-width="0.06"/><path d=" M 5.75,1 L 5.5,1" stroke="#6A4635" stroke-width="0.1"/><path d=" M 5.75,1 L 5.5,1" stroke="#B27559" stroke-width="0.06"/><path d=" M 5.5,1 L 5.25,1" stroke="#6A4635" stroke-width="0.1"/><path d=" M 5.5,1 L 5.25,1" stroke="#B27559" stroke-width="0.06"/><path d=" M 5.25,1 L 5,1" stroke="#6A4635" stroke-width="0.1"/><path d=" M 5.25,1 L 5,1" stroke="#B27559" stroke-width="0.06"/><path d=" M 5,1 L 4.75,1" stroke="#6A4635" stroke-width="0.1"/><path d=" M 5,1 L 4.75,1" stroke="#B27559" stroke-width="0.06"/><path d=" M 4.75,1 L 4.5,1" stroke="#6A4635" stroke-width="0.1"/><path d=" M 4.75,1 L 4.5,1" stroke="#B27559" stroke-width="0.06"/><path d=" M 4.5,1 L 4.25,1" stroke="#6A4635" stroke-width="0.1"/><path d=" M 4.5,1 L 4.25,1" stroke="#B27559" stroke-width="0.06"/><path d=" M 4.25,1 L 4,1" stroke="#6A4635" stroke-width="0.1"/><path d=" M 4.25,1 L 4,1" stroke="#B27559" stroke-width="0.06"/><path d=" M 4,1 L 3.75,1" stroke="#6A4635" stroke-width="0.1"/><path d=" M 4,1 L 3.75,1" stroke="#B27559" stroke-width="0.06"/><path d=" M 3.75,1 L 3.5,1" stroke="#6A4635" stroke-width="0.1"/><path d=" M 3.75,1 L 3.5,1" stroke="#B27559" stroke-width="0.06"/><path d=" M 3.5,1 L 3.25,1" stroke="#6A4635" stroke-width="0.1"/><path d=" M 3.5,1 L 3.25,1" stroke="#B27559" stroke-width="0.06"/><path d=" M 3.25,1 L 3,1" stroke="#6A4635" stroke-width="0.1"/><path d=" M 3.25,1 L 3,1" stroke="#B27559" stroke-width="0.06"/><path d=" M 1.888,-0.112 L 2.074,0.074" stroke="#784F3C" stroke-width="0.1"/><path d=" M 1.938,-0.112 Q 1.938,-0.091 1.924,-0.076 Q 1.909,-0.062 1.888,-0.062 L 1.888,-0.062 Q 1.868,-0.062 1.853,-0.076 Q 1.838,-0.091 1.838,-0.112 L 1.838,-0.112 Q 1.838,-0.132 1.853,-0.147 Q 1.868,-0.162 1.888,-0.162 L 1.888,-0.162 Q 1.909,-0.162 1.924,-0.147 Q 1.938,-0.132 1.938,-0.112 L 1.938,-0.112" fill="#000000"/><path d=" M 1.888,-0.112 L 2.074,0.074" stroke="#C98464" stroke-width="0.06"/><path d=" M 2.074,0.074 L 2.259,0.259" stroke="#784F3C" stroke-width="0.1"/><path d=" M 2.074,0.074 L 2.259,0.259" stroke="#C98464" stroke-width="0.06"/><path d=" M 2.259,0.259 L 2.444,0.444" stroke="#784F3C" stroke-width="0.1"/><path d=" M 2.259,0.259 L 2.444,0.444" stroke="#C98464" stroke-width="0.06"/><path d=" M 2.444,0.444 L 2.629,0.629" stroke="#784F3C" stroke-width="0.1"/><path d=" M 2.444,0.444 L 2.629,0.629" stroke="#C98464" stroke-width="0.06"/><path d=" M 2.629,0.629 L 2.815,0.815" stroke="#784F3C" stroke-width="0.1"/><path d=" M 2.629,0.629 L 2.815,0.815" stroke="#C98464" stroke-width="0.06"/><path d=" M 2.815,0.815 L 3,1" stroke="#784F3C" stroke-width="0.1"/><path d=" M 2.815,0.815 L 3,1" stroke="#C98464" stroke-width="0.06"/><path d=" M 4.112,2.112 L 3.926,1.926" stroke="#5D3D2E" stroke-width="0.1"/><path d=" M 4.162,2.112 Q 4.162,2.132 4.147,2.147 Q 4.132,2.162 4.112,2.162 L 4.112,2.162 Q 4.091,2.162 4.076,2.147 Q 4.062,2.132 4.062,2.112 L 4.062,2.112 Q 4.062,2.091 4.076,2.076 Q 4.091,2.062 4.112,2.062 L 4.112,2.062 Q 4.132,2.062 4.147,2.076 Q 4.162,2.091 4.162,2.112 L 4.162,2.112" fill="#000000"/><path d=" M 4.112,2.112 L 3.926,1.926" stroke="#9D674E" stroke-width="0.06"/><path d=" M 3.926,1.926 L 3.741,1.741" stroke="#5D3D2E" stroke-width="0.1"/><path d=" M 3.926,1.926 L 3.741,1.741" stroke="#9D674E" stroke-width="0.06"/><path d=" M 3.741,1.741 L 3.556,1.556" stroke="#5D3D2E" stroke-width="0.1"/><path d=" M 3.741,1.741 L 3.556,1.556" stroke="#9D674E" stroke-width="0.06"/><path d=" M 3.556,1.556 L 3.371,1.371" stroke="#5D3D2E" stroke-width="0.1"/><path d=" M 3.556,1.556 L 3.371,1.371" stroke="#9D674E" stroke-width="0.06"/><path d=" M 3.371,1.371 L 3.185,1.185" stroke="#5D3D2E" stroke-width="0.1"/><path d=" M 3.371,1.371 L 3.185,1.185" stroke="#9D674E" stroke-width="0.06"/><path d=" M 3.185,1.185 L 3,1" stroke="#5D3D2E" stroke-width="0.1"/><path d=" M 3.185,1.185 L 3,1" stroke="#9D674E" stroke-width="0.06"/><path d=" M 3,1 L 3,1.25" stroke="#6A4635" stroke-width="0.1"/><path d=" M 3,1 L 3,1.25" stroke="#B27559" stroke-width="0.06"/><path d=" M 3,1.25 L 3,1.5" stroke="#6A4635" stroke-width="0.1"/><path d=" M 3,1.25 L 3,1.5" stroke="#B27559" stroke-width="0.06"/><path d=" M 3,1.5 L 3,1.75" stroke="#6A4635" stroke-width="0.1"/><path d=" M 3,1.5 L 3,1.75" stroke="#B27559" stroke-width="0.06"/><path d=" M 3,1.75 L 3,2" stroke="#6A4635" stroke-width="0.1"/><path d=" M 3,1.75 L 3,2" stroke="#B27559" stroke-width="0.06"/><path d=" M 1.888,0.888 L 2.074,1.074" stroke="#784F3C" stroke-width="0.1"/><path d=" M 1.938,0.888 Q 1.938,0.909 1.924,0.924 Q 1.909,0.938 1.888,0.938 L 1.888,0.938 Q 1.868,0.938 1.853,0.924 Q 1.838,0.909 1.838,0.888 L 1.838,0.888 Q 1.838,0.868 1.853,0.853 Q 1.868,0.838 1.888,0.838 L 1.888,0.838 Q 1.909,0.838 1.924,0.853 Q 1.938,0.868 1.938,0.888 L 1.938,0.888" fill="#000000"/><path d=" M 1.888,0.888 L 2.074,1.074" stroke="#C98464" stroke-width="0.06"/><path d=" M 2.074,1.074 L 2.259,1.259" stroke="#784F3C" stroke-width="0.1"/><path d=" M 2.074,1.074 L 2.259,1.259" stroke="#C98464" stroke-width="0.06"/><path d=" M 2.259,1.259 L 2.444,1.444" stroke="#784F3C" stroke-width="0.1"/><path d=" M 2.259,1.259 L 2.444,1.444" stroke="#C98464" stroke-width="0.06"/><path d=" M 2.444,1.444 L 2.629,1.629" stroke="#784F3C" stroke-width="0.1"/><path d=" M 2.444,1.444 L 2.629,1.629" stroke="#C98464" stroke-width="0.06"/><path d=" M 2.629,1.629 L 2.815,1.815" stroke="#784F3C" stroke-width="0.1"/><path d=" M 2.629,1.629 L 2.815,1.815" stroke="#C98464" stroke-width="0.06"/><path d=" M 2.815,1.815 L 3,2" stroke="#784F3C" stroke-width="0.1"/><path d=" M 2.815,1.815 L 3,2" stroke="#C98464" stroke-width="0.06"/><path d=" M -0.112,0.888 L 0.064,1.064" stroke="#784F3C" stroke-width="0.1"/><path d=" M -0.062,0.888 Q -0.062,0.909 -0.076,0.924 Q -0.091,0.938 -0.112,0.938 L -0.112,0.938 Q -0.132,0.938 -0.147,0.924 Q -0.162,0.909 -0.162,0.888 L -0.162,0.888 Q -0.162,0.868 -0.147,0.853 Q -0.132,0.838 -0.112,0.838 L -0.112,0.838 Q -0.091,0.838 -0.076,0.853 Q -0.062,0.868 -0.062,0.888 L -0.062,0.888" fill="#000000"/><path d=" M -0.112,0.888 L 0.064,1.064" stroke="#C98464" stroke-width="0.06"/><path d=" M 0.064,1.064 L 0.24,1.24" stroke="#784F3C" stroke-width="0.1"/><path d=" M 0.064,1.064 L 0.24,1.24" stroke="#C98464" stroke-width="0.06"/><path d=" M 0.24,1.24 L 0.416,1.416" stroke="#784F3C" stroke-width="0.1"/><path d=" M 0.24,1.24 L 0.416,1.416" stroke="#C98464" stroke-width="0.06"/><path d=" M 0.416,1.416 L 0.592,1.592" stroke="#784F3C" stroke-width="0.1"/><path d=" M 0.416,1.416 L 0.592,1.592" stroke="#C98464" stroke-width="0.06"/><path d=" M 0.592,1.592 L 0.768,1.768" stroke="#784F3C" stroke-width="0.1"/><path d=" M 0.592,1.592 L 0.768,1.768" stroke="#C98464" stroke-width="0.06"/><path d=" M 0.768,1.768 L 0.944,1.944" stroke="#784F3C" stroke-width="0.1"/><path d=" M 0.768,1.768 L 0.944,1.944" stroke="#C98464" stroke-width="0.06"/><path d=" M 0.944,1.944 L 1.12,2.12" stroke="#784F3C" stroke-width="0.1"/><path d=" M 0.944,1.944 L 1.12,2.12" stroke="#C98464" stroke-width="0.06"/><path d=" M 1.12,2.12 L 1.296,2.296" stroke="#784F3C" stroke-width="0.1"/><path d=" M 1.12,2.12 L 1.296,2.296" stroke="#C98464" stroke-width="0.06"/><path d=" M 1.296,2.296 L 1.472,2.472" stroke="#784F3C" stroke-width="0.1"/><path d=" M 1.296,2.296 L 1.472,2.472" stroke="#C98464" stroke-width="0.06"/><path d=" M 1.472,2.472 L 1.648,2.648" stroke="#784F3C" stroke-width="0.1"/><path d=" M 1.472,2.472 L 1.648,2.648" stroke="#C98464" stroke-width="0.06"/><path d=" M 1.648,2.648 L 1.824,2.824" stroke="#784F3C" stroke-width="0.1"/><path d=" M 1.648,2.648 L 1.824,2.824" stroke="#C98464" stroke-width="0.06"/><path d=" M 1.824,2.824 L 2,3" stroke="#784F3C" stroke-width="0.1"/><path d=" M 1.824,2.824 L 2,3" stroke="#C98464" stroke-width="0.06"/><path d=" M 3,2 L 2.8,2.2" stroke="#664333" stroke-width="0.1"/><path d=" M 3,2 L 2.8,2.2" stroke="#AC7156" stroke-width="0.06"/><path d=" M 2.8,2.2 L 2.6,2.4" stroke="#664333" stroke-width="0.1"/><path d=" M 2.8,2.2 L 2.6,2.4" stroke="#AC7156" stroke-width="0.06"/><path d=" M 2.6,2.4 L 2.4,2.6" stroke="#664333" stroke-width="0.1"/><path d=" M 2.6,2.4 L 2.4,2.6" stroke="#AC7156" stroke-width="0.06"/><path d=" M 2.4,2.6 L 2.2,2.8" stroke="#664333" stroke-width="0.1"/><path d=" M 2.4,2.6 L 2.2,2.8" stroke="#AC7156" stroke-width="0.06"/><path d=" M 2.2,2.8 L 2,3" stroke="#664333" stroke-width="0.1"/><path d=" M 2.2,2.8 L 2,3" stroke="#AC7156" stroke-width="0.06"/><path d=" M -0.112,5.112 L 0.064,4.936" stroke="#6D4836" stroke-width="0.1"/><path d=" M -0.062,5.112 Q -0.062,5.132 -0.076,5.147 Q -0.091,5.162 -0.112,5.162 L -0.112,5.162 Q -0.132,5.162 -0.147,5.147 Q -0.162,5.132 -0.162,5.112 L -0.162,5.112 Q -0.162,5.091 -0.147,5.076 Q -0.132,5.062 -0.112,5.062 L -0.112,5.062 Q -0.091,5.062 -0.076,5.076 Q -0.062,5.091 -0.062,5.112 L -0.062,5.112" fill="#000000"/><path d=" M -0.112,5.112 L 0.064,4.936" stroke="#B8785C" stroke-width="0.06"/><path d=" M 0.064,4.936 L 0.24,4.76" stroke="#6D4836" stroke-width="0.1"/><path d=" M 0.064,4.936 L 0.24,4.76" stroke="#B8785C" stroke-width="0.06"/><path d=" M 0.24,4.76 L 0.416,4.584" stroke="#6D4836" stroke-width="0.1"/><path d=" M 0.24,4.76 L 0.416,4.584" stroke="#B8785C" stroke-width="0.06"/><path d=" M 0.416,4.584 L 0.592,4.408" stroke="#6D4836" stroke-width="0.1"/><path d=" M 0.416,4.584 L 0.592,4.408" stroke="#B8785C" stroke-width="0.06"/><path d=" M 0.592,4.408 L 0.768,4.232" stroke="#6D4836" stroke-width="0.1"/><path d=" M 0.592,4.408 L 0.768,4.232" stroke="#B8785C" stroke-width="0.06"/><path d=" M 0.768,4.232 L 0.944,4.056" stroke="#6D4836" stroke-width="0.1"/><path d=" M 0.768,4.232 L 0.944,4.056" stroke="#B8785C" stroke-width="0.06"/><path d=" M 0.944,4.056 L 1.12,3.88" stroke="#6D4836" stroke-width="0.1"/><path d=" M 0.944,4.056 L 1.12,3.88" stroke="#B8785C" stroke-width="0.06"/><path d=" M 1.12,3.88 L 1.296,3.704" stroke="#6D4836" stroke-width="0.1"/><path d=" M 1.12,3.88 L 1.296,3.704" stroke="#B8785C" stroke-width="0.06"/><path d=" M 1.296,3.704 L 1.472,3.528" stroke="#6D4836" stroke-width="0.1"/><path d=" M 1.296,3.704 L 1.472,3.528" stroke="#B8785C" stroke-width="0.06"/><path d=" M 1.472,3.528 L 1.648,3.352" stroke="#6D4836" stroke-width="0.1"/><path d=" M 1.472,3.528 L 1.648,3.352" stroke="#B8785C" stroke-width="0.06"/><path d=" M 1.648,3.352 L 1.824,3.176" stroke="#6D4836" stroke-width="0.1"/><path d=" M 1.648,3.352 L 1.824,3.176" stroke="#B8785C" stroke-width="0.06"/><path d=" M 1.824,3.176 L 2,3" stroke="#6D4836" stroke-width="0.1"/><path d=" M 1.824,3.176 L 2,3" stroke="#B8785C" stroke-width="0.06"/><path d=" M 4.112,5.112 L 3.936,4.936" stroke="#5D3D2E" stroke-width="0.1"/><path d=" M 4.162,5.112 Q 4.162,5.132 4.147,5.147 Q 4.132,5.162 4.112,5.162 L 4.112,5.162 Q 4.091,5.162 4.076,5.147 Q 4.062,5.132 4.062,5.112 L 4.062,5.112 Q 4.062,5.091 4.076,5.076 Q 4.091,5.062 4.112,5.062 L 4.112,5.062 Q 4.132,5.062 4.147,5.076 Q 4.162,5.091 4.162,5.112 L 4.162,5.112" fill="#000000"/><path d=" M 4.112,5.112 L 3.936,4.936" stroke="#9D674E" stroke-width="0.06"/><path d=" M 3.936,4.936 L 3.76,4.76" stroke="#5D3D2E" stroke-width="0.1"/><path d=" M 3.936,4.936 L 3.76,4.76" stroke="#9D674E" stroke-width="0.06"/><path d=" M 3.76,4.76 L 3.584,4.584" stroke="#5D3D2E" stroke-width="0.1"/><path d=" M 3.76,4.76 L 3.584,4.584" stroke="#9D674E" stroke-width="0.06"/><path d=" M 3.584,4.584 L 3.408,4.408" stroke="#5D3D2E" stroke-width="0.1"/><path d=" M 3.584,4.584 L 3.408,4.408" stroke="#9D674E" stroke-width="0.06"/><path d=" M 3.408,4.408 L 3.232,4.232" stroke="#5D3D2E" stroke-width="0.1"/><path d=" M 3.408,4.408 L 3.232,4.232" stroke="#9D674E" stroke-width="0.06"/><path d=" M 3.232,4.232 L 3.056,4.056" stroke="#5D3D2E" stroke-width="0.1"/><path d=" M 3.232,4.232 L 3.056,4.056" stroke="#9D674E" stroke-width="0.06"/><path d=" M 3.056,4.056 L 2.88,3.88" stroke="#5D3D2E" stroke-width="0.1"/><path d=" M 3.056,4.056 L 2.88,3.88" stroke="#9D674E" stroke-width="0.06"/><path d=" M 2.88,3.88 L 2.704,3.704" stroke="#5D3D2E" stroke-width="0.1"/><path d=" M 2.88,3.88 L 2.704,3.704" stroke="#9D674E" stroke-width="0.06"/><path d=" M 2.704,3.704 L 2.528,3.528" stroke="#5D3D2E" stroke-width="0.1"/><path d=" M 2.704,3.704 L 2.528,3.528" stroke="#9D674E" stroke-width="0.06"/><path d=" M 2.528,3.528 L 2.352,3.352" stroke="#5D3D2E" stroke-width="0.1"/><path d=" M 2.528,3.528 L 2.352,3.352" stroke="#9D674E" stroke-width="0.06"/><path d=" M 2.352,3.352 L 2.176,3.176" stroke="#5D3D2E" stroke-width="0.1"/><path d=" M 2.352,3.352 L 2.176,3.176" stroke="#9D674E" stroke-width="0.06"/><path d=" M 2.176,3.176 L 2,3" stroke="#5D3D2E" stroke-width="0.1"/><path d=" M 2.176,3.176 L 2,3" stroke="#9D674E" stroke-width="0.06"/><path d=" M 6.3,0.3 L 6.7,0.3 L 6.7,0.7 L 6.3,0.7 L 6.3,0.3" fill="#B2B2B2" stroke="#000000" stroke-width="0.02"/><path d=" M 6.6,0.55 Q 6.6,0.571 6.585,0.585 Q 6.571,0.6 6.55,0.6 L 6.45,0.6 Q 6.429,0.6 6.415,0.585 Q 6.4,0.571 6.4,0.55 L 6.4,0.45 Q 6.4,0.429 6.415,0.415 Q 6.429,0.4 6.45,0.4 L 6.55,0.4 Q 6.571,0.4 6.585,0.415 Q 6.6,0.429 6.6,0.45 L 6.6,0.55" fill="#000000" stroke="#000000" stroke-width="0.02"/></g></g><g><path d=" M 0,0"/></g></g><style/><defs/></svg>